<?xml version="1.0" encoding="UTF-8" standalone="no"?>
<!DOCTYPE svg PUBLIC "-//W3C//DTD SVG 1.1//EN"
 "http://www.w3.org/Graphics/SVG/1.1/DTD/svg11.dtd">
<!-- Generated by graphviz version 2.43.0 (0)
 -->
<!-- Title: graph Pages: 1 -->
<svg width="1493pt" height="778pt"
 viewBox="0.00 0.00 1493.00 777.50" xmlns="http://www.w3.org/2000/svg" xmlns:xlink="http://www.w3.org/1999/xlink">
<g id="graph0" class="graph" transform="scale(1 1) rotate(0) translate(4 773.5)">
<title>graph</title>
<polygon fill="white" stroke="transparent" points="-4,4 -4,-773.5 1489,-773.5 1489,4 -4,4"/>
<!-- PossessionDeck -->
<g id="node1" class="node">
<title>PossessionDeck</title>
<polygon fill="lightgrey" stroke="black" points="485.5,-259.5 485.5,-319.5 645.5,-319.5 645.5,-259.5 485.5,-259.5"/>
<text text-anchor="middle" x="565.5" y="-306.7" font-family="Helvetica,sans-Serif" font-size="11.00">class: PossessionDeck</text>
<polyline fill="none" stroke="black" points="485.5,-299.5 645.5,-299.5 "/>
<text text-anchor="start" x="493.5" y="-286.7" font-family="Helvetica,sans-Serif" font-size="11.00">availablePossessions : list</text>
<polyline fill="none" stroke="black" points="485.5,-279.5 645.5,-279.5 "/>
<text text-anchor="start" x="493.5" y="-266.7" font-family="Helvetica,sans-Serif" font-size="11.00">updatePossessionDeck()</text>
</g>
<!-- Possession -->
<g id="node2" class="node">
<title>Possession</title>
<polygon fill="lightgrey" stroke="black" points="223,-90.5 223,-222.5 371,-222.5 371,-90.5 223,-90.5"/>
<text text-anchor="middle" x="297" y="-209.7" font-family="Helvetica,sans-Serif" font-size="11.00">class: Possession</text>
<polyline fill="none" stroke="black" points="223,-202.5 371,-202.5 "/>
<text text-anchor="start" x="231" y="-189.7" font-family="Helvetica,sans-Serif" font-size="11.00">name : str</text>
<text text-anchor="start" x="231" y="-177.7" font-family="Helvetica,sans-Serif" font-size="11.00">type : str</text>
<text text-anchor="start" x="231" y="-165.7" font-family="Helvetica,sans-Serif" font-size="11.00">description : str</text>
<text text-anchor="start" x="231" y="-153.7" font-family="Helvetica,sans-Serif" font-size="11.00">attackModifier : int</text>
<text text-anchor="start" x="231" y="-141.7" font-family="Helvetica,sans-Serif" font-size="11.00">damageModifier : int</text>
<text text-anchor="start" x="231" y="-129.7" font-family="Helvetica,sans-Serif" font-size="11.00">bonusDrawModifier : int</text>
<polyline fill="none" stroke="black" points="223,-122.5 371,-122.5 "/>
<text text-anchor="start" x="231" y="-109.7" font-family="Helvetica,sans-Serif" font-size="11.00">removeWounds()</text>
<text text-anchor="start" x="231" y="-97.7" font-family="Helvetica,sans-Serif" font-size="11.00">repairCheck()</text>
</g>
<!-- Possession&#45;&gt;PossessionDeck -->
<g id="edge1" class="edge">
<title>Possession&#45;&gt;PossessionDeck</title>
<path fill="none" stroke="black" d="M371.14,-203.62C397.06,-219.29 426.8,-236.14 455,-249.5 461.66,-252.66 468.65,-255.73 475.73,-258.67"/>
<polygon fill="black" stroke="black" points="474.84,-262.08 485.42,-262.6 477.47,-255.6 474.84,-262.08"/>
<text text-anchor="middle" x="413" y="-241.3" font-family="Times,serif" font-size="9.00" fill="grey">aggregate</text>
</g>
<!-- Character -->
<g id="node5" class="node">
<title>Character</title>
<polygon fill="lightgrey" stroke="black" points="455,-0.5 455,-240.5 676,-240.5 676,-0.5 455,-0.5"/>
<text text-anchor="middle" x="565.5" y="-227.7" font-family="Helvetica,sans-Serif" font-size="11.00">class: Character</text>
<polyline fill="none" stroke="black" points="455,-220.5 676,-220.5 "/>
<text text-anchor="start" x="463" y="-207.7" font-family="Helvetica,sans-Serif" font-size="11.00">name : string</text>
<text text-anchor="start" x="463" y="-195.7" font-family="Helvetica,sans-Serif" font-size="11.00">title : string</text>
<text text-anchor="start" x="463" y="-183.7" font-family="Helvetica,sans-Serif" font-size="11.00">combat : int</text>
<text text-anchor="start" x="463" y="-171.7" font-family="Helvetica,sans-Serif" font-size="11.00">endurance : int</text>
<text text-anchor="start" x="463" y="-159.7" font-family="Helvetica,sans-Serif" font-size="11.00">intelligence : int</text>
<text text-anchor="start" x="463" y="-147.7" font-family="Helvetica,sans-Serif" font-size="11.00">leadership : int</text>
<text text-anchor="start" x="463" y="-135.7" font-family="Helvetica,sans-Serif" font-size="11.00">diplomacy : int</text>
<text text-anchor="start" x="463" y="-123.7" font-family="Helvetica,sans-Serif" font-size="11.00">navigation : int</text>
<text text-anchor="start" x="463" y="-111.7" font-family="Helvetica,sans-Serif" font-size="11.00">homePlanet : string</text>
<text text-anchor="start" x="463" y="-99.7" font-family="Helvetica,sans-Serif" font-size="11.00">effectiveCombatRating : int</text>
<text text-anchor="start" x="463" y="-87.7" font-family="Helvetica,sans-Serif" font-size="11.00">wounds : int</text>
<text text-anchor="start" x="463" y="-75.7" font-family="Helvetica,sans-Serif" font-size="11.00">leader : boolean</text>
<text text-anchor="start" x="463" y="-63.7" font-family="Helvetica,sans-Serif" font-size="11.00">detected : boolean</text>
<text text-anchor="start" x="463" y="-51.7" font-family="Helvetica,sans-Serif" font-size="11.00">captured : boolean</text>
<text text-anchor="start" x="463" y="-39.7" font-family="Helvetica,sans-Serif" font-size="11.00">active : boolean</text>
<text text-anchor="start" x="463" y="-27.7" font-family="Helvetica,sans-Serif" font-size="11.00">bonusDraws : list</text>
<polyline fill="none" stroke="black" points="455,-20.5 676,-20.5 "/>
<text text-anchor="start" x="463" y="-7.7" font-family="Helvetica,sans-Serif" font-size="11.00">allegiance : string (Rebel or Imperial)</text>
</g>
<!-- Possession&#45;&gt;Character -->
<g id="edge2" class="edge">
<title>Possession&#45;&gt;Character</title>
<path fill="none" stroke="black" d="M371.17,-146.62C393.96,-143.54 419.71,-140.06 444.81,-136.67"/>
<polygon fill="black" stroke="black" points="445.32,-140.13 454.76,-135.32 444.39,-133.19 445.32,-140.13"/>
<text text-anchor="middle" x="413" y="-147.3" font-family="Times,serif" font-size="9.00" fill="grey">Assigned</text>
</g>
<!-- Ship -->
<g id="node3" class="node">
<title>Ship</title>
<polygon fill="lightgrey" stroke="black" points="5.5,-174.5 5.5,-262.5 133.5,-262.5 133.5,-174.5 5.5,-174.5"/>
<text text-anchor="middle" x="69.5" y="-249.7" font-family="Helvetica,sans-Serif" font-size="11.00">class: Ship</text>
<polyline fill="none" stroke="black" points="5.5,-242.5 133.5,-242.5 "/>
<text text-anchor="start" x="13.5" y="-229.7" font-family="Helvetica,sans-Serif" font-size="11.00">name : string</text>
<text text-anchor="start" x="13.5" y="-217.7" font-family="Helvetica,sans-Serif" font-size="11.00">cannons : int</text>
<text text-anchor="start" x="13.5" y="-205.7" font-family="Helvetica,sans-Serif" font-size="11.00">shields : int</text>
<text text-anchor="start" x="13.5" y="-193.7" font-family="Helvetica,sans-Serif" font-size="11.00">maneuver : int</text>
<text text-anchor="start" x="13.5" y="-181.7" font-family="Helvetica,sans-Serif" font-size="11.00">maxPassengers : int</text>
</g>
<!-- Ship&#45;&gt;Possession -->
<g id="edge3" class="edge">
<title>Ship&#45;&gt;Possession</title>
<path fill="none" stroke="black" d="M133.61,-201.15C158.22,-194.38 186.77,-186.53 213.01,-179.32"/>
<polygon fill="black" stroke="black" points="214.22,-182.61 222.94,-176.59 212.37,-175.86 214.22,-182.61"/>
<text text-anchor="middle" x="181" y="-196.3" font-family="Times,serif" font-size="9.00" fill="grey">aggregate</text>
</g>
<!-- Companion -->
<g id="node4" class="node">
<title>Companion</title>
<polygon fill="lightgrey" stroke="black" points="0,-35.5 0,-155.5 139,-155.5 139,-35.5 0,-35.5"/>
<text text-anchor="middle" x="69.5" y="-142.7" font-family="Helvetica,sans-Serif" font-size="11.00">class: Companion</text>
<polyline fill="none" stroke="black" points="0,-135.5 139,-135.5 "/>
<text text-anchor="start" x="8" y="-122.7" font-family="Helvetica,sans-Serif" font-size="11.00">name : string</text>
<text text-anchor="start" x="8" y="-110.7" font-family="Helvetica,sans-Serif" font-size="11.00">combatBonus : int</text>
<text text-anchor="start" x="8" y="-98.7" font-family="Helvetica,sans-Serif" font-size="11.00">intelligenceBonus : int</text>
<text text-anchor="start" x="8" y="-86.7" font-family="Helvetica,sans-Serif" font-size="11.00">diplomacyBonus : int</text>
<text text-anchor="start" x="8" y="-74.7" font-family="Helvetica,sans-Serif" font-size="11.00">navigationBonus : int</text>
<text text-anchor="start" x="8" y="-62.7" font-family="Helvetica,sans-Serif" font-size="11.00">special : list</text>
<polyline fill="none" stroke="black" points="0,-55.5 139,-55.5 "/>
<text text-anchor="start" x="8" y="-42.7" font-family="Helvetica,sans-Serif" font-size="11.00">getSpecial()</text>
</g>
<!-- Companion&#45;&gt;Possession -->
<g id="edge4" class="edge">
<title>Companion&#45;&gt;Possession</title>
<path fill="none" stroke="black" d="M139.08,-114.05C162.31,-120.34 188.51,-127.42 212.76,-133.98"/>
<polygon fill="black" stroke="black" points="212.09,-137.43 222.66,-136.66 213.92,-130.67 212.09,-137.43"/>
<text text-anchor="middle" x="181" y="-134.3" font-family="Times,serif" font-size="9.00" fill="grey">aggregate</text>
</g>
<!-- AttackerStack -->
<g id="node9" class="node">
<title>AttackerStack</title>
<polygon fill="lightgrey" stroke="black" points="1307,-266.5 1307,-410.5 1485,-410.5 1485,-266.5 1307,-266.5"/>
<text text-anchor="middle" x="1396" y="-397.7" font-family="Helvetica,sans-Serif" font-size="11.00">class: AttackerStack</text>
<polyline fill="none" stroke="black" points="1307,-390.5 1485,-390.5 "/>
<text text-anchor="start" x="1315" y="-377.7" font-family="Helvetica,sans-Serif" font-size="11.00">attackerType : list</text>
<text text-anchor="start" x="1315" y="-365.7" font-family="Helvetica,sans-Serif" font-size="11.00">attackDifferential : dictionary</text>
<text text-anchor="start" x="1315" y="-353.7" font-family="Helvetica,sans-Serif" font-size="11.00">attackModifier : list</text>
<text text-anchor="start" x="1315" y="-341.7" font-family="Helvetica,sans-Serif" font-size="11.00">currentRound : int</text>
<polyline fill="none" stroke="black" points="1307,-334.5 1485,-334.5 "/>
<text text-anchor="start" x="1315" y="-321.7" font-family="Helvetica,sans-Serif" font-size="11.00">attack()</text>
<text text-anchor="start" x="1315" y="-309.7" font-family="Helvetica,sans-Serif" font-size="11.00">capture()</text>
<text text-anchor="start" x="1315" y="-297.7" font-family="Helvetica,sans-Serif" font-size="11.00">applyWounds()</text>
<text text-anchor="start" x="1315" y="-285.7" font-family="Helvetica,sans-Serif" font-size="11.00">updateCombatRating()</text>
<text text-anchor="start" x="1315" y="-273.7" font-family="Helvetica,sans-Serif" font-size="11.00">updateModifiers()</text>
</g>
<!-- Character&#45;&gt;AttackerStack -->
<g id="edge7" class="edge">
<title>Character&#45;&gt;AttackerStack</title>
<path fill="none" stroke="black" d="M676.04,-104.44C814.18,-89.35 1055.52,-80.41 1237,-167.5 1278.83,-187.58 1314.92,-224.03 1342,-258.14"/>
<polygon fill="black" stroke="black" points="1339.44,-260.55 1348.34,-266.29 1344.96,-256.25 1339.44,-260.55"/>
<text text-anchor="middle" x="1006" y="-110.3" font-family="Times,serif" font-size="9.00" fill="grey">composite</text>
</g>
<!-- DefenderStack -->
<g id="node10" class="node">
<title>DefenderStack</title>
<polygon fill="lightgrey" stroke="black" points="1050,-177.5 1050,-309.5 1237,-309.5 1237,-177.5 1050,-177.5"/>
<text text-anchor="middle" x="1143.5" y="-296.7" font-family="Helvetica,sans-Serif" font-size="11.00">class: DefenderStack</text>
<polyline fill="none" stroke="black" points="1050,-289.5 1237,-289.5 "/>
<text text-anchor="start" x="1058" y="-276.7" font-family="Helvetica,sans-Serif" font-size="11.00">defenderType : list</text>
<text text-anchor="start" x="1058" y="-264.7" font-family="Helvetica,sans-Serif" font-size="11.00">defenseDifferential : dictionary</text>
<text text-anchor="start" x="1058" y="-252.7" font-family="Helvetica,sans-Serif" font-size="11.00">defenseModifier : list</text>
<polyline fill="none" stroke="black" points="1050,-245.5 1237,-245.5 "/>
<text text-anchor="start" x="1058" y="-232.7" font-family="Helvetica,sans-Serif" font-size="11.00">retaliate()</text>
<text text-anchor="start" x="1058" y="-220.7" font-family="Helvetica,sans-Serif" font-size="11.00">breakOff()</text>
<text text-anchor="start" x="1058" y="-208.7" font-family="Helvetica,sans-Serif" font-size="11.00">inactive()</text>
<text text-anchor="start" x="1058" y="-196.7" font-family="Helvetica,sans-Serif" font-size="11.00">applyWounds()</text>
<text text-anchor="start" x="1058" y="-184.7" font-family="Helvetica,sans-Serif" font-size="11.00">updateCombatRating()</text>
</g>
<!-- Character&#45;&gt;DefenderStack -->
<g id="edge6" class="edge">
<title>Character&#45;&gt;DefenderStack</title>
<path fill="none" stroke="black" d="M676.03,-144.61C682.11,-145.93 688.13,-147.23 694,-148.5 812.49,-174.06 948.72,-202.83 1039.66,-221.94"/>
<polygon fill="black" stroke="black" points="1039.18,-225.42 1049.69,-224.05 1040.62,-218.57 1039.18,-225.42"/>
<text text-anchor="middle" x="870.5" y="-207.3" font-family="Times,serif" font-size="9.00" fill="grey">composite</text>
</g>
<!-- MissionGroupStack -->
<g id="node11" class="node">
<title>MissionGroupStack</title>
<polygon fill="lightgrey" stroke="black" points="786.5,-367.5 786.5,-431.5 954.5,-431.5 954.5,-367.5 786.5,-367.5"/>
<text text-anchor="middle" x="870.5" y="-418.7" font-family="Helvetica,sans-Serif" font-size="11.00">class: MissionGroupStack</text>
<polyline fill="none" stroke="black" points="786.5,-411.5 954.5,-411.5 "/>
<text text-anchor="start" x="794.5" y="-398.7" font-family="Helvetica,sans-Serif" font-size="11.00">effectiveCombatRating : int</text>
<text text-anchor="start" x="794.5" y="-386.7" font-family="Helvetica,sans-Serif" font-size="11.00">currentMission : char</text>
<text text-anchor="start" x="794.5" y="-374.7" font-family="Helvetica,sans-Serif" font-size="11.00">bonusDraws : list</text>
</g>
<!-- Character&#45;&gt;MissionGroupStack -->
<g id="edge5" class="edge">
<title>Character&#45;&gt;MissionGroupStack</title>
<path fill="none" stroke="black" d="M676.32,-221.62C728.56,-269.72 787.96,-324.42 826.94,-360.31"/>
<polygon fill="black" stroke="black" points="824.73,-363.04 834.46,-367.23 829.47,-357.89 824.73,-363.04"/>
<text text-anchor="middle" x="727.5" y="-295.3" font-family="Times,serif" font-size="9.00" fill="grey">composite</text>
</g>
<!-- IrateLocals -->
<g id="node6" class="node">
<title>IrateLocals</title>
<polygon fill="lightgrey" stroke="black" points="481.5,-623.5 481.5,-767.5 649.5,-767.5 649.5,-623.5 481.5,-623.5"/>
<text text-anchor="middle" x="565.5" y="-754.7" font-family="Helvetica,sans-Serif" font-size="11.00">class: IrateLocals</text>
<polyline fill="none" stroke="black" points="481.5,-747.5 649.5,-747.5 "/>
<text text-anchor="start" x="489.5" y="-734.7" font-family="Helvetica,sans-Serif" font-size="11.00">type : string</text>
<text text-anchor="start" x="489.5" y="-722.7" font-family="Helvetica,sans-Serif" font-size="11.00">name : string</text>
<text text-anchor="start" x="489.5" y="-710.7" font-family="Helvetica,sans-Serif" font-size="11.00">combat : int</text>
<text text-anchor="start" x="489.5" y="-698.7" font-family="Helvetica,sans-Serif" font-size="11.00">endurance : int</text>
<text text-anchor="start" x="489.5" y="-686.7" font-family="Helvetica,sans-Serif" font-size="11.00">homePlanet : string</text>
<text text-anchor="start" x="489.5" y="-674.7" font-family="Helvetica,sans-Serif" font-size="11.00">attackType : string</text>
<text text-anchor="start" x="489.5" y="-662.7" font-family="Helvetica,sans-Serif" font-size="11.00">effectiveCombatRating : int</text>
<text text-anchor="start" x="489.5" y="-650.7" font-family="Helvetica,sans-Serif" font-size="11.00">wounds : int</text>
<polyline fill="none" stroke="black" points="481.5,-643.5 649.5,-643.5 "/>
<text text-anchor="start" x="489.5" y="-630.7" font-family="Helvetica,sans-Serif" font-size="11.00">getType()</text>
</g>
<!-- Creatures -->
<g id="node7" class="node">
<title>Creatures</title>
<polygon fill="lightgrey" stroke="black" points="796.5,-653.5 796.5,-737.5 944.5,-737.5 944.5,-653.5 796.5,-653.5"/>
<text text-anchor="middle" x="870.5" y="-724.7" font-family="Helvetica,sans-Serif" font-size="11.00">class: Creatures</text>
<polyline fill="none" stroke="black" points="796.5,-717.5 944.5,-717.5 "/>
<text text-anchor="start" x="804.5" y="-704.7" font-family="Helvetica,sans-Serif" font-size="11.00">combatShift : int</text>
<text text-anchor="start" x="804.5" y="-692.7" font-family="Helvetica,sans-Serif" font-size="11.00">breakOffModifier : int</text>
<text text-anchor="start" x="804.5" y="-680.7" font-family="Helvetica,sans-Serif" font-size="11.00">bonusDrawModifier : int</text>
<polyline fill="none" stroke="black" points="796.5,-673.5 944.5,-673.5 "/>
<text text-anchor="start" x="804.5" y="-660.7" font-family="Helvetica,sans-Serif" font-size="11.00">getSpecial()</text>
</g>
<!-- IrateLocals&#45;&gt;Creatures -->
<g id="edge8" class="edge">
<title>IrateLocals&#45;&gt;Creatures</title>
<path fill="none" stroke="black" d="M649.7,-695.5C692.19,-695.5 743.75,-695.5 786.25,-695.5"/>
<polygon fill="black" stroke="black" points="786.29,-699 796.29,-695.5 786.29,-692 786.29,-699"/>
<text text-anchor="middle" x="727.5" y="-698.3" font-family="Times,serif" font-size="9.00" fill="grey">generalization</text>
</g>
<!-- IrateLocals&#45;&gt;AttackerStack -->
<g id="edge10" class="edge">
<title>IrateLocals&#45;&gt;AttackerStack</title>
<path fill="none" stroke="black" d="M649.53,-721.32C788.73,-758.97 1070.29,-810.18 1237,-669.5 1313.15,-605.24 1355.24,-495.88 1376.45,-420.55"/>
<polygon fill="black" stroke="black" points="1379.91,-421.19 1379.19,-410.62 1373.16,-419.33 1379.91,-421.19"/>
<text text-anchor="middle" x="1006" y="-762.3" font-family="Times,serif" font-size="9.00" fill="grey">composite</text>
</g>
<!-- Mission -->
<g id="node13" class="node">
<title>Mission</title>
<polygon fill="lightgrey" stroke="black" points="1081.5,-472.5 1081.5,-556.5 1205.5,-556.5 1205.5,-472.5 1081.5,-472.5"/>
<text text-anchor="middle" x="1143.5" y="-543.7" font-family="Helvetica,sans-Serif" font-size="11.00">class: Mission</text>
<polyline fill="none" stroke="black" points="1081.5,-536.5 1205.5,-536.5 "/>
<text text-anchor="start" x="1089.5" y="-523.7" font-family="Helvetica,sans-Serif" font-size="11.00">name : string</text>
<text text-anchor="start" x="1089.5" y="-511.7" font-family="Helvetica,sans-Serif" font-size="11.00">type : char</text>
<text text-anchor="start" x="1089.5" y="-499.7" font-family="Helvetica,sans-Serif" font-size="11.00">description : string</text>
<polyline fill="none" stroke="black" points="1081.5,-492.5 1205.5,-492.5 "/>
<text text-anchor="start" x="1089.5" y="-479.7" font-family="Helvetica,sans-Serif" font-size="11.00">actionEventCheck()</text>
</g>
<!-- IrateLocals&#45;&gt;Mission -->
<g id="edge9" class="edge">
<title>IrateLocals&#45;&gt;Mission</title>
<path fill="none" stroke="black" d="M631.82,-623.46C670.52,-586.14 722.88,-544.15 779,-523.5 830.7,-504.48 980.85,-507.21 1071.19,-510.87"/>
<polygon fill="black" stroke="black" points="1071.22,-514.38 1081.36,-511.3 1071.51,-507.38 1071.22,-514.38"/>
<text text-anchor="middle" x="870.5" y="-526.3" font-family="Times,serif" font-size="9.00" fill="grey">Can Create</text>
</g>
<!-- Creatures&#45;&gt;AttackerStack -->
<g id="edge12" class="edge">
<title>Creatures&#45;&gt;AttackerStack</title>
<path fill="none" stroke="black" d="M944.74,-683.92C1023.67,-668.41 1149.69,-634.55 1237,-566.5 1287.15,-527.41 1327.6,-468 1355.01,-419.62"/>
<polygon fill="black" stroke="black" points="1358.16,-421.16 1359.98,-410.72 1352.05,-417.75 1358.16,-421.16"/>
<text text-anchor="middle" x="1143.5" y="-658.3" font-family="Times,serif" font-size="9.00" fill="grey">composite</text>
</g>
<!-- Creatures&#45;&gt;Mission -->
<g id="edge11" class="edge">
<title>Creatures&#45;&gt;Mission</title>
<path fill="none" stroke="black" d="M944.97,-654.11C950.78,-650.59 956.51,-647.03 962,-643.5 1001.43,-618.17 1044.16,-587.77 1078.14,-562.85"/>
<polygon fill="black" stroke="black" points="1080.61,-565.38 1086.59,-556.64 1076.46,-559.74 1080.61,-565.38"/>
<text text-anchor="middle" x="1006" y="-632.3" font-family="Times,serif" font-size="9.00" fill="grey">Can Create</text>
</g>
<!-- MilitaryUnit -->
<g id="node8" class="node">
<title>MilitaryUnit</title>
<polygon fill="lightgrey" stroke="black" points="455,-338.5 455,-470.5 676,-470.5 676,-338.5 455,-338.5"/>
<text text-anchor="middle" x="565.5" y="-457.7" font-family="Helvetica,sans-Serif" font-size="11.00">class: MilitaryUnit</text>
<polyline fill="none" stroke="black" points="455,-450.5 676,-450.5 "/>
<text text-anchor="start" x="463" y="-437.7" font-family="Helvetica,sans-Serif" font-size="11.00">type : string</text>
<text text-anchor="start" x="463" y="-425.7" font-family="Helvetica,sans-Serif" font-size="11.00">name : string</text>
<text text-anchor="start" x="463" y="-413.7" font-family="Helvetica,sans-Serif" font-size="11.00">combat : int</text>
<text text-anchor="start" x="463" y="-401.7" font-family="Helvetica,sans-Serif" font-size="11.00">endurance : int</text>
<text text-anchor="start" x="463" y="-389.7" font-family="Helvetica,sans-Serif" font-size="11.00">environType : string</text>
<text text-anchor="start" x="463" y="-377.7" font-family="Helvetica,sans-Serif" font-size="11.00">effectiveCombatRating : int</text>
<text text-anchor="start" x="463" y="-365.7" font-family="Helvetica,sans-Serif" font-size="11.00">wounds : int</text>
<polyline fill="none" stroke="black" points="455,-358.5 676,-358.5 "/>
<text text-anchor="start" x="463" y="-345.7" font-family="Helvetica,sans-Serif" font-size="11.00">allegiance : string (Rebel or Imperial)</text>
</g>
<!-- MilitaryUnit&#45;&gt;AttackerStack -->
<g id="edge14" class="edge">
<title>MilitaryUnit&#45;&gt;AttackerStack</title>
<path fill="none" stroke="black" d="M676.29,-356.84C682.22,-355.18 688.15,-353.71 694,-352.5 905.38,-308.86 1160.24,-318.95 1296.94,-329.29"/>
<polygon fill="black" stroke="black" points="1296.74,-332.78 1306.98,-330.06 1297.28,-325.8 1296.74,-332.78"/>
<text text-anchor="middle" x="1006" y="-324.3" font-family="Times,serif" font-size="9.00" fill="grey">composite</text>
</g>
<!-- MilitaryUnit&#45;&gt;MissionGroupStack -->
<g id="edge13" class="edge">
<title>MilitaryUnit&#45;&gt;MissionGroupStack</title>
<path fill="none" stroke="black" d="M676.32,-402.69C709.02,-402.15 744.54,-401.56 776.09,-401.04"/>
<polygon fill="black" stroke="black" points="776.24,-404.54 786.19,-400.87 776.13,-397.54 776.24,-404.54"/>
<text text-anchor="middle" x="727.5" y="-404.3" font-family="Times,serif" font-size="9.00" fill="grey">Can Effect</text>
</g>
<!-- DefenderStack&#45;&gt;AttackerStack -->
<g id="edge15" class="edge">
<title>DefenderStack&#45;&gt;AttackerStack</title>
<path fill="none" stroke="black" d="M1237.07,-278.6C1256.8,-286.09 1277.69,-294.01 1297.6,-301.56"/>
<polygon fill="black" stroke="black" points="1296.38,-304.84 1306.97,-305.12 1298.87,-298.3 1296.38,-304.84"/>
<text text-anchor="middle" x="1272" y="-299.3" font-family="Times,serif" font-size="9.00" fill="grey">Attacks</text>
</g>
<!-- MissionGroupStack&#45;&gt;DefenderStack -->
<g id="edge17" class="edge">
<title>MissionGroupStack&#45;&gt;DefenderStack</title>
<path fill="none" stroke="black" d="M902.96,-367.46C923.51,-347.88 951.69,-323.44 980,-306.5 998.69,-295.32 1019.71,-285.44 1040.28,-277.02"/>
<polygon fill="black" stroke="black" points="1041.71,-280.22 1049.69,-273.26 1039.11,-273.72 1041.71,-280.22"/>
<text text-anchor="middle" x="1006" y="-309.3" font-family="Times,serif" font-size="9.00" fill="grey">composite</text>
</g>
<!-- MissionGroupStack&#45;&gt;Mission -->
<g id="edge16" class="edge">
<title>MissionGroupStack&#45;&gt;Mission</title>
<path fill="none" stroke="black" d="M954.77,-417.91C980.11,-424.81 1007.68,-433.67 1032,-444.5 1046.21,-450.83 1060.73,-458.78 1074.37,-467.04"/>
<polygon fill="black" stroke="black" points="1072.85,-470.21 1083.19,-472.49 1076.53,-464.26 1072.85,-470.21"/>
<text text-anchor="middle" x="1006" y="-447.3" font-family="Times,serif" font-size="9.00" fill="grey">Assigned</text>
</g>
<!-- MissionDeck -->
<g id="node12" class="node">
<title>MissionDeck</title>
<polygon fill="lightgrey" stroke="black" points="495,-489.5 495,-549.5 636,-549.5 636,-489.5 495,-489.5"/>
<text text-anchor="middle" x="565.5" y="-536.7" font-family="Helvetica,sans-Serif" font-size="11.00">class: MissionDeck</text>
<polyline fill="none" stroke="black" points="495,-529.5 636,-529.5 "/>
<text text-anchor="start" x="503" y="-516.7" font-family="Helvetica,sans-Serif" font-size="11.00">availableMissions : list</text>
<polyline fill="none" stroke="black" points="495,-509.5 636,-509.5 "/>
<text text-anchor="start" x="503" y="-496.7" font-family="Helvetica,sans-Serif" font-size="11.00">updateMissionDeck()</text>
</g>
<!-- MissionDeck&#45;&gt;MissionGroupStack -->
<g id="edge18" class="edge">
<title>MissionDeck&#45;&gt;MissionGroupStack</title>
<path fill="none" stroke="black" d="M636.03,-503.74C650.39,-498.13 664.59,-490.6 676,-480.5 689.39,-468.64 680.08,-455.74 694,-444.5 707.48,-433.62 741.85,-423.77 776.63,-416.08"/>
<polygon fill="black" stroke="black" points="777.4,-419.5 786.44,-413.97 775.93,-412.65 777.4,-419.5"/>
<text text-anchor="middle" x="727.5" y="-447.3" font-family="Times,serif" font-size="9.00" fill="grey">Selects</text>
</g>
<!-- MissionDeck&#45;&gt;Mission -->
<g id="edge19" class="edge">
<title>MissionDeck&#45;&gt;Mission</title>
<path fill="none" stroke="black" d="M636.45,-504.19C677.71,-495.95 731.06,-486.64 779,-482.5 860.03,-475.5 880.98,-475.37 962,-482.5 998.34,-485.7 1038.34,-492.45 1071.42,-498.93"/>
<polygon fill="black" stroke="black" points="1070.96,-502.41 1081.45,-500.93 1072.33,-495.54 1070.96,-502.41"/>
<text text-anchor="middle" x="870.5" y="-485.3" font-family="Times,serif" font-size="9.00" fill="grey">aggregate</text>
</g>
<!-- 13 -->
<g id="node14" class="node">
<title>13</title>
<polygon fill="#fff68f" stroke="#8b864e" points="956,-634.5 779,-634.5 779,-542.5 962,-542.5 962,-628.5 956,-634.5"/>
<polyline fill="none" stroke="#8b864e" points="956,-634.5 956,-628.5 "/>
<polyline fill="none" stroke="#8b864e" points="962,-628.5 956,-628.5 "/>
<text text-anchor="start" x="787" y="-621.7" font-family="Helvetica,sans-Serif" font-size="11.00" fill="#8b864e">This is an example annotation&#13;</text>
<text text-anchor="start" x="787" y="-609.7" font-family="Helvetica,sans-Serif" font-size="11.00" fill="#8b864e">***&#13;</text>
<text text-anchor="start" x="787" y="-597.7" font-family="Helvetica,sans-Serif" font-size="11.00" fill="#8b864e">Can create:&#13;</text>
<text text-anchor="start" x="787" y="-585.7" font-family="Helvetica,sans-Serif" font-size="11.00" fill="#8b864e">&#45; IrateLocals&#13;</text>
<text text-anchor="start" x="787" y="-573.7" font-family="Helvetica,sans-Serif" font-size="11.00" fill="#8b864e">&#45; Creatures&#13;</text>
<text text-anchor="start" x="787" y="-561.7" font-family="Helvetica,sans-Serif" font-size="11.00" fill="#8b864e">***&#13;</text>
<text text-anchor="start" x="787" y="-549.7" font-family="Helvetica,sans-Serif" font-size="11.00" fill="#8b864e">edit</text>
</g>
<!-- 13&#45;&gt;Mission -->
<g id="edge20" class="edge">
<title>13&#45;&gt;Mission</title>
<path fill="none" stroke="grey" stroke-dasharray="1,5" d="M962.12,-563.76C1001.35,-553.04 1046.25,-540.78 1081.44,-531.17"/>
</g>
<!-- 18 -->
<g id="node15" class="node">
<title>18</title>
<polygon fill="#fff68f" stroke="#8b864e" points="329,-325.1 259,-325.1 259,-253.9 335,-253.9 335,-319.1 329,-325.1"/>
<polyline fill="none" stroke="#8b864e" points="329,-325.1 329,-319.1 "/>
<polyline fill="none" stroke="#8b864e" points="335,-319.1 329,-319.1 "/>
<text text-anchor="start" x="267" y="-312.5" font-family="Helvetica,sans-Serif" font-size="11.00" fill="#8b864e">annotaiton&#13;</text>
<text text-anchor="start" x="267" y="-299.4" font-family="Helvetica,sans-Serif" font-size="11.00" fill="#8b864e">&#13;</text>
<text text-anchor="start" x="267" y="-286.2" font-family="Helvetica,sans-Serif" font-size="11.00" fill="#8b864e">&#13;</text>
<text text-anchor="start" x="267" y="-273" font-family="Helvetica,sans-Serif" font-size="11.00" fill="#8b864e">&#13;</text>
<text text-anchor="start" x="267" y="-260.9" font-family="Helvetica,sans-Serif" font-size="11.00" fill="#8b864e">dsadas</text>
</g>
<!-- 18&#45;&gt;PossessionDeck -->
<g id="edge21" class="edge">
<title>18&#45;&gt;PossessionDeck</title>
<path fill="none" stroke="grey" stroke-dasharray="1,5" d="M335.06,-289.5C373.74,-289.5 435.59,-289.5 485.34,-289.5"/>
</g>
</g>
</svg>
