<?xml version="1.0" encoding="UTF-8" standalone="no"?>
<!DOCTYPE svg PUBLIC "-//W3C//DTD SVG 1.1//EN"
 "http://www.w3.org/Graphics/SVG/1.1/DTD/svg11.dtd">
<!-- Generated by graphviz version 2.43.0 (0)
 -->
<!-- Title: graph Pages: 1 -->
<svg width="1528pt" height="770pt"
 viewBox="0.00 0.00 1528.00 769.50" xmlns="http://www.w3.org/2000/svg" xmlns:xlink="http://www.w3.org/1999/xlink">
<g id="graph0" class="graph" transform="scale(1 1) rotate(0) translate(4 765.5)">
<title>graph</title>
<polygon fill="white" stroke="transparent" points="-4,4 -4,-765.5 1524,-765.5 1524,4 -4,4"/>
<!-- PossessionDeck -->
<g id="node1" class="node">
<title>PossessionDeck</title>
<polygon fill="lightgrey" stroke="black" points="520.5,-259.5 520.5,-319.5 680.5,-319.5 680.5,-259.5 520.5,-259.5"/>
<text text-anchor="middle" x="600.5" y="-306.7" font-family="Helvetica,sans-Serif" font-size="11.00">PossessionDeck</text>
<polyline fill="none" stroke="black" points="520.5,-299.5 680.5,-299.5 "/>
<text text-anchor="start" x="528.5" y="-286.7" font-family="Helvetica,sans-Serif" font-size="11.00">availablePossessions : list</text>
<polyline fill="none" stroke="black" points="520.5,-279.5 680.5,-279.5 "/>
<text text-anchor="start" x="528.5" y="-266.7" font-family="Helvetica,sans-Serif" font-size="11.00">updatePossessionDeck()</text>
</g>
<!-- Possession -->
<g id="node2" class="node">
<title>Possession</title>
<polygon fill="lightgrey" stroke="black" points="240.5,-69.5 240.5,-201.5 388.5,-201.5 388.5,-69.5 240.5,-69.5"/>
<text text-anchor="middle" x="314.5" y="-188.7" font-family="Helvetica,sans-Serif" font-size="11.00">Possession</text>
<polyline fill="none" stroke="black" points="240.5,-181.5 388.5,-181.5 "/>
<text text-anchor="start" x="248.5" y="-168.7" font-family="Helvetica,sans-Serif" font-size="11.00">name : str</text>
<text text-anchor="start" x="248.5" y="-156.7" font-family="Helvetica,sans-Serif" font-size="11.00">type : str</text>
<text text-anchor="start" x="248.5" y="-144.7" font-family="Helvetica,sans-Serif" font-size="11.00">description : str</text>
<text text-anchor="start" x="248.5" y="-132.7" font-family="Helvetica,sans-Serif" font-size="11.00">attackModifier : int</text>
<text text-anchor="start" x="248.5" y="-120.7" font-family="Helvetica,sans-Serif" font-size="11.00">damageModifier : int</text>
<text text-anchor="start" x="248.5" y="-108.7" font-family="Helvetica,sans-Serif" font-size="11.00">bonusDrawModifier : int</text>
<polyline fill="none" stroke="black" points="240.5,-101.5 388.5,-101.5 "/>
<text text-anchor="start" x="248.5" y="-88.7" font-family="Helvetica,sans-Serif" font-size="11.00">removeWounds()</text>
<text text-anchor="start" x="248.5" y="-76.7" font-family="Helvetica,sans-Serif" font-size="11.00">repairCheck()</text>
</g>
<!-- Possession&#45;&gt;PossessionDeck -->
<g id="edge1" class="edge">
<title>Possession&#45;&gt;PossessionDeck</title>
<path fill="none" stroke="black" d="M388.85,-188.77C419.22,-209.39 455.38,-232.16 490,-249.5 496.59,-252.8 503.53,-255.98 510.57,-258.99"/>
<polygon fill="black" stroke="black" points="509.65,-262.4 520.23,-263 512.33,-255.93 509.65,-262.4"/>
<text text-anchor="middle" x="448" y="-242.3" font-family="Times,serif" font-size="9.00" fill="grey">aggregate</text>
</g>
<!-- Character -->
<g id="node5" class="node">
<title>Character</title>
<polygon fill="lightgrey" stroke="black" points="490,-0.5 490,-240.5 711,-240.5 711,-0.5 490,-0.5"/>
<text text-anchor="middle" x="600.5" y="-227.7" font-family="Helvetica,sans-Serif" font-size="11.00">Character</text>
<polyline fill="none" stroke="black" points="490,-220.5 711,-220.5 "/>
<text text-anchor="start" x="498" y="-207.7" font-family="Helvetica,sans-Serif" font-size="11.00">name : string</text>
<text text-anchor="start" x="498" y="-195.7" font-family="Helvetica,sans-Serif" font-size="11.00">title : string</text>
<text text-anchor="start" x="498" y="-183.7" font-family="Helvetica,sans-Serif" font-size="11.00">combat : int</text>
<text text-anchor="start" x="498" y="-171.7" font-family="Helvetica,sans-Serif" font-size="11.00">endurance : int</text>
<text text-anchor="start" x="498" y="-159.7" font-family="Helvetica,sans-Serif" font-size="11.00">intelligence : int</text>
<text text-anchor="start" x="498" y="-147.7" font-family="Helvetica,sans-Serif" font-size="11.00">leadership : int</text>
<text text-anchor="start" x="498" y="-135.7" font-family="Helvetica,sans-Serif" font-size="11.00">diplomacy : int</text>
<text text-anchor="start" x="498" y="-123.7" font-family="Helvetica,sans-Serif" font-size="11.00">navigation : int</text>
<text text-anchor="start" x="498" y="-111.7" font-family="Helvetica,sans-Serif" font-size="11.00">homePlanet : string</text>
<text text-anchor="start" x="498" y="-99.7" font-family="Helvetica,sans-Serif" font-size="11.00">effectiveCombatRating : int</text>
<text text-anchor="start" x="498" y="-87.7" font-family="Helvetica,sans-Serif" font-size="11.00">wounds : int</text>
<text text-anchor="start" x="498" y="-75.7" font-family="Helvetica,sans-Serif" font-size="11.00">leader : boolean</text>
<text text-anchor="start" x="498" y="-63.7" font-family="Helvetica,sans-Serif" font-size="11.00">detected : boolean</text>
<text text-anchor="start" x="498" y="-51.7" font-family="Helvetica,sans-Serif" font-size="11.00">captured : boolean</text>
<text text-anchor="start" x="498" y="-39.7" font-family="Helvetica,sans-Serif" font-size="11.00">active : boolean</text>
<text text-anchor="start" x="498" y="-27.7" font-family="Helvetica,sans-Serif" font-size="11.00">bonusDraws : list</text>
<polyline fill="none" stroke="black" points="490,-20.5 711,-20.5 "/>
<text text-anchor="start" x="498" y="-7.7" font-family="Helvetica,sans-Serif" font-size="11.00">allegiance : string (Rebel or Imperial)</text>
</g>
<!-- Possession&#45;&gt;Character -->
<g id="edge2" class="edge">
<title>Possession&#45;&gt;Character</title>
<path fill="none" stroke="black" d="M388.64,-131.64C419.45,-130.01 455.98,-128.08 489.9,-126.29"/>
<text text-anchor="middle" x="448" y="-132.3" font-family="Times,serif" font-size="9.00" fill="grey">Assigned</text>
</g>
<!-- Ship -->
<g id="node3" class="node">
<title>Ship</title>
<polygon fill="lightgrey" stroke="black" points="5.5,-153.5 5.5,-241.5 133.5,-241.5 133.5,-153.5 5.5,-153.5"/>
<text text-anchor="middle" x="69.5" y="-228.7" font-family="Helvetica,sans-Serif" font-size="11.00">Ship</text>
<polyline fill="none" stroke="black" points="5.5,-221.5 133.5,-221.5 "/>
<text text-anchor="start" x="13.5" y="-208.7" font-family="Helvetica,sans-Serif" font-size="11.00">name : string</text>
<text text-anchor="start" x="13.5" y="-196.7" font-family="Helvetica,sans-Serif" font-size="11.00">cannons : int</text>
<text text-anchor="start" x="13.5" y="-184.7" font-family="Helvetica,sans-Serif" font-size="11.00">shields : int</text>
<text text-anchor="start" x="13.5" y="-172.7" font-family="Helvetica,sans-Serif" font-size="11.00">maneuver : int</text>
<text text-anchor="start" x="13.5" y="-160.7" font-family="Helvetica,sans-Serif" font-size="11.00">maxPassengers : int</text>
</g>
<!-- Ship&#45;&gt;Possession -->
<g id="edge3" class="edge">
<title>Ship&#45;&gt;Possession</title>
<path fill="none" stroke="black" d="M133.71,-181.37C163.28,-173.83 198.88,-164.74 230.57,-156.66"/>
<polygon fill="black" stroke="black" points="231.45,-160.05 240.27,-154.18 229.72,-153.26 231.45,-160.05"/>
<text text-anchor="middle" x="181" y="-177.3" font-family="Times,serif" font-size="9.00" fill="grey">aggregate</text>
</g>
<!-- Companion -->
<g id="node4" class="node">
<title>Companion</title>
<polygon fill="lightgrey" stroke="black" points="0,-14.5 0,-134.5 139,-134.5 139,-14.5 0,-14.5"/>
<text text-anchor="middle" x="69.5" y="-121.7" font-family="Helvetica,sans-Serif" font-size="11.00">Companion</text>
<polyline fill="none" stroke="black" points="0,-114.5 139,-114.5 "/>
<text text-anchor="start" x="8" y="-101.7" font-family="Helvetica,sans-Serif" font-size="11.00">name : string</text>
<text text-anchor="start" x="8" y="-89.7" font-family="Helvetica,sans-Serif" font-size="11.00">combatBonus : int</text>
<text text-anchor="start" x="8" y="-77.7" font-family="Helvetica,sans-Serif" font-size="11.00">intelligenceBonus : int</text>
<text text-anchor="start" x="8" y="-65.7" font-family="Helvetica,sans-Serif" font-size="11.00">diplomacyBonus : int</text>
<text text-anchor="start" x="8" y="-53.7" font-family="Helvetica,sans-Serif" font-size="11.00">navigationBonus : int</text>
<text text-anchor="start" x="8" y="-41.7" font-family="Helvetica,sans-Serif" font-size="11.00">special : list</text>
<polyline fill="none" stroke="black" points="0,-34.5 139,-34.5 "/>
<text text-anchor="start" x="8" y="-21.7" font-family="Helvetica,sans-Serif" font-size="11.00">getSpecial()</text>
</g>
<!-- Companion&#45;&gt;Possession -->
<g id="edge4" class="edge">
<title>Companion&#45;&gt;Possession</title>
<path fill="none" stroke="black" d="M139.16,-91.74C167.53,-98.86 200.68,-107.18 230.4,-114.64"/>
<polygon fill="black" stroke="black" points="229.79,-118.09 240.34,-117.13 231.49,-111.31 229.79,-118.09"/>
<text text-anchor="middle" x="181" y="-110.3" font-family="Times,serif" font-size="9.00" fill="grey">aggregate</text>
</g>
<!-- AttackerStack -->
<g id="node9" class="node">
<title>AttackerStack</title>
<polygon fill="lightgrey" stroke="black" points="1342,-266.5 1342,-410.5 1520,-410.5 1520,-266.5 1342,-266.5"/>
<text text-anchor="middle" x="1431" y="-397.7" font-family="Helvetica,sans-Serif" font-size="11.00">AttackerStack</text>
<polyline fill="none" stroke="black" points="1342,-390.5 1520,-390.5 "/>
<text text-anchor="start" x="1350" y="-377.7" font-family="Helvetica,sans-Serif" font-size="11.00">attackerType : list</text>
<text text-anchor="start" x="1350" y="-365.7" font-family="Helvetica,sans-Serif" font-size="11.00">attackDifferential : dictionary</text>
<text text-anchor="start" x="1350" y="-353.7" font-family="Helvetica,sans-Serif" font-size="11.00">attackModifier : list</text>
<text text-anchor="start" x="1350" y="-341.7" font-family="Helvetica,sans-Serif" font-size="11.00">currentRound : int</text>
<polyline fill="none" stroke="black" points="1342,-334.5 1520,-334.5 "/>
<text text-anchor="start" x="1350" y="-321.7" font-family="Helvetica,sans-Serif" font-size="11.00">attack()</text>
<text text-anchor="start" x="1350" y="-309.7" font-family="Helvetica,sans-Serif" font-size="11.00">capture()</text>
<text text-anchor="start" x="1350" y="-297.7" font-family="Helvetica,sans-Serif" font-size="11.00">applyWounds()</text>
<text text-anchor="start" x="1350" y="-285.7" font-family="Helvetica,sans-Serif" font-size="11.00">updateCombatRating()</text>
<text text-anchor="start" x="1350" y="-273.7" font-family="Helvetica,sans-Serif" font-size="11.00">updateModifiers()</text>
</g>
<!-- Character&#45;&gt;AttackerStack -->
<g id="edge7" class="edge">
<title>Character&#45;&gt;AttackerStack</title>
<path fill="none" stroke="black" d="M711.04,-104.44C849.18,-89.35 1090.52,-80.41 1272,-167.5 1313.83,-187.58 1349.92,-224.03 1377,-258.14"/>
<polygon fill="black" stroke="black" points="1374.44,-260.55 1383.34,-266.29 1379.96,-256.25 1374.44,-260.55"/>
<text text-anchor="middle" x="1041" y="-110.3" font-family="Times,serif" font-size="9.00" fill="grey">composite</text>
</g>
<!-- DefenderStack -->
<g id="node10" class="node">
<title>DefenderStack</title>
<polygon fill="lightgrey" stroke="black" points="1085,-177.5 1085,-309.5 1272,-309.5 1272,-177.5 1085,-177.5"/>
<text text-anchor="middle" x="1178.5" y="-296.7" font-family="Helvetica,sans-Serif" font-size="11.00">DefenderStack</text>
<polyline fill="none" stroke="black" points="1085,-289.5 1272,-289.5 "/>
<text text-anchor="start" x="1093" y="-276.7" font-family="Helvetica,sans-Serif" font-size="11.00">defenderType : list</text>
<text text-anchor="start" x="1093" y="-264.7" font-family="Helvetica,sans-Serif" font-size="11.00">defenseDifferential : dictionary</text>
<text text-anchor="start" x="1093" y="-252.7" font-family="Helvetica,sans-Serif" font-size="11.00">defenseModifier : list</text>
<polyline fill="none" stroke="black" points="1085,-245.5 1272,-245.5 "/>
<text text-anchor="start" x="1093" y="-232.7" font-family="Helvetica,sans-Serif" font-size="11.00">retaliate()</text>
<text text-anchor="start" x="1093" y="-220.7" font-family="Helvetica,sans-Serif" font-size="11.00">breakOff()</text>
<text text-anchor="start" x="1093" y="-208.7" font-family="Helvetica,sans-Serif" font-size="11.00">inactive()</text>
<text text-anchor="start" x="1093" y="-196.7" font-family="Helvetica,sans-Serif" font-size="11.00">applyWounds()</text>
<text text-anchor="start" x="1093" y="-184.7" font-family="Helvetica,sans-Serif" font-size="11.00">updateCombatRating()</text>
</g>
<!-- Character&#45;&gt;DefenderStack -->
<g id="edge6" class="edge">
<title>Character&#45;&gt;DefenderStack</title>
<path fill="none" stroke="black" d="M711.03,-144.61C717.11,-145.93 723.13,-147.23 729,-148.5 847.49,-174.06 983.72,-202.83 1074.66,-221.94"/>
<polygon fill="black" stroke="black" points="1074.18,-225.42 1084.69,-224.05 1075.62,-218.57 1074.18,-225.42"/>
<text text-anchor="middle" x="905.5" y="-207.3" font-family="Times,serif" font-size="9.00" fill="grey">composite</text>
</g>
<!-- MissionGroupStack -->
<g id="node11" class="node">
<title>MissionGroupStack</title>
<polygon fill="lightgrey" stroke="black" points="821.5,-367.5 821.5,-431.5 989.5,-431.5 989.5,-367.5 821.5,-367.5"/>
<text text-anchor="middle" x="905.5" y="-418.7" font-family="Helvetica,sans-Serif" font-size="11.00">MissionGroupStack</text>
<polyline fill="none" stroke="black" points="821.5,-411.5 989.5,-411.5 "/>
<text text-anchor="start" x="829.5" y="-398.7" font-family="Helvetica,sans-Serif" font-size="11.00">effectiveCombatRating : int</text>
<text text-anchor="start" x="829.5" y="-386.7" font-family="Helvetica,sans-Serif" font-size="11.00">currentMission : char</text>
<text text-anchor="start" x="829.5" y="-374.7" font-family="Helvetica,sans-Serif" font-size="11.00">bonusDraws : list</text>
</g>
<!-- Character&#45;&gt;MissionGroupStack -->
<g id="edge5" class="edge">
<title>Character&#45;&gt;MissionGroupStack</title>
<path fill="none" stroke="black" d="M711.32,-221.62C763.56,-269.72 822.96,-324.42 861.94,-360.31"/>
<polygon fill="black" stroke="black" points="859.73,-363.04 869.46,-367.23 864.47,-357.89 859.73,-363.04"/>
<text text-anchor="middle" x="762.5" y="-295.3" font-family="Times,serif" font-size="9.00" fill="grey">composite</text>
</g>
<!-- IrateLocals -->
<g id="node6" class="node">
<title>IrateLocals</title>
<polygon fill="lightgrey" stroke="black" points="516.5,-611.5 516.5,-755.5 684.5,-755.5 684.5,-611.5 516.5,-611.5"/>
<text text-anchor="middle" x="600.5" y="-742.7" font-family="Helvetica,sans-Serif" font-size="11.00">IrateLocals</text>
<polyline fill="none" stroke="black" points="516.5,-735.5 684.5,-735.5 "/>
<text text-anchor="start" x="524.5" y="-722.7" font-family="Helvetica,sans-Serif" font-size="11.00">type : string</text>
<text text-anchor="start" x="524.5" y="-710.7" font-family="Helvetica,sans-Serif" font-size="11.00">name : string</text>
<text text-anchor="start" x="524.5" y="-698.7" font-family="Helvetica,sans-Serif" font-size="11.00">combat : int</text>
<text text-anchor="start" x="524.5" y="-686.7" font-family="Helvetica,sans-Serif" font-size="11.00">endurance : int</text>
<text text-anchor="start" x="524.5" y="-674.7" font-family="Helvetica,sans-Serif" font-size="11.00">homePlanet : string</text>
<text text-anchor="start" x="524.5" y="-662.7" font-family="Helvetica,sans-Serif" font-size="11.00">attackType : string</text>
<text text-anchor="start" x="524.5" y="-650.7" font-family="Helvetica,sans-Serif" font-size="11.00">effectiveCombatRating : int</text>
<text text-anchor="start" x="524.5" y="-638.7" font-family="Helvetica,sans-Serif" font-size="11.00">wounds : int</text>
<polyline fill="none" stroke="black" points="516.5,-631.5 684.5,-631.5 "/>
<text text-anchor="start" x="524.5" y="-618.7" font-family="Helvetica,sans-Serif" font-size="11.00">getType()</text>
</g>
<!-- Creatures -->
<g id="node7" class="node">
<title>Creatures</title>
<polygon fill="lightgrey" stroke="black" points="831.5,-641.5 831.5,-725.5 979.5,-725.5 979.5,-641.5 831.5,-641.5"/>
<text text-anchor="middle" x="905.5" y="-712.7" font-family="Helvetica,sans-Serif" font-size="11.00">Creatures</text>
<polyline fill="none" stroke="black" points="831.5,-705.5 979.5,-705.5 "/>
<text text-anchor="start" x="839.5" y="-692.7" font-family="Helvetica,sans-Serif" font-size="11.00">combatShift : int</text>
<text text-anchor="start" x="839.5" y="-680.7" font-family="Helvetica,sans-Serif" font-size="11.00">breakOffModifier : int</text>
<text text-anchor="start" x="839.5" y="-668.7" font-family="Helvetica,sans-Serif" font-size="11.00">bonusDrawModifier : int</text>
<polyline fill="none" stroke="black" points="831.5,-661.5 979.5,-661.5 "/>
<text text-anchor="start" x="839.5" y="-648.7" font-family="Helvetica,sans-Serif" font-size="11.00">getSpecial()</text>
</g>
<!-- IrateLocals&#45;&gt;Creatures -->
<g id="edge8" class="edge">
<title>IrateLocals&#45;&gt;Creatures</title>
<path fill="none" stroke="black" d="M684.7,-683.5C727.19,-683.5 778.75,-683.5 821.25,-683.5"/>
<polygon fill="black" stroke="black" points="821.29,-687 831.29,-683.5 821.29,-680 821.29,-687"/>
<text text-anchor="middle" x="762.5" y="-686.3" font-family="Times,serif" font-size="9.00" fill="grey">generalization</text>
</g>
<!-- IrateLocals&#45;&gt;AttackerStack -->
<g id="edge10" class="edge">
<title>IrateLocals&#45;&gt;AttackerStack</title>
<path fill="none" stroke="black" d="M684.68,-710.03C823.48,-748.64 1103.65,-801.65 1272,-663.5 1347.54,-601.51 1389.65,-494.64 1411.04,-420.46"/>
<polygon fill="black" stroke="black" points="1414.46,-421.24 1413.8,-410.67 1407.72,-419.35 1414.46,-421.24"/>
<text text-anchor="middle" x="1041" y="-754.3" font-family="Times,serif" font-size="9.00" fill="grey">composite</text>
</g>
<!-- Mission -->
<g id="node13" class="node">
<title>Mission</title>
<polygon fill="lightgrey" stroke="black" points="1116.5,-472.5 1116.5,-556.5 1240.5,-556.5 1240.5,-472.5 1116.5,-472.5"/>
<text text-anchor="middle" x="1178.5" y="-543.7" font-family="Helvetica,sans-Serif" font-size="11.00">Mission</text>
<polyline fill="none" stroke="black" points="1116.5,-536.5 1240.5,-536.5 "/>
<text text-anchor="start" x="1124.5" y="-523.7" font-family="Helvetica,sans-Serif" font-size="11.00">name : string</text>
<text text-anchor="start" x="1124.5" y="-511.7" font-family="Helvetica,sans-Serif" font-size="11.00">type : char</text>
<text text-anchor="start" x="1124.5" y="-499.7" font-family="Helvetica,sans-Serif" font-size="11.00">description : string</text>
<polyline fill="none" stroke="black" points="1116.5,-492.5 1240.5,-492.5 "/>
<text text-anchor="start" x="1124.5" y="-479.7" font-family="Helvetica,sans-Serif" font-size="11.00">actionEventCheck()</text>
</g>
<!-- IrateLocals&#45;&gt;Mission -->
<g id="edge9" class="edge">
<title>IrateLocals&#45;&gt;Mission</title>
<path fill="none" stroke="black" d="M673.39,-611.44C711.7,-578.02 761.67,-541.72 814,-523.5 868.03,-504.69 1027.76,-508 1116.44,-511.54"/>
<text text-anchor="middle" x="905.5" y="-526.3" font-family="Times,serif" font-size="9.00" fill="grey">Can Create</text>
</g>
<!-- Creatures&#45;&gt;AttackerStack -->
<g id="edge12" class="edge">
<title>Creatures&#45;&gt;AttackerStack</title>
<path fill="none" stroke="black" d="M979.82,-674.31C1058.54,-661.39 1184.1,-631.69 1272,-566.5 1323.35,-528.42 1363.92,-468.53 1391.1,-419.69"/>
<polygon fill="black" stroke="black" points="1394.28,-421.16 1396.01,-410.7 1388.14,-417.8 1394.28,-421.16"/>
<text text-anchor="middle" x="1178.5" y="-652.3" font-family="Times,serif" font-size="9.00" fill="grey">composite</text>
</g>
<!-- Creatures&#45;&gt;Mission -->
<g id="edge11" class="edge">
<title>Creatures&#45;&gt;Mission</title>
<path fill="none" stroke="black" d="M979.8,-641.83C985.64,-638.37 991.43,-634.9 997,-631.5 1037.16,-606.97 1081.51,-578.25 1116.2,-555.4"/>
<text text-anchor="middle" x="1041" y="-621.3" font-family="Times,serif" font-size="9.00" fill="grey">Can Create</text>
</g>
<!-- MilitaryUnit -->
<g id="node8" class="node">
<title>MilitaryUnit</title>
<polygon fill="lightgrey" stroke="black" points="490,-338.5 490,-470.5 711,-470.5 711,-338.5 490,-338.5"/>
<text text-anchor="middle" x="600.5" y="-457.7" font-family="Helvetica,sans-Serif" font-size="11.00">MilitaryUnit</text>
<polyline fill="none" stroke="black" points="490,-450.5 711,-450.5 "/>
<text text-anchor="start" x="498" y="-437.7" font-family="Helvetica,sans-Serif" font-size="11.00">type : string</text>
<text text-anchor="start" x="498" y="-425.7" font-family="Helvetica,sans-Serif" font-size="11.00">name : string</text>
<text text-anchor="start" x="498" y="-413.7" font-family="Helvetica,sans-Serif" font-size="11.00">combat : int</text>
<text text-anchor="start" x="498" y="-401.7" font-family="Helvetica,sans-Serif" font-size="11.00">endurance : int</text>
<text text-anchor="start" x="498" y="-389.7" font-family="Helvetica,sans-Serif" font-size="11.00">environType : string</text>
<text text-anchor="start" x="498" y="-377.7" font-family="Helvetica,sans-Serif" font-size="11.00">effectiveCombatRating : int</text>
<text text-anchor="start" x="498" y="-365.7" font-family="Helvetica,sans-Serif" font-size="11.00">wounds : int</text>
<polyline fill="none" stroke="black" points="490,-358.5 711,-358.5 "/>
<text text-anchor="start" x="498" y="-345.7" font-family="Helvetica,sans-Serif" font-size="11.00">allegiance : string (Rebel or Imperial)</text>
</g>
<!-- MilitaryUnit&#45;&gt;AttackerStack -->
<g id="edge14" class="edge">
<title>MilitaryUnit&#45;&gt;AttackerStack</title>
<path fill="none" stroke="black" d="M711.29,-356.84C717.22,-355.18 723.15,-353.71 729,-352.5 940.38,-308.86 1195.24,-318.95 1331.94,-329.29"/>
<polygon fill="black" stroke="black" points="1331.74,-332.78 1341.98,-330.06 1332.28,-325.8 1331.74,-332.78"/>
<text text-anchor="middle" x="1041" y="-324.3" font-family="Times,serif" font-size="9.00" fill="grey">composite</text>
</g>
<!-- MilitaryUnit&#45;&gt;MissionGroupStack -->
<g id="edge13" class="edge">
<title>MilitaryUnit&#45;&gt;MissionGroupStack</title>
<path fill="none" stroke="black" d="M711.32,-402.69C747.56,-402.09 787.26,-401.43 821.19,-400.87"/>
<text text-anchor="middle" x="762.5" y="-404.3" font-family="Times,serif" font-size="9.00" fill="grey">Can Effect</text>
</g>
<!-- DefenderStack&#45;&gt;AttackerStack -->
<g id="edge15" class="edge">
<title>DefenderStack&#45;&gt;AttackerStack</title>
<path fill="none" stroke="black" d="M1272.07,-278.6C1294.92,-287.27 1319.34,-296.53 1341.97,-305.12"/>
<text text-anchor="middle" x="1307" y="-299.3" font-family="Times,serif" font-size="9.00" fill="grey">Attacks</text>
</g>
<!-- MissionGroupStack&#45;&gt;DefenderStack -->
<g id="edge17" class="edge">
<title>MissionGroupStack&#45;&gt;DefenderStack</title>
<path fill="none" stroke="black" d="M937.96,-367.46C958.51,-347.88 986.69,-323.44 1015,-306.5 1033.69,-295.32 1054.71,-285.44 1075.28,-277.02"/>
<polygon fill="black" stroke="black" points="1076.71,-280.22 1084.69,-273.26 1074.11,-273.72 1076.71,-280.22"/>
<text text-anchor="middle" x="1041" y="-309.3" font-family="Times,serif" font-size="9.00" fill="grey">composite</text>
</g>
<!-- MissionGroupStack&#45;&gt;Mission -->
<g id="edge16" class="edge">
<title>MissionGroupStack&#45;&gt;Mission</title>
<path fill="none" stroke="black" d="M989.77,-417.91C1015.11,-424.81 1042.68,-433.67 1067,-444.5 1084.32,-452.22 1102.1,-462.34 1118.19,-472.49"/>
<text text-anchor="middle" x="1041" y="-447.3" font-family="Times,serif" font-size="9.00" fill="grey">Assigned</text>
</g>
<!-- MissionDeck -->
<g id="node12" class="node">
<title>MissionDeck</title>
<polygon fill="lightgrey" stroke="black" points="530,-489.5 530,-549.5 671,-549.5 671,-489.5 530,-489.5"/>
<text text-anchor="middle" x="600.5" y="-536.7" font-family="Helvetica,sans-Serif" font-size="11.00">MissionDeck</text>
<polyline fill="none" stroke="black" points="530,-529.5 671,-529.5 "/>
<text text-anchor="start" x="538" y="-516.7" font-family="Helvetica,sans-Serif" font-size="11.00">availableMissions : list</text>
<polyline fill="none" stroke="black" points="530,-509.5 671,-509.5 "/>
<text text-anchor="start" x="538" y="-496.7" font-family="Helvetica,sans-Serif" font-size="11.00">updateMissionDeck()</text>
</g>
<!-- MissionDeck&#45;&gt;MissionGroupStack -->
<g id="edge18" class="edge">
<title>MissionDeck&#45;&gt;MissionGroupStack</title>
<path fill="none" stroke="black" d="M671.03,-503.74C685.39,-498.13 699.59,-490.6 711,-480.5 724.39,-468.64 715.08,-455.74 729,-444.5 743.75,-432.6 783.5,-421.93 821.44,-413.97"/>
<text text-anchor="middle" x="762.5" y="-447.3" font-family="Times,serif" font-size="9.00" fill="grey">Selects</text>
</g>
<!-- MissionDeck&#45;&gt;Mission -->
<g id="edge19" class="edge">
<title>MissionDeck&#45;&gt;Mission</title>
<path fill="none" stroke="black" d="M671.45,-504.19C712.71,-495.95 766.06,-486.64 814,-482.5 895.03,-475.5 915.98,-475.37 997,-482.5 1033.34,-485.7 1073.34,-492.45 1106.42,-498.93"/>
<polygon fill="black" stroke="black" points="1105.96,-502.41 1116.45,-500.93 1107.33,-495.54 1105.96,-502.41"/>
<text text-anchor="middle" x="905.5" y="-485.3" font-family="Times,serif" font-size="9.00" fill="grey">aggregate</text>
</g>
<!-- 12 -->
<g id="node14" class="node">
<title>12</title>
<polygon fill="#fff68f" stroke="#8b864e" points="400,-354.2 223,-354.2 223,-224.8 406,-224.8 406,-348.2 400,-354.2"/>
<polyline fill="none" stroke="#8b864e" points="400,-354.2 400,-348.2 "/>
<polyline fill="none" stroke="#8b864e" points="406,-348.2 400,-348.2 "/>
<text text-anchor="start" x="231" y="-341.3" font-family="Helvetica,sans-Serif" font-size="11.00" fill="#8b864e">This is an example annotation&#13;</text>
<text text-anchor="start" x="231" y="-329.3" font-family="Helvetica,sans-Serif" font-size="11.00" fill="#8b864e">***&#13;</text>
<text text-anchor="start" x="231" y="-317.3" font-family="Helvetica,sans-Serif" font-size="11.00" fill="#8b864e">List of important things:&#13;</text>
<text text-anchor="start" x="231" y="-305.3" font-family="Helvetica,sans-Serif" font-size="11.00" fill="#8b864e">&#45; Thing 1&#13;</text>
<text text-anchor="start" x="231" y="-293.3" font-family="Helvetica,sans-Serif" font-size="11.00" fill="#8b864e">&#45; Thing 2&#13;</text>
<text text-anchor="start" x="231" y="-281.3" font-family="Helvetica,sans-Serif" font-size="11.00" fill="#8b864e">&#45; And thing 3&#13;</text>
<text text-anchor="start" x="231" y="-268.2" font-family="Helvetica,sans-Serif" font-size="11.00" fill="#8b864e">&#13;</text>
<text text-anchor="start" x="231" y="-256.1" font-family="Helvetica,sans-Serif" font-size="11.00" fill="#8b864e">Aggregates:&#13;</text>
<text text-anchor="start" x="231" y="-244.1" font-family="Helvetica,sans-Serif" font-size="11.00" fill="#8b864e">&#45; Possesion&#13;</text>
<text text-anchor="start" x="231" y="-232.1" font-family="Helvetica,sans-Serif" font-size="11.00" fill="#8b864e">***</text>
</g>
<!-- 12&#45;&gt;PossessionDeck -->
<g id="edge20" class="edge">
<title>12&#45;&gt;PossessionDeck</title>
<path fill="none" stroke="grey" stroke-dasharray="1,5" d="M406.14,-289.5C442.83,-289.5 484.8,-289.5 520.25,-289.5"/>
</g>
<!-- 13 -->
<g id="node15" class="node">
<title>13</title>
<polygon fill="#fff68f" stroke="#8b864e" points="991,-622.5 814,-622.5 814,-542.5 997,-542.5 997,-616.5 991,-622.5"/>
<polyline fill="none" stroke="#8b864e" points="991,-622.5 991,-616.5 "/>
<polyline fill="none" stroke="#8b864e" points="997,-616.5 991,-616.5 "/>
<text text-anchor="start" x="822" y="-609.7" font-family="Helvetica,sans-Serif" font-size="11.00" fill="#8b864e">This is an example annotation&#13;</text>
<text text-anchor="start" x="822" y="-597.7" font-family="Helvetica,sans-Serif" font-size="11.00" fill="#8b864e">***&#13;</text>
<text text-anchor="start" x="822" y="-585.7" font-family="Helvetica,sans-Serif" font-size="11.00" fill="#8b864e">Can create:&#13;</text>
<text text-anchor="start" x="822" y="-573.7" font-family="Helvetica,sans-Serif" font-size="11.00" fill="#8b864e">&#45; IrateLocals&#13;</text>
<text text-anchor="start" x="822" y="-561.7" font-family="Helvetica,sans-Serif" font-size="11.00" fill="#8b864e">&#45; Creatures&#13;</text>
<text text-anchor="start" x="822" y="-549.7" font-family="Helvetica,sans-Serif" font-size="11.00" fill="#8b864e">***</text>
</g>
<!-- 13&#45;&gt;Mission -->
<g id="edge21" class="edge">
<title>13&#45;&gt;Mission</title>
<path fill="none" stroke="grey" stroke-dasharray="1,5" d="M997.12,-559.76C1036.35,-549.92 1081.25,-538.65 1116.44,-529.82"/>
</g>
</g>
</svg>
