<?xml version="1.0" encoding="UTF-8" standalone="no"?>
<!DOCTYPE svg PUBLIC "-//W3C//DTD SVG 1.1//EN"
 "http://www.w3.org/Graphics/SVG/1.1/DTD/svg11.dtd">
<!-- Generated by graphviz version 2.43.0 (0)
 -->
<!-- Title: %3 Pages: 1 -->
<svg width="697pt" height="152pt"
 viewBox="0.00 0.00 697.00 152.00" xmlns="http://www.w3.org/2000/svg" xmlns:xlink="http://www.w3.org/1999/xlink">
<g id="graph0" class="graph" transform="scale(1 1) rotate(0) translate(4 148)">
<title>%3</title>
<polygon fill="white" stroke="transparent" points="-4,4 -4,-148 693,-148 693,4 -4,4"/>
<!-- cl0002 -->
<g id="node1" class="node">
<title>cl0002</title>
<polygon fill="lightgrey" stroke="lightgrey" points="689,-117 613,-117 613,-81 689,-81 689,-117"/>
<text text-anchor="middle" x="651" y="-95.3" font-family="Times,serif" font-size="14.00">abstract</text>
</g>
<!-- cl0003 -->
<g id="node2" class="node">
<title>cl0003</title>
<polygon fill="lightgrey" stroke="lightgrey" points="497,-144 381,-144 381,-108 497,-108 497,-144"/>
<text text-anchor="middle" x="439" y="-122.3" font-family="Times,serif" font-size="14.00">abstract class</text>
</g>
<!-- cl0003&#45;&gt;cl0002 -->
<g id="edge1" class="edge">
<title>cl0003&#45;&gt;cl0002</title>
<path fill="none" stroke="black" d="M497.11,-118.66C530.17,-114.41 571.3,-109.12 602.57,-105.1"/>
<polygon fill="black" stroke="black" points="603.29,-108.53 612.77,-103.79 602.4,-101.59 603.29,-108.53"/>
<text text-anchor="middle" x="555" y="-118.8" font-family="Times,serif" font-size="14.00">association</text>
</g>
<!-- cl0004 -->
<g id="node3" class="node">
<title>cl0004</title>
<polygon fill="lightgrey" stroke="lightgrey" points="265,-144 172,-144 172,-108 265,-108 265,-144"/>
<text text-anchor="middle" x="218.5" y="-122.3" font-family="Times,serif" font-size="14.00">annotation</text>
</g>
<!-- cl0004&#45;&gt;cl0003 -->
<g id="edge2" class="edge">
<title>cl0004&#45;&gt;cl0003</title>
<path fill="none" stroke="black" d="M265.04,-126C295.53,-126 336.2,-126 370.43,-126"/>
<polygon fill="black" stroke="black" points="370.84,-129.5 380.84,-126 370.84,-122.5 370.84,-129.5"/>
<text text-anchor="middle" x="323" y="-129.8" font-family="Times,serif" font-size="14.00">association</text>
</g>
<!-- cl0005 -->
<g id="node4" class="node">
<title>cl0005</title>
<polygon fill="lightgrey" stroke="lightgrey" points="466,-90 412,-90 412,-54 466,-54 466,-90"/>
<text text-anchor="middle" x="439" y="-68.3" font-family="Times,serif" font-size="14.00">class</text>
</g>
<!-- cl0005&#45;&gt;cl0002 -->
<g id="edge3" class="edge">
<title>cl0005&#45;&gt;cl0002</title>
<path fill="none" stroke="black" d="M466.17,-73.58C497.08,-75.67 550,-79.94 595,-87 597.53,-87.4 600.13,-87.84 602.74,-88.31"/>
<polygon fill="black" stroke="black" points="602.35,-91.8 612.83,-90.27 603.68,-84.93 602.35,-91.8"/>
<text text-anchor="middle" x="555" y="-90.8" font-family="Times,serif" font-size="14.00">association</text>
</g>
<!-- cl0006 -->
<g id="node5" class="node">
<title>cl0006</title>
<polygon fill="lightgrey" stroke="lightgrey" points="248,-90 189,-90 189,-54 248,-54 248,-90"/>
<text text-anchor="middle" x="218.5" y="-68.3" font-family="Times,serif" font-size="14.00">entity</text>
</g>
<!-- cl0006&#45;&gt;cl0005 -->
<g id="edge4" class="edge">
<title>cl0006&#45;&gt;cl0005</title>
<path fill="none" stroke="black" d="M248.07,-72C287.5,-72 358.62,-72 401.75,-72"/>
<polygon fill="black" stroke="black" points="401.82,-75.5 411.82,-72 401.82,-68.5 401.82,-75.5"/>
<text text-anchor="middle" x="323" y="-75.8" font-family="Times,serif" font-size="14.00">association</text>
</g>
<!-- cl0007 -->
<g id="node6" class="node">
<title>cl0007</title>
<polygon fill="lightgrey" stroke="lightgrey" points="56,-90 0,-90 0,-54 56,-54 56,-90"/>
<text text-anchor="middle" x="28" y="-68.3" font-family="Times,serif" font-size="14.00">enum</text>
</g>
<!-- cl0007&#45;&gt;cl0006 -->
<g id="edge5" class="edge">
<title>cl0007&#45;&gt;cl0006</title>
<path fill="none" stroke="black" d="M56.01,-72C88.07,-72 141.78,-72 178.39,-72"/>
<polygon fill="black" stroke="black" points="178.69,-75.5 188.69,-72 178.69,-68.5 178.69,-75.5"/>
<text text-anchor="middle" x="114" y="-75.8" font-family="Times,serif" font-size="14.00">association</text>
</g>
<!-- cl0008 -->
<g id="node7" class="node">
<title>cl0008</title>
<polygon fill="lightgrey" stroke="lightgrey" points="258.5,-36 178.5,-36 178.5,0 258.5,0 258.5,-36"/>
<text text-anchor="middle" x="218.5" y="-14.3" font-family="Times,serif" font-size="14.00">interface</text>
</g>
<!-- cl0008&#45;&gt;cl0005 -->
<g id="edge6" class="edge">
<title>cl0008&#45;&gt;cl0005</title>
<path fill="none" stroke="black" d="M258.5,-27.41C287.38,-34.41 327.66,-44.21 363,-53 375.73,-56.16 389.66,-59.68 402.03,-62.82"/>
<polygon fill="black" stroke="black" points="401.43,-66.28 411.98,-65.35 403.15,-59.49 401.43,-66.28"/>
<text text-anchor="middle" x="323" y="-56.8" font-family="Times,serif" font-size="14.00">association</text>
</g>
</g>
</svg>
