<?xml version="1.0" encoding="UTF-8" standalone="no"?>
<!DOCTYPE svg PUBLIC "-//W3C//DTD SVG 1.1//EN"
 "http://www.w3.org/Graphics/SVG/1.1/DTD/svg11.dtd">
<!-- Generated by graphviz version 2.43.0 (0)
 -->
<!-- Title: dot Pages: 1 -->
<svg width="1516pt" height="863pt"
 viewBox="0.00 0.00 1516.00 862.50" xmlns="http://www.w3.org/2000/svg" xmlns:xlink="http://www.w3.org/1999/xlink">
<g id="graph0" class="graph" transform="scale(1 1) rotate(0) translate(4 858.5)">
<title>dot</title>
<polygon fill="white" stroke="transparent" points="-4,4 -4,-858.5 1512,-858.5 1512,4 -4,4"/>
<!-- PossessionDeck -->
<g id="node1" class="node">
<title>PossessionDeck</title>
<polygon fill="lightgrey" stroke="black" points="504.5,-259.5 504.5,-319.5 664.5,-319.5 664.5,-259.5 504.5,-259.5"/>
<text text-anchor="middle" x="584.5" y="-306.7" font-family="Helvetica,sans-Serif" font-size="11.00">PossessionDeck</text>
<polyline fill="none" stroke="black" points="504.5,-299.5 664.5,-299.5 "/>
<text text-anchor="start" x="512.5" y="-286.7" font-family="Helvetica,sans-Serif" font-size="11.00">availablePossessions : list</text>
<polyline fill="none" stroke="black" points="504.5,-279.5 664.5,-279.5 "/>
<text text-anchor="start" x="512.5" y="-266.7" font-family="Helvetica,sans-Serif" font-size="11.00">updatePossessionDeck()</text>
</g>
<!-- Possession -->
<g id="node2" class="node">
<title>Possession</title>
<polygon fill="lightgrey" stroke="black" points="223,-180.5 223,-312.5 371,-312.5 371,-180.5 223,-180.5"/>
<text text-anchor="middle" x="297" y="-299.7" font-family="Helvetica,sans-Serif" font-size="11.00">Possession</text>
<polyline fill="none" stroke="black" points="223,-292.5 371,-292.5 "/>
<text text-anchor="start" x="231" y="-279.7" font-family="Helvetica,sans-Serif" font-size="11.00">name : str</text>
<text text-anchor="start" x="231" y="-267.7" font-family="Helvetica,sans-Serif" font-size="11.00">type : str</text>
<text text-anchor="start" x="231" y="-255.7" font-family="Helvetica,sans-Serif" font-size="11.00">description : str</text>
<text text-anchor="start" x="231" y="-243.7" font-family="Helvetica,sans-Serif" font-size="11.00">attackModifier : int</text>
<text text-anchor="start" x="231" y="-231.7" font-family="Helvetica,sans-Serif" font-size="11.00">damageModifier : int</text>
<text text-anchor="start" x="231" y="-219.7" font-family="Helvetica,sans-Serif" font-size="11.00">bonusDrawModifier : int</text>
<polyline fill="none" stroke="black" points="223,-212.5 371,-212.5 "/>
<text text-anchor="start" x="231" y="-199.7" font-family="Helvetica,sans-Serif" font-size="11.00">removeWounds()</text>
<text text-anchor="start" x="231" y="-187.7" font-family="Helvetica,sans-Serif" font-size="11.00">repairCheck()</text>
</g>
<!-- Possession&#45;&gt;PossessionDeck -->
<g id="edge1" class="edge">
<title>Possession&#45;&gt;PossessionDeck</title>
<path fill="none" stroke="black" d="M371.15,-257.52C408.7,-263.17 454.74,-270.11 494.35,-276.07"/>
<polygon fill="black" stroke="black" points="493.86,-279.54 504.27,-277.57 494.9,-272.62 493.86,-279.54"/>
<text text-anchor="middle" x="413" y="-269.3" font-family="Times,serif" font-size="9.00" fill="grey">aggregate</text>
</g>
<!-- Character -->
<g id="node5" class="node">
<title>Character</title>
<polygon fill="lightgrey" stroke="black" points="474,-0.5 474,-240.5 695,-240.5 695,-0.5 474,-0.5"/>
<text text-anchor="middle" x="584.5" y="-227.7" font-family="Helvetica,sans-Serif" font-size="11.00">Character</text>
<polyline fill="none" stroke="black" points="474,-220.5 695,-220.5 "/>
<text text-anchor="start" x="482" y="-207.7" font-family="Helvetica,sans-Serif" font-size="11.00">name : string</text>
<text text-anchor="start" x="482" y="-195.7" font-family="Helvetica,sans-Serif" font-size="11.00">title : string</text>
<text text-anchor="start" x="482" y="-183.7" font-family="Helvetica,sans-Serif" font-size="11.00">combat : int</text>
<text text-anchor="start" x="482" y="-171.7" font-family="Helvetica,sans-Serif" font-size="11.00">endurance : int</text>
<text text-anchor="start" x="482" y="-159.7" font-family="Helvetica,sans-Serif" font-size="11.00">intelligence : int</text>
<text text-anchor="start" x="482" y="-147.7" font-family="Helvetica,sans-Serif" font-size="11.00">leadership : int</text>
<text text-anchor="start" x="482" y="-135.7" font-family="Helvetica,sans-Serif" font-size="11.00">diplomacy : int</text>
<text text-anchor="start" x="482" y="-123.7" font-family="Helvetica,sans-Serif" font-size="11.00">navigation : int</text>
<text text-anchor="start" x="482" y="-111.7" font-family="Helvetica,sans-Serif" font-size="11.00">homePlanet : string</text>
<text text-anchor="start" x="482" y="-99.7" font-family="Helvetica,sans-Serif" font-size="11.00">effectiveCombatRating : int</text>
<text text-anchor="start" x="482" y="-87.7" font-family="Helvetica,sans-Serif" font-size="11.00">wounds : int</text>
<text text-anchor="start" x="482" y="-75.7" font-family="Helvetica,sans-Serif" font-size="11.00">leader : boolean</text>
<text text-anchor="start" x="482" y="-63.7" font-family="Helvetica,sans-Serif" font-size="11.00">detected : boolean</text>
<text text-anchor="start" x="482" y="-51.7" font-family="Helvetica,sans-Serif" font-size="11.00">captured : boolean</text>
<text text-anchor="start" x="482" y="-39.7" font-family="Helvetica,sans-Serif" font-size="11.00">active : boolean</text>
<text text-anchor="start" x="482" y="-27.7" font-family="Helvetica,sans-Serif" font-size="11.00">bonusDraws : list</text>
<polyline fill="none" stroke="black" points="474,-20.5 695,-20.5 "/>
<text text-anchor="start" x="482" y="-7.7" font-family="Helvetica,sans-Serif" font-size="11.00">allegiance : string (Rebel or Imperial)</text>
</g>
<!-- Possession&#45;&gt;Character -->
<g id="edge2" class="edge">
<title>Possession&#45;&gt;Character</title>
<path fill="none" stroke="black" d="M371.15,-214.22C402.38,-200.43 439.49,-184.06 473.88,-168.88"/>
<text text-anchor="middle" x="413" y="-209.3" font-family="Times,serif" font-size="9.00" fill="grey">Assigned</text>
</g>
<!-- Ship -->
<g id="node3" class="node">
<title>Ship</title>
<polygon fill="lightgrey" stroke="black" points="5.5,-264.5 5.5,-352.5 133.5,-352.5 133.5,-264.5 5.5,-264.5"/>
<text text-anchor="middle" x="69.5" y="-339.7" font-family="Helvetica,sans-Serif" font-size="11.00">Ship</text>
<polyline fill="none" stroke="black" points="5.5,-332.5 133.5,-332.5 "/>
<text text-anchor="start" x="13.5" y="-319.7" font-family="Helvetica,sans-Serif" font-size="11.00">name : string</text>
<text text-anchor="start" x="13.5" y="-307.7" font-family="Helvetica,sans-Serif" font-size="11.00">cannons : int</text>
<text text-anchor="start" x="13.5" y="-295.7" font-family="Helvetica,sans-Serif" font-size="11.00">shields : int</text>
<text text-anchor="start" x="13.5" y="-283.7" font-family="Helvetica,sans-Serif" font-size="11.00">maneuver : int</text>
<text text-anchor="start" x="13.5" y="-271.7" font-family="Helvetica,sans-Serif" font-size="11.00">maxPassengers : int</text>
</g>
<!-- Ship&#45;&gt;Possession -->
<g id="edge3" class="edge">
<title>Ship&#45;&gt;Possession</title>
<path fill="none" stroke="black" d="M133.61,-291.15C158.22,-284.38 186.77,-276.53 213.01,-269.32"/>
<polygon fill="black" stroke="black" points="214.22,-272.61 222.94,-266.59 212.37,-265.86 214.22,-272.61"/>
<text text-anchor="middle" x="181" y="-285.3" font-family="Times,serif" font-size="9.00" fill="grey">aggregate</text>
</g>
<!-- Companion -->
<g id="node4" class="node">
<title>Companion</title>
<polygon fill="lightgrey" stroke="black" points="0,-125.5 0,-245.5 139,-245.5 139,-125.5 0,-125.5"/>
<text text-anchor="middle" x="69.5" y="-232.7" font-family="Helvetica,sans-Serif" font-size="11.00">Companion</text>
<polyline fill="none" stroke="black" points="0,-225.5 139,-225.5 "/>
<text text-anchor="start" x="8" y="-212.7" font-family="Helvetica,sans-Serif" font-size="11.00">name : string</text>
<text text-anchor="start" x="8" y="-200.7" font-family="Helvetica,sans-Serif" font-size="11.00">combatBonus : int</text>
<text text-anchor="start" x="8" y="-188.7" font-family="Helvetica,sans-Serif" font-size="11.00">intelligenceBonus : int</text>
<text text-anchor="start" x="8" y="-176.7" font-family="Helvetica,sans-Serif" font-size="11.00">diplomacyBonus : int</text>
<text text-anchor="start" x="8" y="-164.7" font-family="Helvetica,sans-Serif" font-size="11.00">navigationBonus : int</text>
<text text-anchor="start" x="8" y="-152.7" font-family="Helvetica,sans-Serif" font-size="11.00">special : list</text>
<polyline fill="none" stroke="black" points="0,-145.5 139,-145.5 "/>
<text text-anchor="start" x="8" y="-132.7" font-family="Helvetica,sans-Serif" font-size="11.00">getSpecial()</text>
</g>
<!-- Companion&#45;&gt;Possession -->
<g id="edge4" class="edge">
<title>Companion&#45;&gt;Possession</title>
<path fill="none" stroke="black" d="M139.08,-204.05C162.31,-210.34 188.51,-217.42 212.76,-223.98"/>
<polygon fill="black" stroke="black" points="212.09,-227.43 222.66,-226.66 213.92,-220.67 212.09,-227.43"/>
<text text-anchor="middle" x="181" y="-223.3" font-family="Times,serif" font-size="9.00" fill="grey">aggregate</text>
</g>
<!-- AttackerStack -->
<g id="node9" class="node">
<title>AttackerStack</title>
<polygon fill="lightgrey" stroke="black" points="1330,-333.5 1330,-477.5 1508,-477.5 1508,-333.5 1330,-333.5"/>
<text text-anchor="middle" x="1419" y="-464.7" font-family="Helvetica,sans-Serif" font-size="11.00">AttackerStack</text>
<polyline fill="none" stroke="black" points="1330,-457.5 1508,-457.5 "/>
<text text-anchor="start" x="1338" y="-444.7" font-family="Helvetica,sans-Serif" font-size="11.00">attackerType : list</text>
<text text-anchor="start" x="1338" y="-432.7" font-family="Helvetica,sans-Serif" font-size="11.00">attackDifferential : dictionary</text>
<text text-anchor="start" x="1338" y="-420.7" font-family="Helvetica,sans-Serif" font-size="11.00">attackModifier : list</text>
<text text-anchor="start" x="1338" y="-408.7" font-family="Helvetica,sans-Serif" font-size="11.00">currentRound : int</text>
<polyline fill="none" stroke="black" points="1330,-401.5 1508,-401.5 "/>
<text text-anchor="start" x="1338" y="-388.7" font-family="Helvetica,sans-Serif" font-size="11.00">attack()</text>
<text text-anchor="start" x="1338" y="-376.7" font-family="Helvetica,sans-Serif" font-size="11.00">capture()</text>
<text text-anchor="start" x="1338" y="-364.7" font-family="Helvetica,sans-Serif" font-size="11.00">applyWounds()</text>
<text text-anchor="start" x="1338" y="-352.7" font-family="Helvetica,sans-Serif" font-size="11.00">updateCombatRating()</text>
<text text-anchor="start" x="1338" y="-340.7" font-family="Helvetica,sans-Serif" font-size="11.00">updateModifiers()</text>
</g>
<!-- Character&#45;&gt;AttackerStack -->
<g id="edge7" class="edge">
<title>Character&#45;&gt;AttackerStack</title>
<path fill="none" stroke="black" d="M695.21,-118.12C834.73,-119.63 1079.2,-137.8 1260,-235.5 1299.87,-257.05 1335.21,-292.48 1362.3,-325.43"/>
<polygon fill="black" stroke="black" points="1359.65,-327.72 1368.65,-333.3 1365.09,-323.32 1359.65,-327.72"/>
<text text-anchor="middle" x="1029" y="-162.3" font-family="Times,serif" font-size="9.00" fill="grey">composite</text>
</g>
<!-- DefenderStack -->
<g id="node10" class="node">
<title>DefenderStack</title>
<polygon fill="lightgrey" stroke="black" points="1073,-244.5 1073,-376.5 1260,-376.5 1260,-244.5 1073,-244.5"/>
<text text-anchor="middle" x="1166.5" y="-363.7" font-family="Helvetica,sans-Serif" font-size="11.00">DefenderStack</text>
<polyline fill="none" stroke="black" points="1073,-356.5 1260,-356.5 "/>
<text text-anchor="start" x="1081" y="-343.7" font-family="Helvetica,sans-Serif" font-size="11.00">defenderType : list</text>
<text text-anchor="start" x="1081" y="-331.7" font-family="Helvetica,sans-Serif" font-size="11.00">defenseDifferential : dictionary</text>
<text text-anchor="start" x="1081" y="-319.7" font-family="Helvetica,sans-Serif" font-size="11.00">defenseModifier : list</text>
<polyline fill="none" stroke="black" points="1073,-312.5 1260,-312.5 "/>
<text text-anchor="start" x="1081" y="-299.7" font-family="Helvetica,sans-Serif" font-size="11.00">retaliate()</text>
<text text-anchor="start" x="1081" y="-287.7" font-family="Helvetica,sans-Serif" font-size="11.00">breakOff()</text>
<text text-anchor="start" x="1081" y="-275.7" font-family="Helvetica,sans-Serif" font-size="11.00">inactive()</text>
<text text-anchor="start" x="1081" y="-263.7" font-family="Helvetica,sans-Serif" font-size="11.00">applyWounds()</text>
<text text-anchor="start" x="1081" y="-251.7" font-family="Helvetica,sans-Serif" font-size="11.00">updateCombatRating()</text>
</g>
<!-- Character&#45;&gt;DefenderStack -->
<g id="edge6" class="edge">
<title>Character&#45;&gt;DefenderStack</title>
<path fill="none" stroke="black" d="M695.36,-168.57C707.65,-173.47 720.04,-178.22 732,-182.5 843.63,-222.46 974.49,-259.83 1063,-283.76"/>
<polygon fill="black" stroke="black" points="1062.2,-287.17 1072.77,-286.39 1064.02,-280.41 1062.2,-287.17"/>
<text text-anchor="middle" x="901" y="-264.3" font-family="Times,serif" font-size="9.00" fill="grey">composite</text>
</g>
<!-- MissionGroupStack -->
<g id="node11" class="node">
<title>MissionGroupStack</title>
<polygon fill="lightgrey" stroke="black" points="817,-471.5 817,-535.5 985,-535.5 985,-471.5 817,-471.5"/>
<text text-anchor="middle" x="901" y="-522.7" font-family="Helvetica,sans-Serif" font-size="11.00">MissionGroupStack</text>
<polyline fill="none" stroke="black" points="817,-515.5 985,-515.5 "/>
<text text-anchor="start" x="825" y="-502.7" font-family="Helvetica,sans-Serif" font-size="11.00">effectiveCombatRating : int</text>
<text text-anchor="start" x="825" y="-490.7" font-family="Helvetica,sans-Serif" font-size="11.00">currentMission : char</text>
<text text-anchor="start" x="825" y="-478.7" font-family="Helvetica,sans-Serif" font-size="11.00">bonusDraws : list</text>
</g>
<!-- Character&#45;&gt;MissionGroupStack -->
<g id="edge5" class="edge">
<title>Character&#45;&gt;MissionGroupStack</title>
<path fill="none" stroke="black" d="M695.24,-228.8C701.72,-236.02 708.02,-243.3 714,-250.5 722.97,-261.32 723.82,-265.07 732,-276.5 779.29,-342.55 835.74,-418.19 869.68,-463.34"/>
<polygon fill="black" stroke="black" points="866.94,-465.52 875.75,-471.41 872.54,-461.31 866.94,-465.52"/>
<text text-anchor="middle" x="765.5" y="-366.3" font-family="Times,serif" font-size="9.00" fill="grey">composite</text>
</g>
<!-- IrateLocals -->
<g id="node6" class="node">
<title>IrateLocals</title>
<polygon fill="lightgrey" stroke="black" points="500.5,-691.5 500.5,-835.5 668.5,-835.5 668.5,-691.5 500.5,-691.5"/>
<text text-anchor="middle" x="584.5" y="-822.7" font-family="Helvetica,sans-Serif" font-size="11.00">IrateLocals</text>
<polyline fill="none" stroke="black" points="500.5,-815.5 668.5,-815.5 "/>
<text text-anchor="start" x="508.5" y="-802.7" font-family="Helvetica,sans-Serif" font-size="11.00">type : string</text>
<text text-anchor="start" x="508.5" y="-790.7" font-family="Helvetica,sans-Serif" font-size="11.00">name : string</text>
<text text-anchor="start" x="508.5" y="-778.7" font-family="Helvetica,sans-Serif" font-size="11.00">combat : int</text>
<text text-anchor="start" x="508.5" y="-766.7" font-family="Helvetica,sans-Serif" font-size="11.00">endurance : int</text>
<text text-anchor="start" x="508.5" y="-754.7" font-family="Helvetica,sans-Serif" font-size="11.00">homePlanet : string</text>
<text text-anchor="start" x="508.5" y="-742.7" font-family="Helvetica,sans-Serif" font-size="11.00">attackType : string</text>
<text text-anchor="start" x="508.5" y="-730.7" font-family="Helvetica,sans-Serif" font-size="11.00">effectiveCombatRating : int</text>
<text text-anchor="start" x="508.5" y="-718.7" font-family="Helvetica,sans-Serif" font-size="11.00">wounds : int</text>
<polyline fill="none" stroke="black" points="500.5,-711.5 668.5,-711.5 "/>
<text text-anchor="start" x="508.5" y="-698.7" font-family="Helvetica,sans-Serif" font-size="11.00">getType()</text>
</g>
<!-- Creatures -->
<g id="node7" class="node">
<title>Creatures</title>
<polygon fill="lightgrey" stroke="black" points="827,-718.5 827,-802.5 975,-802.5 975,-718.5 827,-718.5"/>
<text text-anchor="middle" x="901" y="-789.7" font-family="Helvetica,sans-Serif" font-size="11.00">Creatures</text>
<polyline fill="none" stroke="black" points="827,-782.5 975,-782.5 "/>
<text text-anchor="start" x="835" y="-769.7" font-family="Helvetica,sans-Serif" font-size="11.00">combatShift : int</text>
<text text-anchor="start" x="835" y="-757.7" font-family="Helvetica,sans-Serif" font-size="11.00">breakOffModifier : int</text>
<text text-anchor="start" x="835" y="-745.7" font-family="Helvetica,sans-Serif" font-size="11.00">bonusDrawModifier : int</text>
<polyline fill="none" stroke="black" points="827,-738.5 975,-738.5 "/>
<text text-anchor="start" x="835" y="-725.7" font-family="Helvetica,sans-Serif" font-size="11.00">getSpecial()</text>
</g>
<!-- IrateLocals&#45;&gt;Creatures -->
<g id="edge8" class="edge">
<title>IrateLocals&#45;&gt;Creatures</title>
<path fill="none" stroke="black" d="M668.54,-762.71C714.31,-762.27 770.96,-761.73 816.75,-761.29"/>
<polygon fill="black" stroke="black" points="816.98,-764.79 826.95,-761.2 816.92,-757.79 816.98,-764.79"/>
<text text-anchor="middle" x="765.5" y="-764.3" font-family="Times,serif" font-size="9.00" fill="grey">generalization</text>
</g>
<!-- IrateLocals&#45;&gt;AttackerStack -->
<g id="edge10" class="edge">
<title>IrateLocals&#45;&gt;AttackerStack</title>
<path fill="none" stroke="black" d="M668.76,-792.86C806.53,-835.69 1084.13,-896.99 1260,-767.5 1350.16,-701.11 1389.59,-572.14 1406.32,-487.43"/>
<polygon fill="black" stroke="black" points="1409.76,-488.06 1408.2,-477.58 1402.89,-486.75 1409.76,-488.06"/>
<text text-anchor="middle" x="1029" y="-847.3" font-family="Times,serif" font-size="9.00" fill="grey">composite</text>
</g>
<!-- Mission -->
<g id="node13" class="node">
<title>Mission</title>
<polygon fill="lightgrey" stroke="black" points="1104.5,-589.5 1104.5,-673.5 1228.5,-673.5 1228.5,-589.5 1104.5,-589.5"/>
<text text-anchor="middle" x="1166.5" y="-660.7" font-family="Helvetica,sans-Serif" font-size="11.00">Mission</text>
<polyline fill="none" stroke="black" points="1104.5,-653.5 1228.5,-653.5 "/>
<text text-anchor="start" x="1112.5" y="-640.7" font-family="Helvetica,sans-Serif" font-size="11.00">name : string</text>
<text text-anchor="start" x="1112.5" y="-628.7" font-family="Helvetica,sans-Serif" font-size="11.00">type : char</text>
<text text-anchor="start" x="1112.5" y="-616.7" font-family="Helvetica,sans-Serif" font-size="11.00">description : string</text>
<polyline fill="none" stroke="black" points="1104.5,-609.5 1228.5,-609.5 "/>
<text text-anchor="start" x="1112.5" y="-596.7" font-family="Helvetica,sans-Serif" font-size="11.00">actionEventCheck()</text>
</g>
<!-- IrateLocals&#45;&gt;Mission -->
<g id="edge9" class="edge">
<title>IrateLocals&#45;&gt;Mission</title>
<path fill="none" stroke="black" d="M668.68,-738.83C712.58,-726.24 767.48,-711.16 817,-699.5 917.06,-675.94 1034.63,-654.22 1104.44,-641.94"/>
<text text-anchor="middle" x="901" y="-702.3" font-family="Times,serif" font-size="9.00" fill="grey">Can Create</text>
</g>
<!-- Creatures&#45;&gt;AttackerStack -->
<g id="edge12" class="edge">
<title>Creatures&#45;&gt;AttackerStack</title>
<path fill="none" stroke="black" d="M975.16,-762.53C1053.41,-760.97 1177.38,-747.36 1260,-683.5 1324.44,-633.69 1366.92,-549.66 1391.43,-487"/>
<polygon fill="black" stroke="black" points="1394.76,-488.11 1395.07,-477.52 1388.22,-485.6 1394.76,-488.11"/>
<text text-anchor="middle" x="1166.5" y="-756.3" font-family="Times,serif" font-size="9.00" fill="grey">composite</text>
</g>
<!-- Creatures&#45;&gt;Mission -->
<g id="edge11" class="edge">
<title>Creatures&#45;&gt;Mission</title>
<path fill="none" stroke="black" d="M975.01,-737.02C1000.81,-727.75 1029.69,-716.26 1055,-703.5 1072.17,-694.84 1089.97,-684.11 1106.14,-673.6"/>
<text text-anchor="middle" x="1029" y="-727.3" font-family="Times,serif" font-size="9.00" fill="grey">Can Create</text>
</g>
<!-- MilitaryUnit -->
<g id="node8" class="node">
<title>MilitaryUnit</title>
<polygon fill="lightgrey" stroke="black" points="474,-338.5 474,-470.5 695,-470.5 695,-338.5 474,-338.5"/>
<text text-anchor="middle" x="584.5" y="-457.7" font-family="Helvetica,sans-Serif" font-size="11.00">MilitaryUnit</text>
<polyline fill="none" stroke="black" points="474,-450.5 695,-450.5 "/>
<text text-anchor="start" x="482" y="-437.7" font-family="Helvetica,sans-Serif" font-size="11.00">type : string</text>
<text text-anchor="start" x="482" y="-425.7" font-family="Helvetica,sans-Serif" font-size="11.00">name : string</text>
<text text-anchor="start" x="482" y="-413.7" font-family="Helvetica,sans-Serif" font-size="11.00">combat : int</text>
<text text-anchor="start" x="482" y="-401.7" font-family="Helvetica,sans-Serif" font-size="11.00">endurance : int</text>
<text text-anchor="start" x="482" y="-389.7" font-family="Helvetica,sans-Serif" font-size="11.00">environType : string</text>
<text text-anchor="start" x="482" y="-377.7" font-family="Helvetica,sans-Serif" font-size="11.00">effectiveCombatRating : int</text>
<text text-anchor="start" x="482" y="-365.7" font-family="Helvetica,sans-Serif" font-size="11.00">wounds : int</text>
<polyline fill="none" stroke="black" points="474,-358.5 695,-358.5 "/>
<text text-anchor="start" x="482" y="-345.7" font-family="Helvetica,sans-Serif" font-size="11.00">allegiance : string (Rebel or Imperial)</text>
</g>
<!-- MilitaryUnit&#45;&gt;AttackerStack -->
<g id="edge14" class="edge">
<title>MilitaryUnit&#45;&gt;AttackerStack</title>
<path fill="none" stroke="black" d="M695.19,-404.63C858.61,-404.83 1163.48,-405.19 1319.9,-405.38"/>
<polygon fill="black" stroke="black" points="1319.98,-408.88 1329.98,-405.39 1319.99,-401.88 1319.98,-408.88"/>
<text text-anchor="middle" x="1029" y="-407.3" font-family="Times,serif" font-size="9.00" fill="grey">composite</text>
</g>
<!-- MilitaryUnit&#45;&gt;MissionGroupStack -->
<g id="edge13" class="edge">
<title>MilitaryUnit&#45;&gt;MissionGroupStack</title>
<path fill="none" stroke="black" d="M695.01,-454.32C707.36,-459.12 719.87,-463.63 732,-467.5 759.14,-476.15 789.41,-483.36 816.7,-488.99"/>
<text text-anchor="middle" x="765.5" y="-486.3" font-family="Times,serif" font-size="9.00" fill="grey">Can Effect</text>
</g>
<!-- DefenderStack&#45;&gt;AttackerStack -->
<g id="edge15" class="edge">
<title>DefenderStack&#45;&gt;AttackerStack</title>
<path fill="none" stroke="black" d="M1260.07,-345.6C1282.92,-354.27 1307.34,-363.53 1329.97,-372.12"/>
<text text-anchor="middle" x="1295" y="-366.3" font-family="Times,serif" font-size="9.00" fill="grey">Attacks</text>
</g>
<!-- MissionGroupStack&#45;&gt;DefenderStack -->
<g id="edge17" class="edge">
<title>MissionGroupStack&#45;&gt;DefenderStack</title>
<path fill="none" stroke="black" d="M920,-471.4C937.75,-442.31 967.35,-400.04 1003,-373.5 1021.07,-360.04 1042.39,-349.08 1063.52,-340.3"/>
<polygon fill="black" stroke="black" points="1064.9,-343.52 1072.88,-336.55 1062.3,-337.02 1064.9,-343.52"/>
<text text-anchor="middle" x="1029" y="-376.3" font-family="Times,serif" font-size="9.00" fill="grey">composite</text>
</g>
<!-- MissionGroupStack&#45;&gt;Mission -->
<g id="edge16" class="edge">
<title>MissionGroupStack&#45;&gt;Mission</title>
<path fill="none" stroke="black" d="M985.36,-528.67C1008.4,-536.76 1033.09,-546.52 1055,-557.5 1073.16,-566.61 1091.9,-578.19 1108.66,-589.48"/>
<text text-anchor="middle" x="1029" y="-560.3" font-family="Times,serif" font-size="9.00" fill="grey">Assigned</text>
</g>
<!-- MissionDeck -->
<g id="node12" class="node">
<title>MissionDeck</title>
<polygon fill="lightgrey" stroke="black" points="514,-612.5 514,-672.5 655,-672.5 655,-612.5 514,-612.5"/>
<text text-anchor="middle" x="584.5" y="-659.7" font-family="Helvetica,sans-Serif" font-size="11.00">MissionDeck</text>
<polyline fill="none" stroke="black" points="514,-652.5 655,-652.5 "/>
<text text-anchor="start" x="522" y="-639.7" font-family="Helvetica,sans-Serif" font-size="11.00">availableMissions : list</text>
<polyline fill="none" stroke="black" points="514,-632.5 655,-632.5 "/>
<text text-anchor="start" x="522" y="-619.7" font-family="Helvetica,sans-Serif" font-size="11.00">updateMissionDeck()</text>
</g>
<!-- MissionDeck&#45;&gt;MissionGroupStack -->
<g id="edge18" class="edge">
<title>MissionDeck&#45;&gt;MissionGroupStack</title>
<path fill="none" stroke="black" d="M655.08,-633.38C676.08,-627.69 697.82,-618.46 714,-603.5 730.12,-588.6 716,-572.54 732,-557.5 735.52,-554.2 776.27,-541.06 816.75,-528.58"/>
<text text-anchor="middle" x="765.5" y="-560.3" font-family="Times,serif" font-size="9.00" fill="grey">Selects</text>
</g>
<!-- MissionDeck&#45;&gt;Mission -->
<g id="edge19" class="edge">
<title>MissionDeck&#45;&gt;Mission</title>
<path fill="none" stroke="black" d="M655.23,-622.61C700.83,-610.65 761.93,-596.61 817,-590.5 891.21,-582.27 910.8,-582.18 985,-590.5 1021.47,-594.59 1061.31,-603.19 1094.27,-611.46"/>
<polygon fill="black" stroke="black" points="1093.71,-614.93 1104.26,-614.01 1095.44,-608.15 1093.71,-614.93"/>
<text text-anchor="middle" x="901" y="-593.3" font-family="Times,serif" font-size="9.00" fill="grey">aggregate</text>
</g>
<!-- 7 -->
<g id="node14" class="node">
<title>7</title>
<polygon fill="#fff68f" stroke="#8b864e" points="957,-653.5 839,-653.5 839,-609.5 963,-609.5 963,-647.5 957,-653.5"/>
<polyline fill="none" stroke="#8b864e" points="957,-653.5 957,-647.5 "/>
<polyline fill="none" stroke="#8b864e" points="963,-647.5 957,-647.5 "/>
<text text-anchor="start" x="847" y="-640.7" font-family="Helvetica,sans-Serif" font-size="11.00" fill="#8b864e">Mission can create &#13;</text>
<text text-anchor="start" x="847" y="-628.7" font-family="Helvetica,sans-Serif" font-size="11.00" fill="#8b864e">&#45;Creatures&#13;</text>
<text text-anchor="start" x="847" y="-616.7" font-family="Helvetica,sans-Serif" font-size="11.00" fill="#8b864e">&#45;IrateLocals</text>
</g>
<!-- 7&#45;&gt;Mission -->
<g id="edge20" class="edge">
<title>7&#45;&gt;Mission</title>
<path fill="none" stroke="grey" stroke-dasharray="1,5" d="M963.11,-631.5C1005.53,-631.5 1061.82,-631.5 1104.26,-631.5"/>
</g>
<!-- 8 -->
<g id="node15" class="node">
<title>8</title>
<polygon fill="#fff68f" stroke="#8b864e" points="708,-594.2 455,-594.2 455,-488.8 714,-488.8 714,-588.2 708,-594.2"/>
<polyline fill="none" stroke="#8b864e" points="708,-594.2 708,-588.2 "/>
<polyline fill="none" stroke="#8b864e" points="714,-588.2 708,-588.2 "/>
<text text-anchor="start" x="463" y="-581.3" font-family="Helvetica,sans-Serif" font-size="11.00" fill="#8b864e">This is an annotation for MissionGroupStack&#13;</text>
<text text-anchor="start" x="463" y="-569.3" font-family="Helvetica,sans-Serif" font-size="11.00" fill="#8b864e">Important:&#13;</text>
<text text-anchor="start" x="463" y="-557.3" font-family="Helvetica,sans-Serif" font-size="11.00" fill="#8b864e">&#45; bla&#13;</text>
<text text-anchor="start" x="463" y="-545.3" font-family="Helvetica,sans-Serif" font-size="11.00" fill="#8b864e">&#45; and bla&#13;</text>
<text text-anchor="start" x="463" y="-533.3" font-family="Helvetica,sans-Serif" font-size="11.00" fill="#8b864e">&#45; also bla&#13;</text>
<text text-anchor="start" x="463" y="-520.2" font-family="Helvetica,sans-Serif" font-size="11.00" fill="#8b864e">&#13;</text>
<text text-anchor="start" x="463" y="-508.1" font-family="Helvetica,sans-Serif" font-size="11.00" fill="#8b864e">Consists of: Character(s)&#13;</text>
<text text-anchor="start" x="463" y="-496.1" font-family="Helvetica,sans-Serif" font-size="11.00" fill="#8b864e">Is composition of: DefenderStack</text>
</g>
<!-- 8&#45;&gt;MissionGroupStack -->
<g id="edge21" class="edge">
<title>8&#45;&gt;MissionGroupStack</title>
<path fill="none" stroke="grey" stroke-dasharray="1,5" d="M714.33,-525.93C748.93,-521.75 785.44,-517.34 816.84,-513.55"/>
</g>
</g>
</svg>
