<?xml version="1.0" encoding="UTF-8" standalone="no"?>
<!DOCTYPE svg PUBLIC "-//W3C//DTD SVG 1.1//EN"
 "http://www.w3.org/Graphics/SVG/1.1/DTD/svg11.dtd">
<!-- Generated by graphviz version 2.43.0 (0)
 -->
<!-- Title: %3 Pages: 1 -->
<svg width="436pt" height="1070pt"
 viewBox="0.00 0.00 436.00 1070.00" xmlns="http://www.w3.org/2000/svg" xmlns:xlink="http://www.w3.org/1999/xlink">
<g id="graph0" class="graph" transform="scale(1 1) rotate(0) translate(4 1066)">
<title>%3</title>
<polygon fill="white" stroke="transparent" points="-4,4 -4,-1066 432,-1066 432,4 -4,4"/>
<!-- Class01 -->
<g id="node1" class="node">
<title>Class01</title>
<polygon fill="lightgrey" stroke="lightgrey" points="285,-36 212,-36 212,0 285,0 285,-36"/>
<text text-anchor="middle" x="248.5" y="-14.3" font-family="Times,serif" font-size="14.00">Class01</text>
</g>
<!-- Class02 -->
<g id="node2" class="node">
<title>Class02</title>
<polygon fill="lightgrey" stroke="lightgrey" points="73,-36 0,-36 0,0 73,0 73,-36"/>
<text text-anchor="middle" x="36.5" y="-14.3" font-family="Times,serif" font-size="14.00">Class02</text>
</g>
<!-- Class02&#45;&gt;Class01 -->
<g id="edge1" class="edge">
<title>Class02&#45;&gt;Class01</title>
<path fill="none" stroke="black" d="M73.12,-18C108.42,-18 162.65,-18 201.26,-18"/>
<polygon fill="black" stroke="black" points="201.7,-21.5 211.7,-18 201.7,-14.5 201.7,-21.5"/>
<text text-anchor="middle" x="142.5" y="-21.8" font-family="Times,serif" font-size="14.00">generalization</text>
</g>
<!-- Class03 -->
<g id="node3" class="node">
<title>Class03</title>
<polygon fill="lightgrey" stroke="lightgrey" points="285,-90 212,-90 212,-54 285,-54 285,-90"/>
<text text-anchor="middle" x="248.5" y="-68.3" font-family="Times,serif" font-size="14.00">Class03</text>
</g>
<!-- Class04 -->
<g id="node4" class="node">
<title>Class04</title>
<polygon fill="lightgrey" stroke="lightgrey" points="73,-90 0,-90 0,-54 73,-54 73,-90"/>
<text text-anchor="middle" x="36.5" y="-68.3" font-family="Times,serif" font-size="14.00">Class04</text>
</g>
<!-- Class04&#45;&gt;Class03 -->
<g id="edge5" class="edge">
<title>Class04&#45;&gt;Class03</title>
<path fill="none" stroke="black" d="M73.12,-72C108.42,-72 162.65,-72 201.26,-72"/>
<polygon fill="black" stroke="black" points="201.7,-75.5 211.7,-72 201.7,-68.5 201.7,-75.5"/>
<text text-anchor="middle" x="142.5" y="-75.8" font-family="Times,serif" font-size="14.00">association</text>
</g>
<!-- Class05 -->
<g id="node5" class="node">
<title>Class05</title>
<polygon fill="lightgrey" stroke="lightgrey" points="285,-144 212,-144 212,-108 285,-108 285,-144"/>
<text text-anchor="middle" x="248.5" y="-122.3" font-family="Times,serif" font-size="14.00">Class05</text>
</g>
<!-- Class06 -->
<g id="node6" class="node">
<title>Class06</title>
<polygon fill="lightgrey" stroke="lightgrey" points="73,-144 0,-144 0,-108 73,-108 73,-144"/>
<text text-anchor="middle" x="36.5" y="-122.3" font-family="Times,serif" font-size="14.00">Class06</text>
</g>
<!-- Class06&#45;&gt;Class05 -->
<g id="edge6" class="edge">
<title>Class06&#45;&gt;Class05</title>
<path fill="none" stroke="black" d="M73.12,-126C108.42,-126 162.65,-126 201.26,-126"/>
<polygon fill="black" stroke="black" points="201.7,-129.5 211.7,-126 201.7,-122.5 201.7,-129.5"/>
<text text-anchor="middle" x="142.5" y="-129.8" font-family="Times,serif" font-size="14.00">association</text>
</g>
<!-- Class07 -->
<g id="node7" class="node">
<title>Class07</title>
<polygon fill="lightgrey" stroke="lightgrey" points="285,-198 212,-198 212,-162 285,-162 285,-198"/>
<text text-anchor="middle" x="248.5" y="-176.3" font-family="Times,serif" font-size="14.00">Class07</text>
</g>
<!-- Class08 -->
<g id="node8" class="node">
<title>Class08</title>
<polygon fill="lightgrey" stroke="lightgrey" points="73,-198 0,-198 0,-162 73,-162 73,-198"/>
<text text-anchor="middle" x="36.5" y="-176.3" font-family="Times,serif" font-size="14.00">Class08</text>
</g>
<!-- Class08&#45;&gt;Class07 -->
<g id="edge7" class="edge">
<title>Class08&#45;&gt;Class07</title>
<path fill="none" stroke="black" d="M73.12,-180C108.42,-180 162.65,-180 201.26,-180"/>
<polygon fill="black" stroke="black" points="201.7,-183.5 211.7,-180 201.7,-176.5 201.7,-183.5"/>
<text text-anchor="middle" x="142.5" y="-183.8" font-family="Times,serif" font-size="14.00">association</text>
</g>
<!-- Class09 -->
<g id="node9" class="node">
<title>Class09</title>
<polygon fill="lightgrey" stroke="lightgrey" points="285,-252 212,-252 212,-216 285,-216 285,-252"/>
<text text-anchor="middle" x="248.5" y="-230.3" font-family="Times,serif" font-size="14.00">Class09</text>
</g>
<!-- Class10 -->
<g id="node10" class="node">
<title>Class10</title>
<polygon fill="lightgrey" stroke="lightgrey" points="73,-252 0,-252 0,-216 73,-216 73,-252"/>
<text text-anchor="middle" x="36.5" y="-230.3" font-family="Times,serif" font-size="14.00">Class10</text>
</g>
<!-- Class10&#45;&gt;Class09 -->
<g id="edge8" class="edge">
<title>Class10&#45;&gt;Class09</title>
<path fill="none" stroke="black" d="M73.12,-234C108.42,-234 162.65,-234 201.26,-234"/>
<polygon fill="black" stroke="black" points="201.7,-237.5 211.7,-234 201.7,-230.5 201.7,-237.5"/>
<text text-anchor="middle" x="142.5" y="-237.8" font-family="Times,serif" font-size="14.00">association</text>
</g>
<!-- Class11 -->
<g id="node11" class="node">
<title>Class11</title>
<polygon fill="lightgrey" stroke="lightgrey" points="285,-306 212,-306 212,-270 285,-270 285,-306"/>
<text text-anchor="middle" x="248.5" y="-284.3" font-family="Times,serif" font-size="14.00">Class11</text>
</g>
<!-- Class12 -->
<g id="node12" class="node">
<title>Class12</title>
<polygon fill="lightgrey" stroke="lightgrey" points="73,-306 0,-306 0,-270 73,-270 73,-306"/>
<text text-anchor="middle" x="36.5" y="-284.3" font-family="Times,serif" font-size="14.00">Class12</text>
</g>
<!-- Class12&#45;&gt;Class11 -->
<g id="edge2" class="edge">
<title>Class12&#45;&gt;Class11</title>
<path fill="none" stroke="black" d="M73.12,-288C108.42,-288 162.65,-288 201.26,-288"/>
<polygon fill="black" stroke="black" points="201.7,-291.5 211.7,-288 201.7,-284.5 201.7,-291.5"/>
<text text-anchor="middle" x="142.5" y="-291.8" font-family="Times,serif" font-size="14.00">generalization</text>
</g>
<!-- Class13 -->
<g id="node13" class="node">
<title>Class13</title>
<polygon fill="lightgrey" stroke="lightgrey" points="285,-360 212,-360 212,-324 285,-324 285,-360"/>
<text text-anchor="middle" x="248.5" y="-338.3" font-family="Times,serif" font-size="14.00">Class13</text>
</g>
<!-- Class14 -->
<g id="node14" class="node">
<title>Class14</title>
<polygon fill="lightgrey" stroke="lightgrey" points="73,-360 0,-360 0,-324 73,-324 73,-360"/>
<text text-anchor="middle" x="36.5" y="-338.3" font-family="Times,serif" font-size="14.00">Class14</text>
</g>
<!-- Class14&#45;&gt;Class13 -->
<g id="edge9" class="edge">
<title>Class14&#45;&gt;Class13</title>
<path fill="none" stroke="black" d="M73.12,-342C108.42,-342 162.65,-342 201.26,-342"/>
<polygon fill="black" stroke="black" points="201.7,-345.5 211.7,-342 201.7,-338.5 201.7,-345.5"/>
<text text-anchor="middle" x="142.5" y="-345.8" font-family="Times,serif" font-size="14.00">association</text>
</g>
<!-- Class15 -->
<g id="node15" class="node">
<title>Class15</title>
<polygon fill="lightgrey" stroke="lightgrey" points="285,-414 212,-414 212,-378 285,-378 285,-414"/>
<text text-anchor="middle" x="248.5" y="-392.3" font-family="Times,serif" font-size="14.00">Class15</text>
</g>
<!-- Class16 -->
<g id="node16" class="node">
<title>Class16</title>
<polygon fill="lightgrey" stroke="lightgrey" points="73,-414 0,-414 0,-378 73,-378 73,-414"/>
<text text-anchor="middle" x="36.5" y="-392.3" font-family="Times,serif" font-size="14.00">Class16</text>
</g>
<!-- Class16&#45;&gt;Class15 -->
<g id="edge10" class="edge">
<title>Class16&#45;&gt;Class15</title>
<path fill="none" stroke="black" d="M73.12,-396C108.42,-396 162.65,-396 201.26,-396"/>
<polygon fill="black" stroke="black" points="201.7,-399.5 211.7,-396 201.7,-392.5 201.7,-399.5"/>
<text text-anchor="middle" x="142.5" y="-399.8" font-family="Times,serif" font-size="14.00">association</text>
</g>
<!-- Class17 -->
<g id="node17" class="node">
<title>Class17</title>
<polygon fill="lightgrey" stroke="lightgrey" points="73,-468 0,-468 0,-432 73,-432 73,-468"/>
<text text-anchor="middle" x="36.5" y="-446.3" font-family="Times,serif" font-size="14.00">Class17</text>
</g>
<!-- Class18 -->
<g id="node18" class="node">
<title>Class18</title>
<polygon fill="lightgrey" stroke="lightgrey" points="285,-468 212,-468 212,-432 285,-432 285,-468"/>
<text text-anchor="middle" x="248.5" y="-446.3" font-family="Times,serif" font-size="14.00">Class18</text>
</g>
<!-- Class17&#45;&gt;Class18 -->
<g id="edge3" class="edge">
<title>Class17&#45;&gt;Class18</title>
<path fill="none" stroke="black" d="M73.12,-450C108.42,-450 162.65,-450 201.26,-450"/>
<polygon fill="black" stroke="black" points="201.7,-453.5 211.7,-450 201.7,-446.5 201.7,-453.5"/>
<text text-anchor="middle" x="142.5" y="-453.8" font-family="Times,serif" font-size="14.00">generalization</text>
</g>
<!-- Class19 -->
<g id="node19" class="node">
<title>Class19</title>
<polygon fill="lightgrey" stroke="lightgrey" points="285,-522 212,-522 212,-486 285,-486 285,-522"/>
<text text-anchor="middle" x="248.5" y="-500.3" font-family="Times,serif" font-size="14.00">Class19</text>
</g>
<!-- Class20 -->
<g id="node20" class="node">
<title>Class20</title>
<polygon fill="lightgrey" stroke="lightgrey" points="73,-522 0,-522 0,-486 73,-486 73,-522"/>
<text text-anchor="middle" x="36.5" y="-500.3" font-family="Times,serif" font-size="14.00">Class20</text>
</g>
<!-- Class20&#45;&gt;Class19 -->
<g id="edge11" class="edge">
<title>Class20&#45;&gt;Class19</title>
<path fill="none" stroke="black" d="M73.12,-504C108.42,-504 162.65,-504 201.26,-504"/>
<polygon fill="black" stroke="black" points="201.7,-507.5 211.7,-504 201.7,-500.5 201.7,-507.5"/>
<text text-anchor="middle" x="142.5" y="-507.8" font-family="Times,serif" font-size="14.00">association</text>
</g>
<!-- Class21 -->
<g id="node21" class="node">
<title>Class21</title>
<polygon fill="lightgrey" stroke="lightgrey" points="285,-576 212,-576 212,-540 285,-540 285,-576"/>
<text text-anchor="middle" x="248.5" y="-554.3" font-family="Times,serif" font-size="14.00">Class21</text>
</g>
<!-- Class22 -->
<g id="node22" class="node">
<title>Class22</title>
<polygon fill="lightgrey" stroke="lightgrey" points="73,-576 0,-576 0,-540 73,-540 73,-576"/>
<text text-anchor="middle" x="36.5" y="-554.3" font-family="Times,serif" font-size="14.00">Class22</text>
</g>
<!-- Class22&#45;&gt;Class21 -->
<g id="edge12" class="edge">
<title>Class22&#45;&gt;Class21</title>
<path fill="none" stroke="black" d="M73.12,-558C108.42,-558 162.65,-558 201.26,-558"/>
<polygon fill="black" stroke="black" points="201.7,-561.5 211.7,-558 201.7,-554.5 201.7,-561.5"/>
<text text-anchor="middle" x="142.5" y="-561.8" font-family="Times,serif" font-size="14.00">association</text>
</g>
<!-- Class23 -->
<g id="node23" class="node">
<title>Class23</title>
<polygon fill="lightgrey" stroke="lightgrey" points="285,-630 212,-630 212,-594 285,-594 285,-630"/>
<text text-anchor="middle" x="248.5" y="-608.3" font-family="Times,serif" font-size="14.00">Class23</text>
</g>
<!-- Class24 -->
<g id="node24" class="node">
<title>Class24</title>
<polygon fill="lightgrey" stroke="lightgrey" points="73,-630 0,-630 0,-594 73,-594 73,-630"/>
<text text-anchor="middle" x="36.5" y="-608.3" font-family="Times,serif" font-size="14.00">Class24</text>
</g>
<!-- Class24&#45;&gt;Class23 -->
<g id="edge13" class="edge">
<title>Class24&#45;&gt;Class23</title>
<path fill="none" stroke="black" d="M73.12,-612C108.42,-612 162.65,-612 201.26,-612"/>
<polygon fill="black" stroke="black" points="201.7,-615.5 211.7,-612 201.7,-608.5 201.7,-615.5"/>
<text text-anchor="middle" x="142.5" y="-615.8" font-family="Times,serif" font-size="14.00">association</text>
</g>
<!-- Class25 -->
<g id="node25" class="node">
<title>Class25</title>
<polygon fill="lightgrey" stroke="lightgrey" points="285,-684 212,-684 212,-648 285,-648 285,-684"/>
<text text-anchor="middle" x="248.5" y="-662.3" font-family="Times,serif" font-size="14.00">Class25</text>
</g>
<!-- Class26 -->
<g id="node26" class="node">
<title>Class26</title>
<polygon fill="lightgrey" stroke="lightgrey" points="73,-684 0,-684 0,-648 73,-648 73,-684"/>
<text text-anchor="middle" x="36.5" y="-662.3" font-family="Times,serif" font-size="14.00">Class26</text>
</g>
<!-- Class26&#45;&gt;Class25 -->
<g id="edge14" class="edge">
<title>Class26&#45;&gt;Class25</title>
<path fill="none" stroke="black" d="M73.12,-666C108.42,-666 162.65,-666 201.26,-666"/>
<polygon fill="black" stroke="black" points="201.7,-669.5 211.7,-666 201.7,-662.5 201.7,-669.5"/>
<text text-anchor="middle" x="142.5" y="-669.8" font-family="Times,serif" font-size="14.00">association</text>
</g>
<!-- Class27 -->
<g id="node27" class="node">
<title>Class27</title>
<polygon fill="lightgrey" stroke="lightgrey" points="285,-738 212,-738 212,-702 285,-702 285,-738"/>
<text text-anchor="middle" x="248.5" y="-716.3" font-family="Times,serif" font-size="14.00">Class27</text>
</g>
<!-- Class28 -->
<g id="node28" class="node">
<title>Class28</title>
<polygon fill="lightgrey" stroke="lightgrey" points="73,-738 0,-738 0,-702 73,-702 73,-738"/>
<text text-anchor="middle" x="36.5" y="-716.3" font-family="Times,serif" font-size="14.00">Class28</text>
</g>
<!-- Class28&#45;&gt;Class27 -->
<g id="edge15" class="edge">
<title>Class28&#45;&gt;Class27</title>
<path fill="none" stroke="black" d="M73.12,-720C108.42,-720 162.65,-720 201.26,-720"/>
<polygon fill="black" stroke="black" points="201.7,-723.5 211.7,-720 201.7,-716.5 201.7,-723.5"/>
<text text-anchor="middle" x="142.5" y="-723.8" font-family="Times,serif" font-size="14.00">association</text>
</g>
<!-- Class29 -->
<g id="node29" class="node">
<title>Class29</title>
<polygon fill="lightgrey" stroke="lightgrey" points="285,-792 212,-792 212,-756 285,-756 285,-792"/>
<text text-anchor="middle" x="248.5" y="-770.3" font-family="Times,serif" font-size="14.00">Class29</text>
</g>
<!-- Class30 -->
<g id="node30" class="node">
<title>Class30</title>
<polygon fill="lightgrey" stroke="lightgrey" points="73,-792 0,-792 0,-756 73,-756 73,-792"/>
<text text-anchor="middle" x="36.5" y="-770.3" font-family="Times,serif" font-size="14.00">Class30</text>
</g>
<!-- Class30&#45;&gt;Class29 -->
<g id="edge4" class="edge">
<title>Class30&#45;&gt;Class29</title>
<path fill="none" stroke="black" d="M73.12,-774C108.42,-774 162.65,-774 201.26,-774"/>
<polygon fill="black" stroke="black" points="201.7,-777.5 211.7,-774 201.7,-770.5 201.7,-777.5"/>
<text text-anchor="middle" x="142.5" y="-777.8" font-family="Times,serif" font-size="14.00">generalization</text>
</g>
<!-- Class31 -->
<g id="node31" class="node">
<title>Class31</title>
<polygon fill="lightgrey" stroke="lightgrey" points="285,-846 212,-846 212,-810 285,-810 285,-846"/>
<text text-anchor="middle" x="248.5" y="-824.3" font-family="Times,serif" font-size="14.00">Class31</text>
</g>
<!-- Class32 -->
<g id="node32" class="node">
<title>Class32</title>
<polygon fill="lightgrey" stroke="lightgrey" points="73,-846 0,-846 0,-810 73,-810 73,-846"/>
<text text-anchor="middle" x="36.5" y="-824.3" font-family="Times,serif" font-size="14.00">Class32</text>
</g>
<!-- Class32&#45;&gt;Class31 -->
<g id="edge16" class="edge">
<title>Class32&#45;&gt;Class31</title>
<path fill="none" stroke="black" d="M73.12,-828C108.42,-828 162.65,-828 201.26,-828"/>
<polygon fill="black" stroke="black" points="201.7,-831.5 211.7,-828 201.7,-824.5 201.7,-831.5"/>
<text text-anchor="middle" x="142.5" y="-831.8" font-family="Times,serif" font-size="14.00">contains</text>
</g>
<!-- Class33 -->
<g id="node33" class="node">
<title>Class33</title>
<polygon fill="lightgrey" stroke="lightgrey" points="285,-900 212,-900 212,-864 285,-864 285,-900"/>
<text text-anchor="middle" x="248.5" y="-878.3" font-family="Times,serif" font-size="14.00">Class33</text>
</g>
<!-- Class34 -->
<g id="node34" class="node">
<title>Class34</title>
<polygon fill="lightgrey" stroke="lightgrey" points="73,-900 0,-900 0,-864 73,-864 73,-900"/>
<text text-anchor="middle" x="36.5" y="-878.3" font-family="Times,serif" font-size="14.00">Class34</text>
</g>
<!-- Class34&#45;&gt;Class33 -->
<g id="edge17" class="edge">
<title>Class34&#45;&gt;Class33</title>
<path fill="none" stroke="black" d="M73.12,-882C108.42,-882 162.65,-882 201.26,-882"/>
<polygon fill="black" stroke="black" points="201.7,-885.5 211.7,-882 201.7,-878.5 201.7,-885.5"/>
<text text-anchor="middle" x="142.5" y="-885.8" font-family="Times,serif" font-size="14.00">aggregation</text>
</g>
<!-- Class35 -->
<g id="node35" class="node">
<title>Class35</title>
<polygon fill="lightgrey" stroke="lightgrey" points="285,-954 212,-954 212,-918 285,-918 285,-954"/>
<text text-anchor="middle" x="248.5" y="-932.3" font-family="Times,serif" font-size="14.00">Class35</text>
</g>
<!-- Class36 -->
<g id="node36" class="node">
<title>Class36</title>
<polygon fill="lightgrey" stroke="lightgrey" points="73,-954 0,-954 0,-918 73,-918 73,-954"/>
<text text-anchor="middle" x="36.5" y="-932.3" font-family="Times,serif" font-size="14.00">Class36</text>
</g>
<!-- Class36&#45;&gt;Class35 -->
<g id="edge18" class="edge">
<title>Class36&#45;&gt;Class35</title>
<path fill="none" stroke="black" d="M73.12,-936C108.42,-936 162.65,-936 201.26,-936"/>
<polygon fill="black" stroke="black" points="201.7,-939.5 211.7,-936 201.7,-932.5 201.7,-939.5"/>
<text text-anchor="middle" x="142.5" y="-939.8" font-family="Times,serif" font-size="14.00">association</text>
</g>
<!-- Car -->
<g id="node37" class="node">
<title>Car</title>
<polygon fill="lightgrey" stroke="lightgrey" points="275.5,-1035 221.5,-1035 221.5,-999 275.5,-999 275.5,-1035"/>
<text text-anchor="middle" x="248.5" y="-1013.3" font-family="Times,serif" font-size="14.00">Car</text>
</g>
<!-- Driver -->
<g id="node38" class="node">
<title>Driver</title>
<polygon fill="lightgrey" stroke="lightgrey" points="428,-1035 366,-1035 366,-999 428,-999 428,-1035"/>
<text text-anchor="middle" x="397" y="-1013.3" font-family="Times,serif" font-size="14.00">Driver</text>
</g>
<!-- Car&#45;&gt;Driver -->
<g id="edge19" class="edge">
<title>Car&#45;&gt;Driver</title>
<path fill="none" stroke="black" d="M275.69,-1017C297.97,-1017 330.32,-1017 355.87,-1017"/>
<polygon fill="black" stroke="black" points="355.99,-1020.5 365.99,-1017 355.99,-1013.5 355.99,-1020.5"/>
<text text-anchor="middle" x="325.5" y="-1020.8" font-family="Times,serif" font-size="14.00">drives</text>
</g>
<!-- Wheel -->
<g id="node39" class="node">
<title>Wheel</title>
<polygon fill="lightgrey" stroke="lightgrey" points="67,-1062 6,-1062 6,-1026 67,-1026 67,-1062"/>
<text text-anchor="middle" x="36.5" y="-1040.3" font-family="Times,serif" font-size="14.00">Wheel</text>
</g>
<!-- Wheel&#45;&gt;Car -->
<g id="edge20" class="edge">
<title>Wheel&#45;&gt;Car</title>
<path fill="none" stroke="black" d="M67.14,-1040.19C105,-1035.32 170.48,-1026.9 211.26,-1021.66"/>
<polygon fill="black" stroke="black" points="211.85,-1025.11 221.32,-1020.37 210.95,-1018.17 211.85,-1025.11"/>
<text text-anchor="middle" x="142.5" y="-1040.8" font-family="Times,serif" font-size="14.00">have 4</text>
</g>
<!-- Person -->
<g id="node40" class="node">
<title>Person</title>
<polygon fill="lightgrey" stroke="lightgrey" points="69,-1008 4,-1008 4,-972 69,-972 69,-1008"/>
<text text-anchor="middle" x="36.5" y="-986.3" font-family="Times,serif" font-size="14.00">Person</text>
</g>
<!-- Person&#45;&gt;Car -->
<g id="edge21" class="edge">
<title>Person&#45;&gt;Car</title>
<path fill="none" stroke="black" d="M69.09,-992.29C100.79,-994.81 150.94,-999.39 194,-1006 199.62,-1006.86 205.55,-1007.93 211.33,-1009.05"/>
<polygon fill="black" stroke="black" points="210.98,-1012.55 221.47,-1011.1 212.36,-1005.69 210.98,-1012.55"/>
<text text-anchor="middle" x="142.5" y="-1009.8" font-family="Times,serif" font-size="14.00">owns</text>
</g>
</g>
</svg>
