<?xml version="1.0" encoding="UTF-8" standalone="no"?>
<!DOCTYPE svg PUBLIC "-//W3C//DTD SVG 1.1//EN"
 "http://www.w3.org/Graphics/SVG/1.1/DTD/svg11.dtd">
<!-- Generated by graphviz version 2.43.0 (0)
 -->
<!-- Title: dot Pages: 1 -->
<svg width="1849pt" height="1082pt"
 viewBox="0.00 0.00 1849.00 1081.52" xmlns="http://www.w3.org/2000/svg" xmlns:xlink="http://www.w3.org/1999/xlink">
<g id="graph0" class="graph" transform="scale(1 1) rotate(0) translate(4 1077.52)">
<title>dot</title>
<polygon fill="white" stroke="transparent" points="-4,4 -4,-1077.52 1845,-1077.52 1845,4 -4,4"/>
<!-- AbstractConsumer -->
<g id="node1" class="node">
<title>AbstractConsumer</title>
<polygon fill="lightgrey" stroke="black" points="448,-634.02 448,-686.02 595,-686.02 595,-634.02 448,-634.02"/>
<text text-anchor="middle" x="521.5" y="-673.22" font-family="Helvetica,sans-Serif" font-size="11.00">AbstractConsumer</text>
<polyline fill="none" stroke="black" points="448,-666.02 595,-666.02 "/>
<text text-anchor="start" x="456" y="-653.22" font-family="Helvetica,sans-Serif" font-size="11.00">ingressTaps() : Taps&lt;I&gt;</text>
<text text-anchor="start" x="456" y="-641.22" font-family="Helvetica,sans-Serif" font-size="11.00">ports() : Ports&lt;I&gt;</text>
</g>
<!-- Consumer -->
<g id="node4" class="node">
<title>Consumer</title>
<polygon fill="lightgrey" stroke="black" points="750.5,-777.02 750.5,-797.02 822.5,-797.02 822.5,-777.02 750.5,-777.02"/>
<text text-anchor="middle" x="786.5" y="-784.22" font-family="Helvetica,sans-Serif" font-size="11.00">Consumer</text>
</g>
<!-- AbstractConsumer&#45;&gt;Consumer -->
<g id="edge2" class="edge">
<title>AbstractConsumer&#45;&gt;Consumer</title>
<path fill="none" stroke="black" d="M595.15,-678.45C604.02,-683.06 612.29,-688.83 619,-696.02 638.27,-716.7 616.16,-737.93 637,-757.02 664.65,-782.35 707.56,-788.77 740.16,-789.49"/>
<polygon fill="black" stroke="black" points="740.33,-792.99 750.35,-789.54 740.36,-785.99 740.33,-792.99"/>
<text text-anchor="middle" x="670.5" y="-787.82" font-family="Times,serif" font-size="9.00" fill="grey">generalization</text>
</g>
<!-- LifecycleContext -->
<g id="node25" class="node">
<title>LifecycleContext</title>
<polygon fill="lightgrey" stroke="black" points="732.5,-552.02 732.5,-572.02 840.5,-572.02 840.5,-552.02 732.5,-552.02"/>
<text text-anchor="middle" x="786.5" y="-559.22" font-family="Helvetica,sans-Serif" font-size="11.00">LifecycleContext</text>
</g>
<!-- AbstractConsumer&#45;&gt;LifecycleContext -->
<g id="edge3" class="edge">
<title>AbstractConsumer&#45;&gt;LifecycleContext</title>
<path fill="none" stroke="black" d="M595.38,-637.15C603.8,-632.86 611.9,-627.85 619,-622.02 630.44,-612.64 624.84,-602.45 637,-594.02 661.81,-576.83 694.12,-568.62 722.26,-564.79"/>
<polygon fill="black" stroke="black" points="722.9,-568.24 732.42,-563.57 722.07,-561.29 722.9,-568.24"/>
<text text-anchor="middle" x="670.5" y="-596.82" font-family="Times,serif" font-size="9.00" fill="grey">generalization</text>
</g>
<!-- AbstractNode -->
<g id="node26" class="node">
<title>AbstractNode</title>
<polygon fill="lightgrey" stroke="black" points="740.5,-650.02 740.5,-670.02 832.5,-670.02 832.5,-650.02 740.5,-650.02"/>
<text text-anchor="middle" x="786.5" y="-657.22" font-family="Helvetica,sans-Serif" font-size="11.00">AbstractNode</text>
</g>
<!-- AbstractConsumer&#45;&gt;AbstractNode -->
<g id="edge1" class="edge">
<title>AbstractConsumer&#45;&gt;AbstractNode</title>
<path fill="none" stroke="black" d="M595.06,-660.02C637.77,-660.02 690.94,-660.02 730.23,-660.02"/>
<polygon fill="black" stroke="black" points="730.42,-663.52 740.42,-660.02 730.42,-656.52 730.42,-663.52"/>
<text text-anchor="middle" x="670.5" y="-662.82" font-family="Times,serif" font-size="9.00" fill="grey">generalization</text>
</g>
<!-- AbstractProducer -->
<g id="node2" class="node">
<title>AbstractProducer</title>
<polygon fill="lightgrey" stroke="black" points="465.5,-526.02 465.5,-546.02 577.5,-546.02 577.5,-526.02 465.5,-526.02"/>
<text text-anchor="middle" x="521.5" y="-533.22" font-family="Helvetica,sans-Serif" font-size="11.00">AbstractProducer</text>
</g>
<!-- Producer -->
<g id="node13" class="node">
<title>Producer</title>
<polygon fill="lightgrey" stroke="black" points="754,-373.02 754,-393.02 819,-393.02 819,-373.02 754,-373.02"/>
<text text-anchor="middle" x="786.5" y="-380.22" font-family="Helvetica,sans-Serif" font-size="11.00">Producer</text>
</g>
<!-- AbstractProducer&#45;&gt;Producer -->
<g id="edge5" class="edge">
<title>AbstractProducer&#45;&gt;Producer</title>
<path fill="none" stroke="black" d="M539.76,-525.98C584.71,-499.83 705.65,-429.47 759.28,-398.28"/>
<polygon fill="black" stroke="black" points="761.3,-401.15 768.18,-393.1 757.78,-395.1 761.3,-401.15"/>
<text text-anchor="middle" x="670.5" y="-470.82" font-family="Times,serif" font-size="9.00" fill="grey">generalization</text>
</g>
<!-- Shutdown -->
<g id="node14" class="node">
<title>Shutdown</title>
<polygon fill="lightgrey" stroke="black" points="1106.5,-572.02 1106.5,-612.02 1219.5,-612.02 1219.5,-572.02 1106.5,-572.02"/>
<text text-anchor="middle" x="1163" y="-599.22" font-family="Helvetica,sans-Serif" font-size="11.00">Shutdown</text>
<polyline fill="none" stroke="black" points="1106.5,-592.02 1219.5,-592.02 "/>
<text text-anchor="start" x="1114.5" y="-579.22" font-family="Helvetica,sans-Serif" font-size="11.00">shutdown() : void</text>
</g>
<!-- AbstractProducer&#45;&gt;Shutdown -->
<g id="edge7" class="edge">
<title>AbstractProducer&#45;&gt;Shutdown</title>
<path fill="none" stroke="black" d="M577.54,-534.97C617.6,-534.26 673.16,-533.39 722,-533.02 817.13,-532.31 841.84,-523.48 936,-537.02 990.81,-544.91 1051.75,-560.13 1096.52,-572.56"/>
<polygon fill="black" stroke="black" points="1095.82,-576 1106.39,-575.33 1097.71,-569.26 1095.82,-576"/>
<text text-anchor="middle" x="786.5" y="-535.82" font-family="Times,serif" font-size="9.00" fill="grey">generalization</text>
</g>
<!-- AbstractProducer&#45;&gt;LifecycleContext -->
<g id="edge6" class="edge">
<title>AbstractProducer&#45;&gt;LifecycleContext</title>
<path fill="none" stroke="black" d="M577.63,-541.47C619.83,-545.64 678.09,-551.4 722.2,-555.76"/>
<polygon fill="black" stroke="black" points="721.94,-559.26 732.24,-556.76 722.63,-552.29 721.94,-559.26"/>
<text text-anchor="middle" x="670.5" y="-555.82" font-family="Times,serif" font-size="9.00" fill="grey">generalization</text>
</g>
<!-- AbstractProducer&#45;&gt;AbstractNode -->
<g id="edge4" class="edge">
<title>AbstractProducer&#45;&gt;AbstractNode</title>
<path fill="none" stroke="black" d="M550.41,-546.06C570.66,-554.15 598.06,-566.85 619,-583.02 628.73,-590.54 626.93,-596.97 637,-604.02 665.78,-624.2 702.76,-638.17 732.61,-647.12"/>
<polygon fill="black" stroke="black" points="731.86,-650.54 742.44,-649.96 733.81,-643.82 731.86,-650.54"/>
<text text-anchor="middle" x="670.5" y="-639.82" font-family="Times,serif" font-size="9.00" fill="grey">generalization</text>
</g>
<!-- AbstractWorker -->
<g id="node3" class="node">
<title>AbstractWorker</title>
<polygon fill="lightgrey" stroke="black" points="424,-705.02 424,-781.02 619,-781.02 619,-705.02 424,-705.02"/>
<text text-anchor="middle" x="521.5" y="-768.22" font-family="Helvetica,sans-Serif" font-size="11.00">AbstractWorker</text>
<polyline fill="none" stroke="black" points="424,-761.02 619,-761.02 "/>
<text text-anchor="start" x="432" y="-748.22" font-family="Helvetica,sans-Serif" font-size="11.00">ports() : Ports&lt;I&gt;</text>
<text text-anchor="start" x="432" y="-736.22" font-family="Helvetica,sans-Serif" font-size="11.00">ingressTaps() : Taps&lt;I&gt;</text>
<text text-anchor="start" x="432" y="-724.22" font-family="Helvetica,sans-Serif" font-size="11.00">egressTaps() : Taps&lt;E&gt;</text>
<text text-anchor="start" x="432" y="-712.22" font-family="Helvetica,sans-Serif" font-size="11.00">connections() : Connections&lt;E&gt;</text>
</g>
<!-- Worker -->
<g id="node18" class="node">
<title>Worker</title>
<polygon fill="lightgrey" stroke="black" points="758.5,-733.02 758.5,-753.02 814.5,-753.02 814.5,-733.02 758.5,-733.02"/>
<text text-anchor="middle" x="786.5" y="-740.22" font-family="Helvetica,sans-Serif" font-size="11.00">Worker</text>
</g>
<!-- AbstractWorker&#45;&gt;Worker -->
<g id="edge9" class="edge">
<title>AbstractWorker&#45;&gt;Worker</title>
<path fill="none" stroke="black" d="M619.31,-743.02C664.11,-743.02 714.7,-743.02 748.17,-743.02"/>
<polygon fill="black" stroke="black" points="748.41,-746.52 758.41,-743.02 748.41,-739.52 748.41,-746.52"/>
<text text-anchor="middle" x="670.5" y="-745.82" font-family="Times,serif" font-size="9.00" fill="grey">generalization</text>
</g>
<!-- AbstractWorker&#45;&gt;AbstractNode -->
<g id="edge8" class="edge">
<title>AbstractWorker&#45;&gt;AbstractNode</title>
<path fill="none" stroke="black" d="M619.31,-712.47C662.18,-698.94 710.36,-683.74 743.75,-673.2"/>
<polygon fill="black" stroke="black" points="745.14,-676.43 753.62,-670.08 743.03,-669.76 745.14,-676.43"/>
<text text-anchor="middle" x="670.5" y="-708.82" font-family="Times,serif" font-size="9.00" fill="grey">generalization</text>
</g>
<!-- Ingress -->
<g id="node7" class="node">
<title>Ingress</title>
<polygon fill="lightgrey" stroke="black" points="1041.5,-708.02 1041.5,-784.02 1284.5,-784.02 1284.5,-708.02 1041.5,-708.02"/>
<text text-anchor="middle" x="1163" y="-771.22" font-family="Helvetica,sans-Serif" font-size="11.00">Ingress</text>
<polyline fill="none" stroke="black" points="1041.5,-764.02 1284.5,-764.02 "/>
<text text-anchor="start" x="1049.5" y="-751.22" font-family="Helvetica,sans-Serif" font-size="11.00">ingress() : Iterable&lt;Packet&lt;I&gt;&gt;</text>
<text text-anchor="start" x="1049.5" y="-739.22" font-family="Helvetica,sans-Serif" font-size="11.00">ingress(max : int) : Iterable&lt;Packet&lt;I&gt;&gt;</text>
<text text-anchor="start" x="1049.5" y="-727.22" font-family="Helvetica,sans-Serif" font-size="11.00">addIngressTap(tap : Tap&lt;I&gt;) : void</text>
<text text-anchor="start" x="1049.5" y="-715.22" font-family="Helvetica,sans-Serif" font-size="11.00">removeIngressTap(tap : Tap&lt;I&gt;) : void</text>
</g>
<!-- Consumer&#45;&gt;Ingress -->
<g id="edge10" class="edge">
<title>Consumer&#45;&gt;Ingress</title>
<path fill="none" stroke="black" d="M822.73,-783.17C870.12,-777.98 956.99,-768.47 1030.97,-760.37"/>
<polygon fill="black" stroke="black" points="1031.75,-763.8 1041.31,-759.24 1030.99,-756.84 1031.75,-763.8"/>
<text text-anchor="middle" x="902.5" y="-779.82" font-family="Times,serif" font-size="9.00" fill="grey">generalization</text>
</g>
<!-- Process -->
<g id="node12" class="node">
<title>Process</title>
<polygon fill="lightgrey" stroke="black" points="954,-803.02 954,-855.02 1372,-855.02 1372,-803.02 954,-803.02"/>
<text text-anchor="middle" x="1163" y="-842.22" font-family="Helvetica,sans-Serif" font-size="11.00">Process</text>
<polyline fill="none" stroke="black" points="954,-835.02 1372,-835.02 "/>
<text text-anchor="start" x="962" y="-822.22" font-family="Helvetica,sans-Serif" font-size="11.00">process(inbound : Packet&lt;I&gt;, outbound : Collection&lt;Packet&lt;E&gt;&gt;) : void</text>
<text text-anchor="start" x="962" y="-810.22" font-family="Helvetica,sans-Serif" font-size="11.00">process(packets : Iterable&lt;Packet&lt;I&gt;&gt;) : Collection&lt;Packet&lt;E&gt;&gt;</text>
</g>
<!-- Consumer&#45;&gt;Process -->
<g id="edge11" class="edge">
<title>Consumer&#45;&gt;Process</title>
<path fill="none" stroke="black" d="M794.3,-797.29C806.68,-814.94 834.81,-850.43 869,-864.02 938.56,-891.68 1024.16,-876.37 1084.84,-858.12"/>
<polygon fill="black" stroke="black" points="1086.22,-861.36 1094.73,-855.05 1084.15,-854.67 1086.22,-861.36"/>
<text text-anchor="middle" x="902.5" y="-880.82" font-family="Times,serif" font-size="9.00" fill="grey">generalization</text>
</g>
<!-- Consumer&#45;&gt;Shutdown -->
<g id="edge12" class="edge">
<title>Consumer&#45;&gt;Shutdown</title>
<path fill="none" stroke="black" d="M822.61,-778.8C832.61,-775.2 842.96,-770.12 851,-763.02 863.82,-751.71 856.52,-740.71 869,-729.02 892.82,-706.72 906.37,-712.67 936,-699.02 996.31,-671.25 1065.24,-638.46 1110.95,-616.57"/>
<polygon fill="black" stroke="black" points="1112.55,-619.69 1120.06,-612.21 1109.52,-613.37 1112.55,-619.69"/>
<text text-anchor="middle" x="902.5" y="-731.82" font-family="Times,serif" font-size="9.00" fill="grey">generalization</text>
</g>
<!-- Sink -->
<g id="node24" class="node">
<title>Sink</title>
<polygon fill="lightgrey" stroke="black" points="1136,-912.02 1136,-932.02 1190,-932.02 1190,-912.02 1136,-912.02"/>
<text text-anchor="middle" x="1163" y="-919.22" font-family="Helvetica,sans-Serif" font-size="11.00">Sink</text>
</g>
<!-- Consumer&#45;&gt;Sink -->
<g id="edge13" class="edge">
<title>Consumer&#45;&gt;Sink</title>
<path fill="none" stroke="black" d="M791.75,-797.32C804.47,-827.55 842.93,-914.88 869,-930.02 911.58,-954.77 1057.28,-937.52 1125.81,-927.63"/>
<polygon fill="black" stroke="black" points="1126.35,-931.09 1135.73,-926.18 1125.33,-924.17 1126.35,-931.09"/>
<text text-anchor="middle" x="902.5" y="-944.82" font-family="Times,serif" font-size="9.00" fill="grey">generalization</text>
</g>
<!-- DefaultTap -->
<g id="node5" class="node">
<title>DefaultTap</title>
<polygon fill="lightgrey" stroke="black" points="484,-1014.02 484,-1034.02 559,-1034.02 559,-1014.02 484,-1014.02"/>
<text text-anchor="middle" x="521.5" y="-1021.22" font-family="Helvetica,sans-Serif" font-size="11.00">DefaultTap</text>
</g>
<!-- Tap -->
<g id="node15" class="node">
<title>Tap</title>
<polygon fill="lightgrey" stroke="black" points="759.5,-923.02 759.5,-943.02 813.5,-943.02 813.5,-923.02 759.5,-923.02"/>
<text text-anchor="middle" x="786.5" y="-930.22" font-family="Helvetica,sans-Serif" font-size="11.00">Tap</text>
</g>
<!-- DefaultTap&#45;&gt;Tap -->
<g id="edge15" class="edge">
<title>DefaultTap&#45;&gt;Tap</title>
<path fill="none" stroke="black" d="M551.65,-1013.94C600.15,-997.16 697.25,-963.56 749.79,-945.38"/>
<polygon fill="black" stroke="black" points="751.06,-948.64 759.36,-942.07 748.77,-942.03 751.06,-948.64"/>
<text text-anchor="middle" x="670.5" y="-985.82" font-family="Times,serif" font-size="9.00" fill="grey">generalization</text>
</g>
<!-- Comparable -->
<g id="node30" class="node">
<title>Comparable</title>
<polygon fill="lightgrey" stroke="black" points="745,-1053.02 745,-1073.02 828,-1073.02 828,-1053.02 745,-1053.02"/>
<text text-anchor="middle" x="786.5" y="-1060.22" font-family="Helvetica,sans-Serif" font-size="11.00">Comparable</text>
</g>
<!-- DefaultTap&#45;&gt;Comparable -->
<g id="edge16" class="edge">
<title>DefaultTap&#45;&gt;Comparable</title>
<path fill="none" stroke="black" d="M559.07,-1029.45C604.85,-1036.23 683.51,-1047.9 735.01,-1055.54"/>
<polygon fill="black" stroke="black" points="734.52,-1059 744.93,-1057.01 735.55,-1052.08 734.52,-1059"/>
<text text-anchor="middle" x="670.5" y="-1052.82" font-family="Times,serif" font-size="9.00" fill="grey">generalization</text>
</g>
<!-- LinkedList -->
<g id="node32" class="node">
<title>LinkedList</title>
<polygon fill="lightgrey" stroke="black" points="751,-1014.02 751,-1034.02 822,-1034.02 822,-1014.02 751,-1014.02"/>
<text text-anchor="middle" x="786.5" y="-1021.22" font-family="Helvetica,sans-Serif" font-size="11.00">LinkedList</text>
</g>
<!-- DefaultTap&#45;&gt;LinkedList -->
<g id="edge14" class="edge">
<title>DefaultTap&#45;&gt;LinkedList</title>
<path fill="none" stroke="black" d="M559.07,-1024.02C606.61,-1024.02 689.58,-1024.02 740.8,-1024.02"/>
<polygon fill="black" stroke="black" points="740.91,-1027.52 750.91,-1024.02 740.91,-1020.52 740.91,-1027.52"/>
<text text-anchor="middle" x="670.5" y="-1026.82" font-family="Times,serif" font-size="9.00" fill="grey">generalization</text>
</g>
<!-- Egress -->
<g id="node6" class="node">
<title>Egress</title>
<polygon fill="lightgrey" stroke="black" points="1000.5,-395.02 1000.5,-471.02 1325.5,-471.02 1325.5,-395.02 1000.5,-395.02"/>
<text text-anchor="middle" x="1163" y="-458.22" font-family="Helvetica,sans-Serif" font-size="11.00">Egress</text>
<polyline fill="none" stroke="black" points="1000.5,-451.02 1325.5,-451.02 "/>
<text text-anchor="start" x="1008.5" y="-438.22" font-family="Helvetica,sans-Serif" font-size="11.00">egress(packet : Packet&lt;E&gt;) : Set&lt;Node&gt;</text>
<text text-anchor="start" x="1008.5" y="-426.22" font-family="Helvetica,sans-Serif" font-size="11.00">egress(packets : Collection&lt;Packet&lt;E&gt;&gt;) : Set&lt;Node&gt;</text>
<text text-anchor="start" x="1008.5" y="-414.22" font-family="Helvetica,sans-Serif" font-size="11.00">addEgressTap(tap : Tap&lt;E&gt;) : void</text>
<text text-anchor="start" x="1008.5" y="-402.22" font-family="Helvetica,sans-Serif" font-size="11.00">removeEgressTap(tap : Tap&lt;E&gt;) : void</text>
</g>
<!-- Inject -->
<g id="node8" class="node">
<title>Inject</title>
<polygon fill="lightgrey" stroke="black" points="1024.5,-270.02 1024.5,-322.02 1301.5,-322.02 1301.5,-270.02 1024.5,-270.02"/>
<text text-anchor="middle" x="1163" y="-309.22" font-family="Helvetica,sans-Serif" font-size="11.00">Inject</text>
<polyline fill="none" stroke="black" points="1024.5,-302.02 1301.5,-302.02 "/>
<text text-anchor="start" x="1032.5" y="-289.22" font-family="Helvetica,sans-Serif" font-size="11.00">inject(packet : Packet&lt;E&gt;) : void</text>
<text text-anchor="start" x="1032.5" y="-277.22" font-family="Helvetica,sans-Serif" font-size="11.00">inject(packets : Collection&lt;Packet&lt;E&gt;&gt;) : void</text>
</g>
<!-- NetworkBuilder -->
<g id="node9" class="node">
<title>NetworkBuilder</title>
<polygon fill="lightgrey" stroke="black" points="1460,-46.02 1460,-110.02 1841,-110.02 1841,-46.02 1460,-46.02"/>
<text text-anchor="middle" x="1650.5" y="-97.22" font-family="Helvetica,sans-Serif" font-size="11.00">NetworkBuilder</text>
<polyline fill="none" stroke="black" points="1460,-90.02 1841,-90.02 "/>
<text text-anchor="start" x="1468" y="-77.22" font-family="Helvetica,sans-Serif" font-size="11.00">addNode(node : Node) : NetworkBuilder</text>
<text text-anchor="start" x="1468" y="-65.22" font-family="Helvetica,sans-Serif" font-size="11.00">connect(from : NodeId, to : NodeId, port : String) : NetworkBuilder</text>
<text text-anchor="start" x="1468" y="-53.22" font-family="Helvetica,sans-Serif" font-size="11.00">get() : Network</text>
</g>
<!-- Network -->
<g id="node10" class="node">
<title>Network</title>
<polygon fill="lightgrey" stroke="black" points="960.5,-34.02 960.5,-122.02 1365.5,-122.02 1365.5,-34.02 960.5,-34.02"/>
<text text-anchor="middle" x="1163" y="-109.22" font-family="Helvetica,sans-Serif" font-size="11.00">Network</text>
<polyline fill="none" stroke="black" points="960.5,-102.02 1365.5,-102.02 "/>
<text text-anchor="start" x="968.5" y="-89.22" font-family="Helvetica,sans-Serif" font-size="11.00">nodes() : Collection&lt;? extends Node&gt;</text>
<text text-anchor="start" x="968.5" y="-77.22" font-family="Helvetica,sans-Serif" font-size="11.00">nodes(type : Class&lt;T&gt;) : &lt;T extends Node&gt; Collection&lt;? extends T&gt;</text>
<text text-anchor="start" x="968.5" y="-65.22" font-family="Helvetica,sans-Serif" font-size="11.00">capability(capability : Class&lt;T&gt;) : &lt;T&gt; Collection&lt;? extends T&gt;</text>
<text text-anchor="start" x="968.5" y="-53.22" font-family="Helvetica,sans-Serif" font-size="11.00">node(nodeId : NodeId) : Node</text>
<text text-anchor="start" x="968.5" y="-41.22" font-family="Helvetica,sans-Serif" font-size="11.00">node(nodeId : NodeId, type : Class&lt;T&gt;) &lt;T extends Node&gt; T</text>
</g>
<!-- Network&#45;&gt;NetworkBuilder -->
<g id="edge51" class="edge">
<title>Network&#45;&gt;NetworkBuilder</title>
<path fill="none" stroke="black" d="M1365.68,-78.02C1393.41,-78.02 1421.87,-78.02 1449.57,-78.02"/>
<polygon fill="black" stroke="black" points="1449.73,-81.52 1459.73,-78.02 1449.73,-74.52 1449.73,-81.52"/>
<text text-anchor="middle" x="1416" y="-80.82" font-family="Times,serif" font-size="9.00" fill="grey">association</text>
</g>
<!-- ProcessingException -->
<g id="node11" class="node">
<title>ProcessingException</title>
<polygon fill="lightgrey" stroke="black" points="722,-975.02 722,-995.02 851,-995.02 851,-975.02 722,-975.02"/>
<text text-anchor="middle" x="786.5" y="-982.22" font-family="Helvetica,sans-Serif" font-size="11.00">ProcessingException</text>
</g>
<!-- ProcessingException&#45;&gt;Process -->
<g id="edge56" class="edge">
<title>ProcessingException&#45;&gt;Process</title>
<path fill="none" stroke="black" d="M851.2,-986.51C880.13,-983.97 912.96,-976.16 936,-956.02 954.73,-939.65 936.54,-920.74 954,-903.02 973.05,-883.7 997.48,-869.4 1022.84,-858.83"/>
<polygon fill="black" stroke="black" points="1024.22,-862.05 1032.22,-855.1 1021.64,-855.54 1024.22,-862.05"/>
<text text-anchor="middle" x="902.5" y="-986.82" font-family="Times,serif" font-size="9.00" fill="grey">association</text>
</g>
<!-- Exception -->
<g id="node31" class="node">
<title>Exception</title>
<polygon fill="lightgrey" stroke="black" points="1128,-1047.02 1128,-1067.02 1198,-1067.02 1198,-1047.02 1128,-1047.02"/>
<text text-anchor="middle" x="1163" y="-1054.22" font-family="Helvetica,sans-Serif" font-size="11.00">Exception</text>
</g>
<!-- ProcessingException&#45;&gt;Exception -->
<g id="edge17" class="edge">
<title>ProcessingException&#45;&gt;Exception</title>
<path fill="none" stroke="black" d="M832.75,-995.05C839.23,-997.66 845.55,-1000.93 851,-1005.02 862.53,-1013.68 856.59,-1024.68 869,-1032.02 946.89,-1078.08 1057.38,-1072.34 1117.99,-1064.46"/>
<polygon fill="black" stroke="black" points="1118.56,-1067.91 1127.99,-1063.07 1117.61,-1060.98 1118.56,-1067.91"/>
<text text-anchor="middle" x="902.5" y="-1060.82" font-family="Times,serif" font-size="9.00" fill="grey">generalization</text>
</g>
<!-- Producer&#45;&gt;Egress -->
<g id="edge22" class="edge">
<title>Producer&#45;&gt;Egress</title>
<path fill="none" stroke="black" d="M819.11,-386.35C849.2,-389.59 895.73,-394.78 936,-400.02 953.58,-402.31 971.92,-404.81 990.21,-407.37"/>
<polygon fill="black" stroke="black" points="989.97,-410.87 1000.36,-408.8 990.95,-403.94 989.97,-410.87"/>
<text text-anchor="middle" x="902.5" y="-402.82" font-family="Times,serif" font-size="9.00" fill="grey">generalization</text>
</g>
<!-- Producer&#45;&gt;Ingress -->
<g id="edge20" class="edge">
<title>Producer&#45;&gt;Ingress</title>
<path fill="none" stroke="black" d="M794.39,-393.03C807.34,-411.29 836.91,-450.49 869,-476.02 895.45,-497.07 916.36,-484.51 936,-512.02 964.78,-552.34 926.12,-581.07 954,-622.02 977.83,-657.02 1015.1,-683.68 1051.55,-703.13"/>
<polygon fill="black" stroke="black" points="1050.3,-706.43 1060.79,-707.93 1053.53,-700.21 1050.3,-706.43"/>
<text text-anchor="middle" x="902.5" y="-514.82" font-family="Times,serif" font-size="9.00" fill="grey">generalization</text>
</g>
<!-- Producer&#45;&gt;Inject -->
<g id="edge19" class="edge">
<title>Producer&#45;&gt;Inject</title>
<path fill="none" stroke="black" d="M790.99,-372.86C799.73,-349.2 825.09,-290.72 869,-268.02 895.93,-254.1 960.84,-259.1 1022.74,-268.47"/>
<polygon fill="black" stroke="black" points="1022.22,-271.93 1032.64,-270.01 1023.29,-265.01 1022.22,-271.93"/>
<text text-anchor="middle" x="902.5" y="-270.82" font-family="Times,serif" font-size="9.00" fill="grey">generalization</text>
</g>
<!-- Producer&#45;&gt;Process -->
<g id="edge21" class="edge">
<title>Producer&#45;&gt;Process</title>
<path fill="none" stroke="black" d="M794.62,-393.19C808.07,-412.94 837.11,-458.33 851,-501.02 869.32,-557.33 831.1,-587.53 869,-633.02 889.06,-657.1 916.02,-630.87 936,-655.02 975.71,-703.02 910.79,-749.15 954,-794.02 954.67,-794.71 955.34,-795.4 956.02,-796.07"/>
<polygon fill="black" stroke="black" points="953.85,-798.82 963.63,-802.87 958.51,-793.6 953.85,-798.82"/>
<text text-anchor="middle" x="902.5" y="-657.82" font-family="Times,serif" font-size="9.00" fill="grey">generalization</text>
</g>
<!-- ControlContext -->
<g id="node19" class="node">
<title>ControlContext</title>
<polygon fill="lightgrey" stroke="black" points="1113,-227.02 1113,-247.02 1213,-247.02 1213,-227.02 1113,-227.02"/>
<text text-anchor="middle" x="1163" y="-234.22" font-family="Helvetica,sans-Serif" font-size="11.00">ControlContext</text>
</g>
<!-- Producer&#45;&gt;ControlContext -->
<g id="edge24" class="edge">
<title>Producer&#45;&gt;ControlContext</title>
<path fill="none" stroke="black" d="M789.86,-373C796.72,-346.44 819.37,-274.25 869,-245.02 907.11,-222.58 1028.55,-226.92 1102.59,-232.03"/>
<polygon fill="black" stroke="black" points="1102.48,-235.53 1112.71,-232.75 1102.98,-228.55 1102.48,-235.53"/>
<text text-anchor="middle" x="902.5" y="-247.82" font-family="Times,serif" font-size="9.00" fill="grey">generalization</text>
</g>
<!-- Source -->
<g id="node23" class="node">
<title>Source</title>
<polygon fill="lightgrey" stroke="black" points="1136,-356.02 1136,-376.02 1190,-376.02 1190,-356.02 1136,-356.02"/>
<text text-anchor="middle" x="1163" y="-363.22" font-family="Helvetica,sans-Serif" font-size="11.00">Source</text>
</g>
<!-- Producer&#45;&gt;Source -->
<g id="edge18" class="edge">
<title>Producer&#45;&gt;Source</title>
<path fill="none" stroke="black" d="M819.03,-375.38C834.06,-372.11 852.35,-368.67 869,-367.02 961.02,-357.92 1070.1,-361.24 1125.6,-363.93"/>
<polygon fill="black" stroke="black" points="1125.49,-367.43 1135.65,-364.44 1125.84,-360.44 1125.49,-367.43"/>
<text text-anchor="middle" x="902.5" y="-369.82" font-family="Times,serif" font-size="9.00" fill="grey">generalization</text>
</g>
<!-- ScheduleContext -->
<g id="node29" class="node">
<title>ScheduleContext</title>
<polygon fill="lightgrey" stroke="black" points="1108,-188.02 1108,-208.02 1218,-208.02 1218,-188.02 1108,-188.02"/>
<text text-anchor="middle" x="1163" y="-195.22" font-family="Helvetica,sans-Serif" font-size="11.00">ScheduleContext</text>
</g>
<!-- Producer&#45;&gt;ScheduleContext -->
<g id="edge23" class="edge">
<title>Producer&#45;&gt;ScheduleContext</title>
<path fill="none" stroke="black" d="M788.92,-372.86C793.74,-342.77 812.4,-253.84 869,-216.02 940.45,-168.28 1044.89,-175.62 1107.86,-186.19"/>
<polygon fill="black" stroke="black" points="1107.52,-189.69 1117.98,-187.98 1108.74,-182.79 1107.52,-189.69"/>
<text text-anchor="middle" x="902.5" y="-218.82" font-family="Times,serif" font-size="9.00" fill="grey">generalization</text>
</g>
<!-- Tap&#45;&gt;Egress -->
<g id="edge46" class="edge">
<title>Tap&#45;&gt;Egress</title>
<path fill="none" stroke="black" d="M794.33,-922.78C807.82,-902 837.71,-852.9 851,-807.02 862.49,-767.35 843.18,-654.26 869,-622.02 888.59,-597.56 912.39,-620.63 936,-600.02 949.78,-588 941.77,-576.62 954,-563.02 986.17,-527.26 1030.44,-497.75 1069.88,-475.93"/>
<polygon fill="black" stroke="black" points="1071.62,-478.97 1078.74,-471.11 1068.28,-472.82 1071.62,-478.97"/>
<text text-anchor="middle" x="902.5" y="-624.82" font-family="Times,serif" font-size="9.00" fill="grey">association</text>
</g>
<!-- Tap&#45;&gt;Ingress -->
<g id="edge48" class="edge">
<title>Tap&#45;&gt;Ingress</title>
<path fill="none" stroke="black" d="M813.74,-929.17C851.81,-923.05 919.61,-909.92 936,-892.02 965.91,-859.37 923.4,-826.03 954,-794.02 974.53,-772.54 1002.61,-759.81 1031.49,-752.45"/>
<polygon fill="black" stroke="black" points="1032.37,-755.84 1041.31,-750.15 1030.77,-749.02 1032.37,-755.84"/>
<text text-anchor="middle" x="902.5" y="-920.82" font-family="Times,serif" font-size="9.00" fill="grey">association</text>
</g>
<!-- Queue -->
<g id="node33" class="node">
<title>Queue</title>
<polygon fill="lightgrey" stroke="black" points="1136,-1008.02 1136,-1028.02 1190,-1028.02 1190,-1008.02 1136,-1008.02"/>
<text text-anchor="middle" x="1163" y="-1015.22" font-family="Helvetica,sans-Serif" font-size="11.00">Queue</text>
</g>
<!-- Tap&#45;&gt;Queue -->
<g id="edge25" class="edge">
<title>Tap&#45;&gt;Queue</title>
<path fill="none" stroke="black" d="M813.65,-942.7C826,-948.18 840.32,-955.98 851,-966.02 862.33,-976.68 855.77,-987.86 869,-996.02 910.93,-1021.89 1056.41,-1021.24 1125.29,-1019.37"/>
<polygon fill="black" stroke="black" points="1125.77,-1022.86 1135.66,-1019.06 1125.56,-1015.86 1125.77,-1022.86"/>
<text text-anchor="middle" x="902.5" y="-1015.82" font-family="Times,serif" font-size="9.00" fill="grey">generalization</text>
</g>
<!-- TapRegistry -->
<g id="node16" class="node">
<title>TapRegistry</title>
<polygon fill="lightgrey" stroke="black" points="0,-639.02 0,-659.02 81,-659.02 81,-639.02 0,-639.02"/>
<text text-anchor="middle" x="40.5" y="-646.22" font-family="Helvetica,sans-Serif" font-size="11.00">TapRegistry</text>
</g>
<!-- TapRegistry&#45;&gt;AbstractConsumer -->
<g id="edge36" class="edge">
<title>TapRegistry&#45;&gt;AbstractConsumer</title>
<path fill="none" stroke="black" d="M80.19,-638.96C108.67,-632.08 148.46,-623.6 184,-620.02 244.58,-613.92 260.41,-614.01 321,-620.02 359.72,-623.87 402.05,-631.81 437.72,-639.61"/>
<polygon fill="black" stroke="black" points="437.07,-643.05 447.59,-641.8 438.59,-636.22 437.07,-643.05"/>
<text text-anchor="middle" x="252.5" y="-622.82" font-family="Times,serif" font-size="9.00" fill="grey">association</text>
</g>
<!-- TapRegistry&#45;&gt;AbstractProducer -->
<g id="edge39" class="edge">
<title>TapRegistry&#45;&gt;AbstractProducer</title>
<path fill="none" stroke="black" d="M57.77,-638.93C101.31,-612.62 224.93,-542.42 339,-520.02 382.69,-511.45 433.21,-517.14 469.84,-524"/>
<polygon fill="black" stroke="black" points="469.3,-527.46 479.79,-525.96 470.65,-520.59 469.3,-527.46"/>
<text text-anchor="middle" x="252.5" y="-573.82" font-family="Times,serif" font-size="9.00" fill="grey">association</text>
</g>
<!-- TapRegistry&#45;&gt;AbstractWorker -->
<g id="edge43" class="edge">
<title>TapRegistry&#45;&gt;AbstractWorker</title>
<path fill="none" stroke="black" d="M47.88,-659.39C65.46,-686.82 117.74,-761.06 184,-788.02 257.37,-817.88 346.44,-803.99 414.51,-784.05"/>
<polygon fill="black" stroke="black" points="415.83,-787.31 424.39,-781.07 413.81,-780.61 415.83,-787.31"/>
<text text-anchor="middle" x="252.5" y="-807.82" font-family="Times,serif" font-size="9.00" fill="grey">association</text>
</g>
<!-- Taps -->
<g id="node17" class="node">
<title>Taps</title>
<polygon fill="lightgrey" stroke="black" points="225.5,-678.02 225.5,-698.02 279.5,-698.02 279.5,-678.02 225.5,-678.02"/>
<text text-anchor="middle" x="252.5" y="-685.22" font-family="Helvetica,sans-Serif" font-size="11.00">Taps</text>
</g>
<!-- TapRegistry&#45;&gt;Taps -->
<g id="edge27" class="edge">
<title>TapRegistry&#45;&gt;Taps</title>
<path fill="none" stroke="black" d="M81,-659.06C87.02,-660.47 93.16,-661.83 99,-663.02 138.68,-671.09 184.58,-678.34 215.58,-682.92"/>
<polygon fill="black" stroke="black" points="215.08,-686.39 225.49,-684.38 216.1,-679.46 215.08,-686.39"/>
<text text-anchor="middle" x="132.5" y="-677.82" font-family="Times,serif" font-size="9.00" fill="grey">generalization</text>
</g>
<!-- ConcurrentSkipListSet -->
<g id="node35" class="node">
<title>ConcurrentSkipListSet</title>
<polygon fill="lightgrey" stroke="black" points="184,-639.02 184,-659.02 321,-659.02 321,-639.02 184,-639.02"/>
<text text-anchor="middle" x="252.5" y="-646.22" font-family="Helvetica,sans-Serif" font-size="11.00">ConcurrentSkipListSet</text>
</g>
<!-- TapRegistry&#45;&gt;ConcurrentSkipListSet -->
<g id="edge26" class="edge">
<title>TapRegistry&#45;&gt;ConcurrentSkipListSet</title>
<path fill="none" stroke="black" d="M81.49,-649.02C107.59,-649.02 142.51,-649.02 173.92,-649.02"/>
<polygon fill="black" stroke="black" points="173.97,-652.52 183.97,-649.02 173.97,-645.52 173.97,-652.52"/>
<text text-anchor="middle" x="132.5" y="-651.82" font-family="Times,serif" font-size="9.00" fill="grey">generalization</text>
</g>
<!-- Taps&#45;&gt;AbstractConsumer -->
<g id="edge35" class="edge">
<title>Taps&#45;&gt;AbstractConsumer</title>
<path fill="none" stroke="black" d="M279.74,-681.58C292.35,-678.24 307.6,-673.86 321,-669.02 329.23,-666.05 330.44,-662.86 339,-661.02 370.69,-654.21 406.22,-652.71 437.39,-653.35"/>
<polygon fill="black" stroke="black" points="437.68,-656.86 447.78,-653.65 437.88,-649.86 437.68,-656.86"/>
<text text-anchor="middle" x="372.5" y="-663.82" font-family="Times,serif" font-size="9.00" fill="grey">association</text>
</g>
<!-- Taps&#45;&gt;AbstractProducer -->
<g id="edge38" class="edge">
<title>Taps&#45;&gt;AbstractProducer</title>
<path fill="none" stroke="black" d="M279.58,-687.34C293.9,-685.53 310.77,-680.78 321,-669.02 359.86,-624.35 294.5,-576.08 339,-537.02 355.9,-522.19 410.36,-523.58 455.25,-527.72"/>
<polygon fill="black" stroke="black" points="454.96,-531.21 465.25,-528.7 455.64,-524.24 454.96,-531.21"/>
<text text-anchor="middle" x="372.5" y="-539.82" font-family="Times,serif" font-size="9.00" fill="grey">association</text>
</g>
<!-- Taps&#45;&gt;AbstractWorker -->
<g id="edge42" class="edge">
<title>Taps&#45;&gt;AbstractWorker</title>
<path fill="none" stroke="black" d="M279.6,-690.68C310.12,-694.05 362.07,-700.57 406,-710.02 408.66,-710.59 411.34,-711.19 414.05,-711.82"/>
<polygon fill="black" stroke="black" points="413.37,-715.25 423.91,-714.17 415,-708.45 413.37,-715.25"/>
<text text-anchor="middle" x="372.5" y="-712.82" font-family="Times,serif" font-size="9.00" fill="grey">association</text>
</g>
<!-- Set -->
<g id="node34" class="node">
<title>Set</title>
<polygon fill="lightgrey" stroke="black" points="494.5,-592.02 494.5,-612.02 548.5,-612.02 548.5,-592.02 494.5,-592.02"/>
<text text-anchor="middle" x="521.5" y="-599.22" font-family="Helvetica,sans-Serif" font-size="11.00">Set</text>
</g>
<!-- Taps&#45;&gt;Set -->
<g id="edge28" class="edge">
<title>Taps&#45;&gt;Set</title>
<path fill="none" stroke="black" d="M279.59,-685.33C293.05,-682.85 309.1,-678.11 321,-669.02 333.36,-659.58 326.31,-648 339,-639.02 382.17,-608.48 444.76,-601.91 484.01,-601.12"/>
<polygon fill="black" stroke="black" points="484.22,-604.61 494.19,-601.03 484.16,-597.61 484.22,-604.61"/>
<text text-anchor="middle" x="372.5" y="-641.82" font-family="Times,serif" font-size="9.00" fill="grey">generalization</text>
</g>
<!-- Worker&#45;&gt;Egress -->
<g id="edge32" class="edge">
<title>Worker&#45;&gt;Egress</title>
<path fill="none" stroke="black" d="M802.24,-732.82C817.11,-721.67 839.48,-702.39 851,-680.02 873.69,-635.99 839.11,-609.53 869,-570.02 892.11,-539.49 973.75,-502.61 1045,-474.81"/>
<polygon fill="black" stroke="black" points="1046.46,-477.99 1054.52,-471.12 1043.94,-471.46 1046.46,-477.99"/>
<text text-anchor="middle" x="902.5" y="-572.82" font-family="Times,serif" font-size="9.00" fill="grey">generalization</text>
</g>
<!-- Worker&#45;&gt;Ingress -->
<g id="edge30" class="edge">
<title>Worker&#45;&gt;Ingress</title>
<path fill="none" stroke="black" d="M814.73,-743.24C859.76,-743.6 952.52,-744.34 1030.85,-744.97"/>
<polygon fill="black" stroke="black" points="1031.28,-748.48 1041.31,-745.06 1031.34,-741.48 1031.28,-748.48"/>
<text text-anchor="middle" x="902.5" y="-746.82" font-family="Times,serif" font-size="9.00" fill="grey">generalization</text>
</g>
<!-- Worker&#45;&gt;Process -->
<g id="edge31" class="edge">
<title>Worker&#45;&gt;Process</title>
<path fill="none" stroke="black" d="M814.76,-750.22C826.64,-754.21 840.27,-760.02 851,-768.02 861.4,-775.78 857.72,-784.6 869,-791.02 891.92,-804.08 917.46,-813.43 943.64,-820.02"/>
<polygon fill="black" stroke="black" points="943.16,-823.51 953.69,-822.42 944.78,-816.7 943.16,-823.51"/>
<text text-anchor="middle" x="902.5" y="-819.82" font-family="Times,serif" font-size="9.00" fill="grey">generalization</text>
</g>
<!-- Worker&#45;&gt;Source -->
<g id="edge33" class="edge">
<title>Worker&#45;&gt;Source</title>
<path fill="none" stroke="black" d="M802.6,-733C817.76,-721.99 840.37,-702.82 851,-680.02 871.27,-636.57 839.28,-502.65 869,-465.02 888.43,-440.43 913.96,-465.31 936,-443.02 954.68,-424.13 933.35,-402.74 954,-386.02 1002.79,-346.54 1080.64,-351.29 1125.99,-358.52"/>
<polygon fill="black" stroke="black" points="1125.51,-361.99 1135.96,-360.23 1126.7,-355.09 1125.51,-361.99"/>
<text text-anchor="middle" x="902.5" y="-467.82" font-family="Times,serif" font-size="9.00" fill="grey">generalization</text>
</g>
<!-- Worker&#45;&gt;Sink -->
<g id="edge29" class="edge">
<title>Worker&#45;&gt;Sink</title>
<path fill="none" stroke="black" d="M814.77,-747.96C827.38,-751.55 841.6,-757.67 851,-768.02 870.57,-789.59 848.81,-810.03 869,-831.02 890.73,-853.61 907.81,-839.32 936,-853.02 944.65,-857.23 945.25,-861.03 954,-865.02 1011.44,-891.21 1083.44,-907.63 1125.91,-915.78"/>
<polygon fill="black" stroke="black" points="1125.31,-919.23 1135.78,-917.63 1126.6,-912.35 1125.31,-919.23"/>
<text text-anchor="middle" x="902.5" y="-855.82" font-family="Times,serif" font-size="9.00" fill="grey">generalization</text>
</g>
<!-- Packet -->
<g id="node20" class="node">
<title>Packet</title>
<polygon fill="lightgrey" stroke="black" points="759.5,-591.02 759.5,-611.02 813.5,-611.02 813.5,-591.02 759.5,-591.02"/>
<text text-anchor="middle" x="786.5" y="-598.22" font-family="Helvetica,sans-Serif" font-size="11.00">Packet</text>
</g>
<!-- Packet&#45;&gt;Egress -->
<g id="edge44" class="edge">
<title>Packet&#45;&gt;Egress</title>
<path fill="none" stroke="black" d="M813.72,-599.73C826.87,-597.66 841.88,-592.85 851,-582.02 893.98,-531.01 819.09,-477.27 869,-433.02 888.13,-416.06 937.41,-412.42 990.22,-414.26"/>
<polygon fill="black" stroke="black" points="990.33,-417.76 1000.47,-414.68 990.62,-410.77 990.33,-417.76"/>
<text text-anchor="middle" x="902.5" y="-435.82" font-family="Times,serif" font-size="9.00" fill="grey">association</text>
</g>
<!-- Packet&#45;&gt;Ingress -->
<g id="edge47" class="edge">
<title>Packet&#45;&gt;Ingress</title>
<path fill="none" stroke="black" d="M813.68,-595.58C850.66,-588.49 915.92,-578.28 936,-590.02 950.09,-598.26 942.61,-610.34 954,-622.02 986.2,-655.04 1029,-682.53 1067.4,-703.17"/>
<polygon fill="black" stroke="black" points="1066.07,-706.43 1076.54,-708 1069.34,-700.24 1066.07,-706.43"/>
<text text-anchor="middle" x="902.5" y="-592.82" font-family="Times,serif" font-size="9.00" fill="grey">association</text>
</g>
<!-- Packet&#45;&gt;Inject -->
<g id="edge49" class="edge">
<title>Packet&#45;&gt;Inject</title>
<path fill="none" stroke="black" d="M813.65,-599.98C826.94,-598 842.12,-593.19 851,-582.02 890.09,-532.88 823.5,-343.3 869,-300.02 890.39,-279.68 952.59,-276.96 1014.21,-280.06"/>
<polygon fill="black" stroke="black" points="1014.3,-283.57 1024.48,-280.63 1014.69,-276.58 1014.3,-283.57"/>
<text text-anchor="middle" x="902.5" y="-302.82" font-family="Times,serif" font-size="9.00" fill="grey">association</text>
</g>
<!-- Packet&#45;&gt;Process -->
<g id="edge55" class="edge">
<title>Packet&#45;&gt;Process</title>
<path fill="none" stroke="black" d="M807.77,-611.15C820.97,-618.36 838.09,-628.89 851,-641.02 860.98,-650.4 857.95,-657.93 869,-666.02 894.29,-684.54 915.55,-664.27 936,-688.02 967.18,-724.23 920.19,-760.26 954,-794.02 954.68,-794.7 955.37,-795.37 956.06,-796.03"/>
<polygon fill="black" stroke="black" points="953.95,-798.82 963.8,-802.71 958.52,-793.52 953.95,-798.82"/>
<text text-anchor="middle" x="902.5" y="-690.82" font-family="Times,serif" font-size="9.00" fill="grey">association</text>
</g>
<!-- Connections -->
<g id="node21" class="node">
<title>Connections</title>
<polygon fill="lightgrey" stroke="black" points="210.5,-717.02 210.5,-737.02 294.5,-737.02 294.5,-717.02 210.5,-717.02"/>
<text text-anchor="middle" x="252.5" y="-724.22" font-family="Helvetica,sans-Serif" font-size="11.00">Connections</text>
</g>
<!-- Connections&#45;&gt;AbstractProducer -->
<g id="edge37" class="edge">
<title>Connections&#45;&gt;AbstractProducer</title>
<path fill="none" stroke="black" d="M294.75,-723.15C304.58,-720.32 314.19,-715.65 321,-708.02 354.28,-670.73 306.66,-635.13 339,-597.02 367.69,-563.21 415.76,-548.08 455.22,-541.33"/>
<polygon fill="black" stroke="black" points="455.97,-544.76 465.31,-539.75 454.89,-537.84 455.97,-544.76"/>
<text text-anchor="middle" x="372.5" y="-599.82" font-family="Times,serif" font-size="9.00" fill="grey">association</text>
</g>
<!-- Connections&#45;&gt;AbstractWorker -->
<g id="edge40" class="edge">
<title>Connections&#45;&gt;AbstractWorker</title>
<path fill="none" stroke="black" d="M294.65,-725.48C325.37,-724.7 368.36,-724.41 406,-727.02 408.54,-727.2 411.11,-727.4 413.7,-727.62"/>
<polygon fill="black" stroke="black" points="413.49,-731.11 423.77,-728.54 414.14,-724.14 413.49,-731.11"/>
<text text-anchor="middle" x="372.5" y="-729.82" font-family="Times,serif" font-size="9.00" fill="grey">association</text>
</g>
<!-- Ports -->
<g id="node22" class="node">
<title>Ports</title>
<polygon fill="lightgrey" stroke="black" points="225.5,-758.02 225.5,-778.02 279.5,-778.02 279.5,-758.02 225.5,-758.02"/>
<text text-anchor="middle" x="252.5" y="-765.22" font-family="Helvetica,sans-Serif" font-size="11.00">Ports</text>
</g>
<!-- Ports&#45;&gt;AbstractConsumer -->
<g id="edge34" class="edge">
<title>Ports&#45;&gt;AbstractConsumer</title>
<path fill="none" stroke="black" d="M279.56,-765.62C317.86,-761.62 386.86,-752.46 406,-737.02 421.49,-724.53 409.54,-709.69 424,-696.02 428.41,-691.85 433.35,-688.16 438.6,-684.88"/>
<polygon fill="black" stroke="black" points="440.7,-687.71 447.69,-679.75 437.26,-681.62 440.7,-687.71"/>
<text text-anchor="middle" x="372.5" y="-759.82" font-family="Times,serif" font-size="9.00" fill="grey">association</text>
</g>
<!-- Ports&#45;&gt;AbstractWorker -->
<g id="edge41" class="edge">
<title>Ports&#45;&gt;AbstractWorker</title>
<path fill="none" stroke="black" d="M279.69,-768.79C296.61,-769.25 319.11,-769.79 339,-770.02 368.78,-770.37 376.42,-773.46 406,-770.02 408.57,-769.72 411.17,-769.39 413.79,-769.02"/>
<polygon fill="black" stroke="black" points="414.6,-772.43 423.95,-767.45 413.54,-765.52 414.6,-772.43"/>
<text text-anchor="middle" x="372.5" y="-773.82" font-family="Times,serif" font-size="9.00" fill="grey">association</text>
</g>
<!-- Node -->
<g id="node27" class="node">
<title>Node</title>
<polygon fill="lightgrey" stroke="black" points="759.5,-149.02 759.5,-169.02 813.5,-169.02 813.5,-149.02 759.5,-149.02"/>
<text text-anchor="middle" x="786.5" y="-156.22" font-family="Helvetica,sans-Serif" font-size="11.00">Node</text>
</g>
<!-- Node&#45;&gt;Egress -->
<g id="edge45" class="edge">
<title>Node&#45;&gt;Egress</title>
<path fill="none" stroke="black" d="M790.65,-169.13C799.3,-195.46 825.65,-267.14 869,-311.02 892.9,-335.22 912.71,-323.23 936,-348.02 948.8,-361.64 939.41,-374.34 954,-386.02 965.21,-395 977.8,-402.34 991.09,-408.33"/>
<polygon fill="black" stroke="black" points="989.83,-411.59 1000.4,-412.26 992.55,-405.14 989.83,-411.59"/>
<text text-anchor="middle" x="902.5" y="-350.82" font-family="Times,serif" font-size="9.00" fill="grey">association</text>
</g>
<!-- Node&#45;&gt;NetworkBuilder -->
<g id="edge50" class="edge">
<title>Node&#45;&gt;NetworkBuilder</title>
<path fill="none" stroke="black" d="M813.53,-159.08C895.79,-158.98 1157.37,-156.53 1372,-131.02 1411.4,-126.34 1453.61,-119.32 1492.92,-111.92"/>
<polygon fill="black" stroke="black" points="1493.68,-115.34 1502.84,-110.03 1492.37,-108.46 1493.68,-115.34"/>
<text text-anchor="middle" x="1163" y="-160.82" font-family="Times,serif" font-size="9.00" fill="grey">association</text>
</g>
<!-- Node&#45;&gt;Network -->
<g id="edge53" class="edge">
<title>Node&#45;&gt;Network</title>
<path fill="none" stroke="black" d="M813.76,-150.61C829.65,-145.68 850.37,-139.57 869,-135.02 895.23,-128.62 922.92,-122.47 950.39,-116.72"/>
<polygon fill="black" stroke="black" points="951.42,-120.08 960.5,-114.63 949.99,-113.23 951.42,-120.08"/>
<text text-anchor="middle" x="902.5" y="-137.82" font-family="Times,serif" font-size="9.00" fill="grey">association</text>
</g>
<!-- NodeId -->
<g id="node28" class="node">
<title>NodeId</title>
<polygon fill="lightgrey" stroke="black" points="759,-32.02 759,-52.02 814,-52.02 814,-32.02 759,-32.02"/>
<text text-anchor="middle" x="786.5" y="-39.22" font-family="Helvetica,sans-Serif" font-size="11.00">NodeId</text>
</g>
<!-- NodeId&#45;&gt;NetworkBuilder -->
<g id="edge52" class="edge">
<title>NodeId&#45;&gt;NetworkBuilder</title>
<path fill="none" stroke="black" d="M814.15,-36.13C846.88,-29.22 904.2,-18.18 954,-14.02 1139.13,1.44 1187.41,6.99 1372,-14.02 1423.47,-19.88 1479.3,-31.67 1527.29,-43.54"/>
<polygon fill="black" stroke="black" points="1526.54,-46.96 1537.1,-46 1528.24,-40.17 1526.54,-46.96"/>
<text text-anchor="middle" x="1163" y="-16.82" font-family="Times,serif" font-size="9.00" fill="grey">association</text>
</g>
<!-- NodeId&#45;&gt;Network -->
<g id="edge54" class="edge">
<title>NodeId&#45;&gt;Network</title>
<path fill="none" stroke="black" d="M814.13,-44.58C844.1,-47.46 895.75,-52.43 950.23,-57.67"/>
<polygon fill="black" stroke="black" points="950.14,-61.17 960.42,-58.65 950.81,-54.2 950.14,-61.17"/>
<text text-anchor="middle" x="902.5" y="-58.82" font-family="Times,serif" font-size="9.00" fill="grey">association</text>
</g>
</g>
</svg>
