<?xml version="1.0" encoding="UTF-8" standalone="no"?>
<!DOCTYPE svg PUBLIC "-//W3C//DTD SVG 1.1//EN"
 "http://www.w3.org/Graphics/SVG/1.1/DTD/svg11.dtd">
<!-- Generated by graphviz version 2.43.0 (0)
 -->
<!-- Title: graph Pages: 1 -->
<svg width="348pt" height="770pt"
 viewBox="0.00 0.00 348.00 770.00" xmlns="http://www.w3.org/2000/svg" xmlns:xlink="http://www.w3.org/1999/xlink">
<g id="graph0" class="graph" transform="scale(1 1) rotate(0) translate(4 766)">
<title>graph</title>
<polygon fill="white" stroke="transparent" points="-4,4 -4,-766 344,-766 344,4 -4,4"/>
<!-- Class01 -->
<g id="node1" class="node">
<title>Class01</title>
<polygon fill="lightgrey" stroke="black" points="162,-0.5 162,-20.5 221,-20.5 221,-0.5 162,-0.5"/>
<text text-anchor="middle" x="191.5" y="-7.7" font-family="Helvetica,sans-Serif" font-size="11.00">Class01</text>
</g>
<!-- Class02 -->
<g id="node2" class="node">
<title>Class02</title>
<polygon fill="lightgrey" stroke="black" points="0,-0.5 0,-20.5 59,-20.5 59,-0.5 0,-0.5"/>
<text text-anchor="middle" x="29.5" y="-7.7" font-family="Helvetica,sans-Serif" font-size="11.00">Class02</text>
</g>
<!-- Class02&#45;&gt;Class01 -->
<g id="edge1" class="edge">
<title>Class02&#45;&gt;Class01</title>
<path fill="none" stroke="black" d="M59.1,-10.5C84.96,-10.5 123.24,-10.5 151.82,-10.5"/>
<polygon fill="black" stroke="black" points="151.87,-14 161.87,-10.5 151.87,-7 151.87,-14"/>
<text text-anchor="middle" x="110.5" y="-13.3" font-family="Times,serif" font-size="9.00" fill="grey">generalization</text>
</g>
<!-- Class03 -->
<g id="node3" class="node">
<title>Class03</title>
<polygon fill="lightgrey" stroke="black" points="162,-39.5 162,-59.5 221,-59.5 221,-39.5 162,-39.5"/>
<text text-anchor="middle" x="191.5" y="-46.7" font-family="Helvetica,sans-Serif" font-size="11.00">Class03</text>
</g>
<!-- Class04 -->
<g id="node4" class="node">
<title>Class04</title>
<polygon fill="lightgrey" stroke="black" points="0,-39.5 0,-59.5 59,-59.5 59,-39.5 0,-39.5"/>
<text text-anchor="middle" x="29.5" y="-46.7" font-family="Helvetica,sans-Serif" font-size="11.00">Class04</text>
</g>
<!-- Class04&#45;&gt;Class03 -->
<g id="edge5" class="edge">
<title>Class04&#45;&gt;Class03</title>
<path fill="none" stroke="black" d="M59.1,-49.5C84.96,-49.5 123.24,-49.5 151.82,-49.5"/>
<polygon fill="black" stroke="black" points="151.87,-53 161.87,-49.5 151.87,-46 151.87,-53"/>
<text text-anchor="middle" x="110.5" y="-52.3" font-family="Times,serif" font-size="9.00" fill="grey">composite</text>
</g>
<!-- Class05 -->
<g id="node5" class="node">
<title>Class05</title>
<polygon fill="lightgrey" stroke="black" points="162,-78.5 162,-98.5 221,-98.5 221,-78.5 162,-78.5"/>
<text text-anchor="middle" x="191.5" y="-85.7" font-family="Helvetica,sans-Serif" font-size="11.00">Class05</text>
</g>
<!-- Class06 -->
<g id="node6" class="node">
<title>Class06</title>
<polygon fill="lightgrey" stroke="black" points="0,-78.5 0,-98.5 59,-98.5 59,-78.5 0,-78.5"/>
<text text-anchor="middle" x="29.5" y="-85.7" font-family="Helvetica,sans-Serif" font-size="11.00">Class06</text>
</g>
<!-- Class06&#45;&gt;Class05 -->
<g id="edge6" class="edge">
<title>Class06&#45;&gt;Class05</title>
<path fill="none" stroke="black" d="M59.1,-88.5C84.96,-88.5 123.24,-88.5 151.82,-88.5"/>
<polygon fill="black" stroke="black" points="151.87,-92 161.87,-88.5 151.87,-85 151.87,-92"/>
<text text-anchor="middle" x="110.5" y="-91.3" font-family="Times,serif" font-size="9.00" fill="grey">aggregate</text>
</g>
<!-- Class07 -->
<g id="node7" class="node">
<title>Class07</title>
<polygon fill="lightgrey" stroke="black" points="162,-117.5 162,-137.5 221,-137.5 221,-117.5 162,-117.5"/>
<text text-anchor="middle" x="191.5" y="-124.7" font-family="Helvetica,sans-Serif" font-size="11.00">Class07</text>
</g>
<!-- Class08 -->
<g id="node8" class="node">
<title>Class08</title>
<polygon fill="lightgrey" stroke="black" points="0,-117.5 0,-137.5 59,-137.5 59,-117.5 0,-117.5"/>
<text text-anchor="middle" x="29.5" y="-124.7" font-family="Helvetica,sans-Serif" font-size="11.00">Class08</text>
</g>
<!-- Class08&#45;&gt;Class07 -->
<g id="edge7" class="edge">
<title>Class08&#45;&gt;Class07</title>
<path fill="none" stroke="black" d="M59.1,-127.5C84.96,-127.5 123.24,-127.5 151.82,-127.5"/>
<polygon fill="black" stroke="black" points="151.87,-131 161.87,-127.5 151.87,-124 151.87,-131"/>
</g>
<!-- Class09 -->
<g id="node9" class="node">
<title>Class09</title>
<polygon fill="lightgrey" stroke="black" points="162,-156.5 162,-176.5 221,-176.5 221,-156.5 162,-156.5"/>
<text text-anchor="middle" x="191.5" y="-163.7" font-family="Helvetica,sans-Serif" font-size="11.00">Class09</text>
</g>
<!-- Class10 -->
<g id="node10" class="node">
<title>Class10</title>
<polygon fill="lightgrey" stroke="black" points="0,-156.5 0,-176.5 59,-176.5 59,-156.5 0,-156.5"/>
<text text-anchor="middle" x="29.5" y="-163.7" font-family="Helvetica,sans-Serif" font-size="11.00">Class10</text>
</g>
<!-- Class10&#45;&gt;Class09 -->
<g id="edge8" class="edge">
<title>Class10&#45;&gt;Class09</title>
<path fill="none" stroke="black" d="M59.1,-166.5C84.96,-166.5 123.24,-166.5 151.82,-166.5"/>
<polygon fill="black" stroke="black" points="151.87,-170 161.87,-166.5 151.87,-163 151.87,-170"/>
</g>
<!-- Class11 -->
<g id="node11" class="node">
<title>Class11</title>
<polygon fill="lightgrey" stroke="black" points="162,-195.5 162,-215.5 221,-215.5 221,-195.5 162,-195.5"/>
<text text-anchor="middle" x="191.5" y="-202.7" font-family="Helvetica,sans-Serif" font-size="11.00">Class11</text>
</g>
<!-- Class12 -->
<g id="node12" class="node">
<title>Class12</title>
<polygon fill="lightgrey" stroke="black" points="0,-195.5 0,-215.5 59,-215.5 59,-195.5 0,-195.5"/>
<text text-anchor="middle" x="29.5" y="-202.7" font-family="Helvetica,sans-Serif" font-size="11.00">Class12</text>
</g>
<!-- Class12&#45;&gt;Class11 -->
<g id="edge2" class="edge">
<title>Class12&#45;&gt;Class11</title>
<path fill="none" stroke="black" d="M59.1,-205.5C84.96,-205.5 123.24,-205.5 151.82,-205.5"/>
<polygon fill="black" stroke="black" points="151.87,-209 161.87,-205.5 151.87,-202 151.87,-209"/>
<text text-anchor="middle" x="110.5" y="-208.3" font-family="Times,serif" font-size="9.00" fill="grey">generalization</text>
</g>
<!-- Class13 -->
<g id="node13" class="node">
<title>Class13</title>
<polygon fill="lightgrey" stroke="black" points="162,-234.5 162,-254.5 221,-254.5 221,-234.5 162,-234.5"/>
<text text-anchor="middle" x="191.5" y="-241.7" font-family="Helvetica,sans-Serif" font-size="11.00">Class13</text>
</g>
<!-- Class14 -->
<g id="node14" class="node">
<title>Class14</title>
<polygon fill="lightgrey" stroke="black" points="0,-234.5 0,-254.5 59,-254.5 59,-234.5 0,-234.5"/>
<text text-anchor="middle" x="29.5" y="-241.7" font-family="Helvetica,sans-Serif" font-size="11.00">Class14</text>
</g>
<!-- Class14&#45;&gt;Class13 -->
<g id="edge9" class="edge">
<title>Class14&#45;&gt;Class13</title>
<path fill="none" stroke="black" d="M59.1,-244.5C84.96,-244.5 123.24,-244.5 151.82,-244.5"/>
<polygon fill="black" stroke="black" points="151.87,-248 161.87,-244.5 151.87,-241 151.87,-248"/>
</g>
<!-- Class15 -->
<g id="node15" class="node">
<title>Class15</title>
<polygon fill="lightgrey" stroke="black" points="162,-273.5 162,-293.5 221,-293.5 221,-273.5 162,-273.5"/>
<text text-anchor="middle" x="191.5" y="-280.7" font-family="Helvetica,sans-Serif" font-size="11.00">Class15</text>
</g>
<!-- Class16 -->
<g id="node16" class="node">
<title>Class16</title>
<polygon fill="lightgrey" stroke="black" points="0,-273.5 0,-293.5 59,-293.5 59,-273.5 0,-273.5"/>
<text text-anchor="middle" x="29.5" y="-280.7" font-family="Helvetica,sans-Serif" font-size="11.00">Class16</text>
</g>
<!-- Class16&#45;&gt;Class15 -->
<g id="edge10" class="edge">
<title>Class16&#45;&gt;Class15</title>
<path fill="none" stroke="black" d="M59.1,-283.5C84.96,-283.5 123.24,-283.5 151.82,-283.5"/>
<polygon fill="black" stroke="black" points="151.87,-287 161.87,-283.5 151.87,-280 151.87,-287"/>
</g>
<!-- Class17 -->
<g id="node17" class="node">
<title>Class17</title>
<polygon fill="lightgrey" stroke="black" points="0,-312.5 0,-332.5 59,-332.5 59,-312.5 0,-312.5"/>
<text text-anchor="middle" x="29.5" y="-319.7" font-family="Helvetica,sans-Serif" font-size="11.00">Class17</text>
</g>
<!-- Class18 -->
<g id="node18" class="node">
<title>Class18</title>
<polygon fill="lightgrey" stroke="black" points="162,-312.5 162,-332.5 221,-332.5 221,-312.5 162,-312.5"/>
<text text-anchor="middle" x="191.5" y="-319.7" font-family="Helvetica,sans-Serif" font-size="11.00">Class18</text>
</g>
<!-- Class17&#45;&gt;Class18 -->
<g id="edge3" class="edge">
<title>Class17&#45;&gt;Class18</title>
<path fill="none" stroke="black" d="M59.1,-322.5C84.96,-322.5 123.24,-322.5 151.82,-322.5"/>
<polygon fill="black" stroke="black" points="151.87,-326 161.87,-322.5 151.87,-319 151.87,-326"/>
<text text-anchor="middle" x="110.5" y="-325.3" font-family="Times,serif" font-size="9.00" fill="grey">generalization</text>
</g>
<!-- Class19 -->
<g id="node19" class="node">
<title>Class19</title>
<polygon fill="lightgrey" stroke="black" points="162,-351.5 162,-371.5 221,-371.5 221,-351.5 162,-351.5"/>
<text text-anchor="middle" x="191.5" y="-358.7" font-family="Helvetica,sans-Serif" font-size="11.00">Class19</text>
</g>
<!-- Class20 -->
<g id="node20" class="node">
<title>Class20</title>
<polygon fill="lightgrey" stroke="black" points="0,-351.5 0,-371.5 59,-371.5 59,-351.5 0,-351.5"/>
<text text-anchor="middle" x="29.5" y="-358.7" font-family="Helvetica,sans-Serif" font-size="11.00">Class20</text>
</g>
<!-- Class20&#45;&gt;Class19 -->
<g id="edge11" class="edge">
<title>Class20&#45;&gt;Class19</title>
<path fill="none" stroke="black" d="M59.1,-361.5C84.96,-361.5 123.24,-361.5 151.82,-361.5"/>
<polygon fill="black" stroke="black" points="151.87,-365 161.87,-361.5 151.87,-358 151.87,-365"/>
</g>
<!-- Class21 -->
<g id="node21" class="node">
<title>Class21</title>
<polygon fill="lightgrey" stroke="black" points="162,-390.5 162,-410.5 221,-410.5 221,-390.5 162,-390.5"/>
<text text-anchor="middle" x="191.5" y="-397.7" font-family="Helvetica,sans-Serif" font-size="11.00">Class21</text>
</g>
<!-- Class22 -->
<g id="node22" class="node">
<title>Class22</title>
<polygon fill="lightgrey" stroke="black" points="0,-390.5 0,-410.5 59,-410.5 59,-390.5 0,-390.5"/>
<text text-anchor="middle" x="29.5" y="-397.7" font-family="Helvetica,sans-Serif" font-size="11.00">Class22</text>
</g>
<!-- Class22&#45;&gt;Class21 -->
<g id="edge12" class="edge">
<title>Class22&#45;&gt;Class21</title>
<path fill="none" stroke="black" d="M59.1,-400.5C84.96,-400.5 123.24,-400.5 151.82,-400.5"/>
<polygon fill="black" stroke="black" points="151.87,-404 161.87,-400.5 151.87,-397 151.87,-404"/>
</g>
<!-- Class23 -->
<g id="node23" class="node">
<title>Class23</title>
<polygon fill="lightgrey" stroke="black" points="162,-429.5 162,-449.5 221,-449.5 221,-429.5 162,-429.5"/>
<text text-anchor="middle" x="191.5" y="-436.7" font-family="Helvetica,sans-Serif" font-size="11.00">Class23</text>
</g>
<!-- Class24 -->
<g id="node24" class="node">
<title>Class24</title>
<polygon fill="lightgrey" stroke="black" points="0,-429.5 0,-449.5 59,-449.5 59,-429.5 0,-429.5"/>
<text text-anchor="middle" x="29.5" y="-436.7" font-family="Helvetica,sans-Serif" font-size="11.00">Class24</text>
</g>
<!-- Class24&#45;&gt;Class23 -->
<g id="edge13" class="edge">
<title>Class24&#45;&gt;Class23</title>
<path fill="none" stroke="black" d="M59.1,-439.5C84.96,-439.5 123.24,-439.5 151.82,-439.5"/>
<polygon fill="black" stroke="black" points="151.87,-443 161.87,-439.5 151.87,-436 151.87,-443"/>
</g>
<!-- Class25 -->
<g id="node25" class="node">
<title>Class25</title>
<polygon fill="lightgrey" stroke="black" points="162,-468.5 162,-488.5 221,-488.5 221,-468.5 162,-468.5"/>
<text text-anchor="middle" x="191.5" y="-475.7" font-family="Helvetica,sans-Serif" font-size="11.00">Class25</text>
</g>
<!-- Class26 -->
<g id="node26" class="node">
<title>Class26</title>
<polygon fill="lightgrey" stroke="black" points="0,-468.5 0,-488.5 59,-488.5 59,-468.5 0,-468.5"/>
<text text-anchor="middle" x="29.5" y="-475.7" font-family="Helvetica,sans-Serif" font-size="11.00">Class26</text>
</g>
<!-- Class26&#45;&gt;Class25 -->
<g id="edge14" class="edge">
<title>Class26&#45;&gt;Class25</title>
<path fill="none" stroke="black" d="M59.1,-478.5C84.96,-478.5 123.24,-478.5 151.82,-478.5"/>
<polygon fill="black" stroke="black" points="151.87,-482 161.87,-478.5 151.87,-475 151.87,-482"/>
</g>
<!-- Class27 -->
<g id="node27" class="node">
<title>Class27</title>
<polygon fill="lightgrey" stroke="black" points="162,-507.5 162,-527.5 221,-527.5 221,-507.5 162,-507.5"/>
<text text-anchor="middle" x="191.5" y="-514.7" font-family="Helvetica,sans-Serif" font-size="11.00">Class27</text>
</g>
<!-- Class28 -->
<g id="node28" class="node">
<title>Class28</title>
<polygon fill="lightgrey" stroke="black" points="0,-507.5 0,-527.5 59,-527.5 59,-507.5 0,-507.5"/>
<text text-anchor="middle" x="29.5" y="-514.7" font-family="Helvetica,sans-Serif" font-size="11.00">Class28</text>
</g>
<!-- Class28&#45;&gt;Class27 -->
<g id="edge15" class="edge">
<title>Class28&#45;&gt;Class27</title>
<path fill="none" stroke="black" d="M59.1,-517.5C84.96,-517.5 123.24,-517.5 151.82,-517.5"/>
<polygon fill="black" stroke="black" points="151.87,-521 161.87,-517.5 151.87,-514 151.87,-521"/>
</g>
<!-- Class29 -->
<g id="node29" class="node">
<title>Class29</title>
<polygon fill="lightgrey" stroke="black" points="162,-546.5 162,-566.5 221,-566.5 221,-546.5 162,-546.5"/>
<text text-anchor="middle" x="191.5" y="-553.7" font-family="Helvetica,sans-Serif" font-size="11.00">Class29</text>
</g>
<!-- Class30 -->
<g id="node30" class="node">
<title>Class30</title>
<polygon fill="lightgrey" stroke="black" points="0,-546.5 0,-566.5 59,-566.5 59,-546.5 0,-546.5"/>
<text text-anchor="middle" x="29.5" y="-553.7" font-family="Helvetica,sans-Serif" font-size="11.00">Class30</text>
</g>
<!-- Class30&#45;&gt;Class29 -->
<g id="edge4" class="edge">
<title>Class30&#45;&gt;Class29</title>
<path fill="none" stroke="black" d="M59.1,-556.5C84.96,-556.5 123.24,-556.5 151.82,-556.5"/>
<polygon fill="black" stroke="black" points="151.87,-560 161.87,-556.5 151.87,-553 151.87,-560"/>
<text text-anchor="middle" x="110.5" y="-559.3" font-family="Times,serif" font-size="9.00" fill="grey">generalization</text>
</g>
<!-- Class31 -->
<g id="node31" class="node">
<title>Class31</title>
<polygon fill="lightgrey" stroke="black" points="162,-585.5 162,-605.5 221,-605.5 221,-585.5 162,-585.5"/>
<text text-anchor="middle" x="191.5" y="-592.7" font-family="Helvetica,sans-Serif" font-size="11.00">Class31</text>
</g>
<!-- Class32 -->
<g id="node32" class="node">
<title>Class32</title>
<polygon fill="lightgrey" stroke="black" points="0,-585.5 0,-605.5 59,-605.5 59,-585.5 0,-585.5"/>
<text text-anchor="middle" x="29.5" y="-592.7" font-family="Helvetica,sans-Serif" font-size="11.00">Class32</text>
</g>
<!-- Class32&#45;&gt;Class31 -->
<g id="edge16" class="edge">
<title>Class32&#45;&gt;Class31</title>
<path fill="none" stroke="black" d="M59.1,-595.5C88.14,-595.5 132.83,-595.5 161.87,-595.5"/>
<text text-anchor="middle" x="110.5" y="-598.3" font-family="Times,serif" font-size="9.00" fill="grey">contains</text>
</g>
<!-- Class33 -->
<g id="node33" class="node">
<title>Class33</title>
<polygon fill="lightgrey" stroke="black" points="162,-624.5 162,-644.5 221,-644.5 221,-624.5 162,-624.5"/>
<text text-anchor="middle" x="191.5" y="-631.7" font-family="Helvetica,sans-Serif" font-size="11.00">Class33</text>
</g>
<!-- Class34 -->
<g id="node34" class="node">
<title>Class34</title>
<polygon fill="lightgrey" stroke="black" points="0,-624.5 0,-644.5 59,-644.5 59,-624.5 0,-624.5"/>
<text text-anchor="middle" x="29.5" y="-631.7" font-family="Helvetica,sans-Serif" font-size="11.00">Class34</text>
</g>
<!-- Class34&#45;&gt;Class33 -->
<g id="edge17" class="edge">
<title>Class34&#45;&gt;Class33</title>
<path fill="none" stroke="black" d="M59.1,-634.5C88.14,-634.5 132.83,-634.5 161.87,-634.5"/>
<text text-anchor="middle" x="110.5" y="-637.3" font-family="Times,serif" font-size="9.00" fill="grey">aggregation</text>
</g>
<!-- Class35 -->
<g id="node35" class="node">
<title>Class35</title>
<polygon fill="lightgrey" stroke="black" points="162,-663.5 162,-683.5 221,-683.5 221,-663.5 162,-663.5"/>
<text text-anchor="middle" x="191.5" y="-670.7" font-family="Helvetica,sans-Serif" font-size="11.00">Class35</text>
</g>
<!-- Class36 -->
<g id="node36" class="node">
<title>Class36</title>
<polygon fill="lightgrey" stroke="black" points="0,-663.5 0,-683.5 59,-683.5 59,-663.5 0,-663.5"/>
<text text-anchor="middle" x="29.5" y="-670.7" font-family="Helvetica,sans-Serif" font-size="11.00">Class36</text>
</g>
<!-- Class36&#45;&gt;Class35 -->
<g id="edge18" class="edge">
<title>Class36&#45;&gt;Class35</title>
<path fill="none" stroke="black" d="M59.1,-673.5C84.96,-673.5 123.24,-673.5 151.82,-673.5"/>
<polygon fill="black" stroke="black" points="151.87,-677 161.87,-673.5 151.87,-670 151.87,-677"/>
</g>
<!-- Car -->
<g id="node37" class="node">
<title>Car</title>
<polygon fill="lightgrey" stroke="black" points="164.5,-722.5 164.5,-742.5 218.5,-742.5 218.5,-722.5 164.5,-722.5"/>
<text text-anchor="middle" x="191.5" y="-729.7" font-family="Helvetica,sans-Serif" font-size="11.00">Car</text>
</g>
<!-- Driver -->
<g id="node38" class="node">
<title>Driver</title>
<polygon fill="lightgrey" stroke="black" points="286,-722.5 286,-742.5 340,-742.5 340,-722.5 286,-722.5"/>
<text text-anchor="middle" x="313" y="-729.7" font-family="Helvetica,sans-Serif" font-size="11.00">Driver</text>
</g>
<!-- Car&#45;&gt;Driver -->
<g id="edge19" class="edge">
<title>Car&#45;&gt;Driver</title>
<path fill="none" stroke="black" d="M218.72,-732.5C238.65,-732.5 265.93,-732.5 285.84,-732.5"/>
<text text-anchor="middle" x="253.5" y="-735.3" font-family="Times,serif" font-size="9.00" fill="grey">drives</text>
</g>
<!-- Wheel -->
<g id="node39" class="node">
<title>Wheel</title>
<polygon fill="lightgrey" stroke="black" points="2.5,-741.5 2.5,-761.5 56.5,-761.5 56.5,-741.5 2.5,-741.5"/>
<text text-anchor="middle" x="29.5" y="-748.7" font-family="Helvetica,sans-Serif" font-size="11.00">Wheel</text>
</g>
<!-- Wheel&#45;&gt;Car -->
<g id="edge20" class="edge">
<title>Wheel&#45;&gt;Car</title>
<path fill="none" stroke="black" d="M56.56,-748.41C86.32,-744.87 134.7,-739.13 164.45,-735.59"/>
<text text-anchor="middle" x="110.5" y="-749.3" font-family="Times,serif" font-size="9.00" fill="grey">have 4</text>
</g>
<!-- Person -->
<g id="node40" class="node">
<title>Person</title>
<polygon fill="lightgrey" stroke="black" points="2.5,-702.5 2.5,-722.5 56.5,-722.5 56.5,-702.5 2.5,-702.5"/>
<text text-anchor="middle" x="29.5" y="-709.7" font-family="Helvetica,sans-Serif" font-size="11.00">Person</text>
</g>
<!-- Person&#45;&gt;Car -->
<g id="edge21" class="edge">
<title>Person&#45;&gt;Car</title>
<path fill="none" stroke="black" d="M56.71,-714.78C79.75,-716.91 114.17,-720.36 144,-724.5 150.65,-725.42 157.82,-726.58 164.48,-727.72"/>
<text text-anchor="middle" x="110.5" y="-727.3" font-family="Times,serif" font-size="9.00" fill="grey">owns</text>
</g>
</g>
</svg>
