<?xml version="1.0" encoding="UTF-8" standalone="no"?>
<!DOCTYPE svg PUBLIC "-//W3C//DTD SVG 1.1//EN"
 "http://www.w3.org/Graphics/SVG/1.1/DTD/svg11.dtd">
<!-- Generated by graphviz version 2.43.0 (0)
 -->
<!-- Title: graph Pages: 1 -->
<svg width="1775pt" height="434pt"
 viewBox="0.00 0.00 1775.00 434.00" xmlns="http://www.w3.org/2000/svg" xmlns:xlink="http://www.w3.org/1999/xlink">
<g id="graph0" class="graph" transform="scale(1 1) rotate(0) translate(4 430)">
<title>graph</title>
<polygon fill="white" stroke="transparent" points="-4,4 -4,-430 1771,-430 1771,4 -4,4"/>
<!-- Auth -->
<g id="node1" class="node">
<title>Auth</title>
<polygon fill="lightgrey" stroke="black" points="1713,-230.5 1713,-250.5 1767,-250.5 1767,-230.5 1713,-230.5"/>
<text text-anchor="middle" x="1740" y="-237.7" font-family="Helvetica,sans-Serif" font-size="11.00">Auth</text>
</g>
<!-- ConfigurableClientList -->
<g id="node2" class="node">
<title>ConfigurableClientList</title>
<polygon fill="lightgrey" stroke="black" points="1483.5,-275.5 1483.5,-295.5 1620.5,-295.5 1620.5,-275.5 1483.5,-275.5"/>
<text text-anchor="middle" x="1552" y="-282.7" font-family="Helvetica,sans-Serif" font-size="11.00">ConfigurableClientList</text>
</g>
<!-- ConfigurableClientList&#45;&gt;Auth -->
<g id="edge1" class="edge">
<title>ConfigurableClientList&#45;&gt;Auth</title>
<path fill="none" stroke="black" d="M1594.74,-275.4C1627.27,-267.53 1671.96,-256.72 1702.94,-249.22"/>
<polygon fill="black" stroke="black" points="1703.99,-252.57 1712.88,-246.82 1702.34,-245.77 1703.99,-252.57"/>
<text text-anchor="middle" x="1671.5" y="-265.3" font-family="Times,serif" font-size="9.00" fill="grey">composite</text>
</g>
<!-- DataSourceClient -->
<g id="node3" class="node">
<title>DataSourceClient</title>
<polygon fill="lightgrey" stroke="black" points="990.5,-366.5 990.5,-386.5 1102.5,-386.5 1102.5,-366.5 990.5,-366.5"/>
<text text-anchor="middle" x="1046.5" y="-373.7" font-family="Helvetica,sans-Serif" font-size="11.00">DataSourceClient</text>
</g>
<!-- DataSourceClient&#45;&gt;Auth -->
<g id="edge2" class="edge">
<title>DataSourceClient&#45;&gt;Auth</title>
<path fill="none" stroke="black" d="M1097.87,-386.55C1202.47,-404.92 1448.58,-434.97 1630,-353.5 1663,-338.68 1669.98,-330.63 1695,-304.5 1708.05,-290.86 1719.99,-273 1728.13,-259.61"/>
<polygon fill="black" stroke="black" points="1731.27,-261.17 1733.34,-250.78 1725.24,-257.61 1731.27,-261.17"/>
</g>
<!-- DataSourceInfo -->
<g id="node8" class="node">
<title>DataSourceInfo</title>
<polygon fill="lightgrey" stroke="black" points="1266.5,-288.5 1266.5,-308.5 1367.5,-308.5 1367.5,-288.5 1266.5,-288.5"/>
<text text-anchor="middle" x="1317" y="-295.7" font-family="Helvetica,sans-Serif" font-size="11.00">DataSourceInfo</text>
</g>
<!-- DataSourceClient&#45;&gt;DataSourceInfo -->
<g id="edge12" class="edge">
<title>DataSourceClient&#45;&gt;DataSourceInfo</title>
<path fill="none" stroke="black" d="M1102.77,-374.21C1138.46,-371.41 1185.45,-365.21 1225,-351.5 1250.3,-342.73 1276.44,-326.65 1294.17,-314.49"/>
<polygon fill="black" stroke="black" points="1296.46,-317.16 1302.63,-308.55 1292.44,-311.43 1296.46,-317.16"/>
<text text-anchor="middle" x="1186" y="-371.3" font-family="Times,serif" font-size="9.00" fill="grey">composite</text>
</g>
<!-- ZoneWriter -->
<g id="node4" class="node">
<title>ZoneWriter</title>
<polygon fill="lightgrey" stroke="black" points="1147,-221.5 1147,-241.5 1225,-241.5 1225,-221.5 1147,-221.5"/>
<text text-anchor="middle" x="1186" y="-228.7" font-family="Helvetica,sans-Serif" font-size="11.00">ZoneWriter</text>
</g>
<!-- ZoneWriter&#45;&gt;Auth -->
<g id="edge3" class="edge">
<title>ZoneWriter&#45;&gt;Auth</title>
<path fill="none" stroke="black" d="M1225.1,-230.16C1269.31,-228.67 1344.43,-226.37 1409,-225.5 1515.84,-224.06 1641.96,-232.66 1702.7,-237.45"/>
<polygon fill="black" stroke="black" points="1702.67,-240.96 1712.92,-238.27 1703.23,-233.98 1702.67,-240.96"/>
</g>
<!-- ZoneWriter&#45;&gt;ConfigurableClientList -->
<g id="edge10" class="edge">
<title>ZoneWriter&#45;&gt;ConfigurableClientList</title>
<path fill="none" stroke="black" d="M1225.27,-237.18C1286.51,-246.26 1407.35,-264.19 1483.39,-275.47"/>
<text text-anchor="middle" x="1317" y="-264.3" font-family="Times,serif" font-size="9.00" fill="grey">«create»</text>
</g>
<!-- ZoneTableAccessor -->
<g id="node5" class="node">
<title>ZoneTableAccessor</title>
<polygon fill="lightgrey" stroke="black" points="1256,-124.5 1256,-144.5 1378,-144.5 1378,-124.5 1256,-124.5"/>
<text text-anchor="middle" x="1317" y="-131.7" font-family="Helvetica,sans-Serif" font-size="11.00">ZoneTableAccessor</text>
</g>
<!-- ZoneTableAccessor&#45;&gt;Auth -->
<g id="edge4" class="edge">
<title>ZoneTableAccessor&#45;&gt;Auth</title>
<path fill="none" stroke="black" d="M1378.25,-131.61C1471.19,-128.28 1644.11,-126.91 1695,-159.5 1716.5,-173.27 1728.3,-201.35 1734.13,-220.54"/>
<polygon fill="black" stroke="black" points="1730.81,-221.68 1736.84,-230.39 1737.56,-219.82 1730.81,-221.68"/>
</g>
<!-- ZoneTableAccessor&#45;&gt;ConfigurableClientList -->
<g id="edge11" class="edge">
<title>ZoneTableAccessor&#45;&gt;ConfigurableClientList</title>
<path fill="none" stroke="black" d="M1333.65,-144.64C1376.1,-172.15 1493.05,-247.95 1535.42,-275.4"/>
<text text-anchor="middle" x="1432.5" y="-227.3" font-family="Times,serif" font-size="9.00" fill="grey">«create»</text>
</g>
<!-- ZoneTableAccessorCache -->
<g id="node11" class="node">
<title>ZoneTableAccessorCache</title>
<polygon fill="lightgrey" stroke="black" points="1474,-65.5 1474,-85.5 1630,-85.5 1630,-65.5 1474,-65.5"/>
<text text-anchor="middle" x="1552" y="-72.7" font-family="Helvetica,sans-Serif" font-size="11.00">ZoneTableAccessorCache</text>
</g>
<!-- ZoneTableAccessor&#45;&gt;ZoneTableAccessorCache -->
<g id="edge18" class="edge">
<title>ZoneTableAccessor&#45;&gt;ZoneTableAccessorCache</title>
<path fill="none" stroke="black" d="M1357.53,-124.49C1397.19,-114.45 1458.41,-98.95 1501.33,-88.08"/>
<polygon fill="black" stroke="black" points="1502.45,-91.41 1511.28,-85.56 1500.73,-84.62 1502.45,-91.41"/>
</g>
<!-- DataSourceStatus -->
<g id="node6" class="node">
<title>DataSourceStatus</title>
<polygon fill="lightgrey" stroke="black" points="1259,-371.5 1259,-391.5 1375,-391.5 1375,-371.5 1259,-371.5"/>
<text text-anchor="middle" x="1317" y="-378.7" font-family="Helvetica,sans-Serif" font-size="11.00">DataSourceStatus</text>
</g>
<!-- DataSourceStatus&#45;&gt;Auth -->
<g id="edge5" class="edge">
<title>DataSourceStatus&#45;&gt;Auth</title>
<path fill="none" stroke="black" d="M1375.26,-379.43C1400.28,-377.67 1429.83,-374.44 1456,-368.5 1567,-343.31 1597.74,-335.63 1695,-276.5 1704.04,-271 1713.23,-263.8 1720.85,-257.27"/>
<polygon fill="black" stroke="black" points="1723.25,-259.82 1728.43,-250.58 1718.62,-254.58 1723.25,-259.82"/>
</g>
<!-- DataSourceStatus&#45;&gt;ConfigurableClientList -->
<g id="edge9" class="edge">
<title>DataSourceStatus&#45;&gt;ConfigurableClientList</title>
<path fill="none" stroke="black" d="M1357.74,-371.47C1385.74,-363.84 1423.83,-352.31 1456,-338.5 1485.16,-325.98 1516.96,-307.07 1535.38,-295.55"/>
<text text-anchor="middle" x="1432.5" y="-357.3" font-family="Times,serif" font-size="9.00" fill="grey">«create»</text>
</g>
<!-- ZoneTableIterator -->
<g id="node7" class="node">
<title>ZoneTableIterator</title>
<polygon fill="lightgrey" stroke="black" points="989.5,-119.5 989.5,-139.5 1103.5,-139.5 1103.5,-119.5 989.5,-119.5"/>
<text text-anchor="middle" x="1046.5" y="-126.7" font-family="Helvetica,sans-Serif" font-size="11.00">ZoneTableIterator</text>
</g>
<!-- ZoneTableIterator&#45;&gt;Auth -->
<g id="edge6" class="edge">
<title>ZoneTableIterator&#45;&gt;Auth</title>
<path fill="none" stroke="black" d="M1101.41,-139.54C1116.18,-142.22 1132.19,-145.04 1147,-147.5 1390,-187.87 1452.96,-184.73 1695,-230.5 1697.49,-230.97 1700.06,-231.48 1702.64,-232.02"/>
<polygon fill="black" stroke="black" points="1702.03,-235.47 1712.54,-234.16 1703.51,-228.62 1702.03,-235.47"/>
</g>
<!-- ZoneTableIterator&#45;&gt;ZoneTableAccessor -->
<g id="edge15" class="edge">
<title>ZoneTableIterator&#45;&gt;ZoneTableAccessor</title>
<path fill="none" stroke="black" d="M1103.79,-130.55C1148.23,-131.38 1210.11,-132.53 1255.59,-133.38"/>
<text text-anchor="middle" x="1186" y="-136.3" font-family="Times,serif" font-size="9.00" fill="grey">«create»</text>
</g>
<!-- ZoneTableIteratorCache -->
<g id="node12" class="node">
<title>ZoneTableIteratorCache</title>
<polygon fill="lightgrey" stroke="black" points="1243,-65.5 1243,-85.5 1391,-85.5 1391,-65.5 1243,-65.5"/>
<text text-anchor="middle" x="1317" y="-72.7" font-family="Helvetica,sans-Serif" font-size="11.00">ZoneTableIteratorCache</text>
</g>
<!-- ZoneTableIterator&#45;&gt;ZoneTableIteratorCache -->
<g id="edge19" class="edge">
<title>ZoneTableIterator&#45;&gt;ZoneTableIteratorCache</title>
<path fill="none" stroke="black" d="M1103.79,-122.41C1138.85,-117.55 1184.79,-110.38 1225,-101.5 1241.32,-97.9 1259.04,-93.05 1274.47,-88.52"/>
<polygon fill="black" stroke="black" points="1275.65,-91.82 1284.24,-85.6 1273.65,-85.11 1275.65,-91.82"/>
</g>
<!-- DataSourceInfo&#45;&gt;ConfigurableClientList -->
<g id="edge7" class="edge">
<title>DataSourceInfo&#45;&gt;ConfigurableClientList</title>
<path fill="none" stroke="black" d="M1367.7,-295.73C1398.35,-294.02 1438.33,-291.79 1473.12,-289.85"/>
<polygon fill="black" stroke="black" points="1473.47,-293.33 1483.26,-289.28 1473.08,-286.34 1473.47,-293.33"/>
<text text-anchor="middle" x="1432.5" y="-296.3" font-family="Times,serif" font-size="9.00" fill="grey">composite</text>
</g>
<!-- ZoneTableSegment -->
<g id="node9" class="node">
<title>ZoneTableSegment</title>
<polygon fill="lightgrey" stroke="black" points="805,-289.5 805,-309.5 927,-309.5 927,-289.5 805,-289.5"/>
<text text-anchor="middle" x="866" y="-296.7" font-family="Helvetica,sans-Serif" font-size="11.00">ZoneTableSegment</text>
</g>
<!-- ZoneTableSegment&#45;&gt;ConfigurableClientList -->
<g id="edge8" class="edge">
<title>ZoneTableSegment&#45;&gt;ConfigurableClientList</title>
<path fill="none" stroke="black" d="M915.93,-309.55C925.53,-311.16 935.55,-312.59 945,-313.5 1142.33,-332.4 1193.35,-332.62 1391,-317.5 1433.79,-314.23 1481.97,-303.62 1514.17,-295.51"/>
<text text-anchor="middle" x="1186" y="-331.3" font-family="Times,serif" font-size="9.00" fill="grey">«reset»</text>
</g>
<!-- ZoneTableSegment&#45;&gt;ZoneWriter -->
<g id="edge21" class="edge">
<title>ZoneTableSegment&#45;&gt;ZoneWriter</title>
<path fill="none" stroke="black" d="M910.42,-289.48C927.15,-285.66 946.45,-281.32 964,-277.5 1023.33,-264.6 1091.79,-250.46 1136.6,-241.32"/>
<polygon fill="black" stroke="black" points="1137.53,-244.7 1146.63,-239.27 1136.13,-237.84 1137.53,-244.7"/>
</g>
<!-- ZoneTableSegment&#45;&gt;DataSourceInfo -->
<g id="edge14" class="edge">
<title>ZoneTableSegment&#45;&gt;DataSourceInfo</title>
<path fill="none" stroke="black" d="M927.09,-299.37C1013.08,-299.17 1170.33,-298.82 1256.18,-298.63"/>
<polygon fill="black" stroke="black" points="1256.29,-302.13 1266.28,-298.61 1256.27,-295.13 1256.29,-302.13"/>
<text text-anchor="middle" x="1046.5" y="-302.3" font-family="Times,serif" font-size="9.00" fill="grey">composite</text>
</g>
<!-- ZoneTableSegmentMapped -->
<g id="node25" class="node">
<title>ZoneTableSegmentMapped</title>
<polygon fill="lightgrey" stroke="black" points="964,-405.5 964,-425.5 1129,-425.5 1129,-405.5 964,-405.5"/>
<text text-anchor="middle" x="1046.5" y="-412.7" font-family="Helvetica,sans-Serif" font-size="11.00">ZoneTableSegmentMapped</text>
</g>
<!-- ZoneTableSegment&#45;&gt;ZoneTableSegmentMapped -->
<g id="edge41" class="edge">
<title>ZoneTableSegment&#45;&gt;ZoneTableSegmentMapped</title>
<path fill="none" stroke="black" d="M873.98,-309.56C888.37,-329.47 923.41,-373.94 964,-396.5 967.64,-398.52 971.49,-400.33 975.46,-401.95"/>
<polygon fill="black" stroke="black" points="974.28,-405.25 984.87,-405.39 976.68,-398.67 974.28,-405.25"/>
</g>
<!-- ZoneTableSegmentLocal -->
<g id="node26" class="node">
<title>ZoneTableSegmentLocal</title>
<polygon fill="lightgrey" stroke="black" points="971.5,-204.5 971.5,-224.5 1121.5,-224.5 1121.5,-204.5 971.5,-204.5"/>
<text text-anchor="middle" x="1046.5" y="-211.7" font-family="Helvetica,sans-Serif" font-size="11.00">ZoneTableSegmentLocal</text>
</g>
<!-- ZoneTableSegment&#45;&gt;ZoneTableSegmentLocal -->
<g id="edge42" class="edge">
<title>ZoneTableSegment&#45;&gt;ZoneTableSegmentLocal</title>
<path fill="none" stroke="black" d="M880.82,-289.36C899.09,-276.34 932.62,-253.73 964,-239.5 974.01,-234.96 985.07,-230.95 995.73,-227.55"/>
<polygon fill="black" stroke="black" points="996.83,-230.87 1005.37,-224.59 994.78,-224.18 996.83,-230.87"/>
</g>
<!-- CacheConfig -->
<g id="node10" class="node">
<title>CacheConfig</title>
<polygon fill="lightgrey" stroke="black" points="1004,-78.5 1004,-98.5 1089,-98.5 1089,-78.5 1004,-78.5"/>
<text text-anchor="middle" x="1046.5" y="-85.7" font-family="Helvetica,sans-Serif" font-size="11.00">CacheConfig</text>
</g>
<!-- CacheConfig&#45;&gt;DataSourceInfo -->
<g id="edge13" class="edge">
<title>CacheConfig&#45;&gt;DataSourceInfo</title>
<path fill="none" stroke="black" d="M1089.11,-82.43C1129.8,-79.06 1190.51,-81.35 1225,-117.5 1273.18,-168 1199.23,-219.14 1243,-273.5 1246.97,-278.43 1251.96,-282.39 1257.46,-285.58"/>
<polygon fill="black" stroke="black" points="1255.93,-288.72 1266.45,-289.96 1259,-282.43 1255.93,-288.72"/>
<text text-anchor="middle" x="1186" y="-120.3" font-family="Times,serif" font-size="9.00" fill="grey">composite</text>
</g>
<!-- CacheConfig&#45;&gt;ZoneTableAccessorCache -->
<g id="edge16" class="edge">
<title>CacheConfig&#45;&gt;ZoneTableAccessorCache</title>
<path fill="none" stroke="black" d="M1088.46,-78.44C1106.35,-74.31 1127.63,-69.74 1147,-66.5 1254.07,-48.58 1282.66,-48.75 1391,-55.5 1418.75,-57.23 1449.05,-60.62 1475.74,-64.14"/>
<polygon fill="black" stroke="black" points="1475.4,-67.62 1485.78,-65.48 1476.34,-60.68 1475.4,-67.62"/>
</g>
<!-- CacheConfig&#45;&gt;ZoneTableIteratorCache -->
<g id="edge20" class="edge">
<title>CacheConfig&#45;&gt;ZoneTableIteratorCache</title>
<path fill="none" stroke="black" d="M1089.42,-79.72C1107.1,-76.44 1127.97,-73.11 1147,-71.5 1181.54,-68.57 1190.34,-70.74 1225,-71.5 1227.56,-71.56 1230.16,-71.62 1232.78,-71.69"/>
<polygon fill="black" stroke="black" points="1232.89,-75.2 1243,-72.01 1233.11,-68.2 1232.89,-75.2"/>
</g>
<!-- ZoneTableIteratorCache&#45;&gt;ZoneTableAccessorCache -->
<g id="edge17" class="edge">
<title>ZoneTableIteratorCache&#45;&gt;ZoneTableAccessorCache</title>
<path fill="none" stroke="black" d="M1391.08,-75.5C1417.37,-75.5 1447.11,-75.5 1473.74,-75.5"/>
<text text-anchor="middle" x="1432.5" y="-78.3" font-family="Times,serif" font-size="9.00" fill="grey">«create»</text>
</g>
<!-- ZoneData -->
<g id="node13" class="node">
<title>ZoneData</title>
<polygon fill="lightgrey" stroke="black" points="150,-93.5 150,-113.5 221,-113.5 221,-93.5 150,-93.5"/>
<text text-anchor="middle" x="185.5" y="-100.7" font-family="Helvetica,sans-Serif" font-size="11.00">ZoneData</text>
</g>
<!-- ZoneData&#45;&gt;ZoneWriter -->
<g id="edge22" class="edge">
<title>ZoneData&#45;&gt;ZoneWriter</title>
<path fill="none" stroke="black" d="M202.08,-113.66C231.67,-131.94 298.59,-168.5 360.5,-168.5 360.5,-168.5 360.5,-168.5 946,-168.5 1028.15,-168.5 1052.19,-165.37 1129,-194.5 1145.56,-200.78 1162.2,-212.65 1172.98,-221.25"/>
<text text-anchor="middle" x="558.5" y="-171.3" font-family="Times,serif" font-size="9.00" fill="grey">add/replace</text>
</g>
<!-- LoadAction -->
<g id="node16" class="node">
<title>LoadAction</title>
<polygon fill="lightgrey" stroke="black" points="827.5,-54.5 827.5,-74.5 904.5,-74.5 904.5,-54.5 827.5,-54.5"/>
<text text-anchor="middle" x="866" y="-61.7" font-family="Helvetica,sans-Serif" font-size="11.00">LoadAction</text>
</g>
<!-- ZoneData&#45;&gt;LoadAction -->
<g id="edge26" class="edge">
<title>ZoneData&#45;&gt;LoadAction</title>
<path fill="none" stroke="black" d="M221.2,-107.27C227.13,-107.78 233.24,-108.23 239,-108.5 259.87,-109.49 265.12,-109.12 286,-108.5 508.97,-101.83 565.5,-104.92 787,-78.5 800.25,-76.92 814.66,-74.53 827.44,-72.16"/>
<text text-anchor="middle" x="460.5" y="-107.3" font-family="Times,serif" font-size="9.00" fill="grey">create</text>
</g>
<!-- ZoneDataLoader -->
<g id="node17" class="node">
<title>ZoneDataLoader</title>
<polygon fill="lightgrey" stroke="black" points="504.5,-54.5 504.5,-74.5 612.5,-74.5 612.5,-54.5 504.5,-54.5"/>
<text text-anchor="middle" x="558.5" y="-61.7" font-family="Helvetica,sans-Serif" font-size="11.00">ZoneDataLoader</text>
</g>
<!-- ZoneData&#45;&gt;ZoneDataLoader -->
<g id="edge28" class="edge">
<title>ZoneData&#45;&gt;ZoneDataLoader</title>
<path fill="none" stroke="black" d="M221.07,-99.87C283.3,-93.32 415.04,-79.48 493.94,-71.18"/>
<polygon fill="black" stroke="black" points="494.66,-74.63 504.24,-70.1 493.93,-67.66 494.66,-74.63"/>
</g>
<!-- ZoneDataUpdater -->
<g id="node18" class="node">
<title>ZoneDataUpdater</title>
<polygon fill="lightgrey" stroke="black" points="304,-27.5 304,-47.5 419,-47.5 419,-27.5 304,-27.5"/>
<text text-anchor="middle" x="361.5" y="-34.7" font-family="Helvetica,sans-Serif" font-size="11.00">ZoneDataUpdater</text>
</g>
<!-- ZoneData&#45;&gt;ZoneDataUpdater -->
<g id="edge31" class="edge">
<title>ZoneData&#45;&gt;ZoneDataUpdater</title>
<path fill="none" stroke="black" d="M202.61,-93.45C212.78,-87.4 226.34,-79.85 239,-74.5 261.81,-64.85 287.98,-56.55 310.19,-50.27"/>
<polygon fill="black" stroke="black" points="311.38,-53.57 320.08,-47.53 309.51,-46.82 311.38,-53.57"/>
</g>
<!-- ZoneTable -->
<g id="node20" class="node">
<title>ZoneTable</title>
<polygon fill="lightgrey" stroke="black" points="325,-313.5 325,-333.5 398,-333.5 398,-313.5 325,-313.5"/>
<text text-anchor="middle" x="361.5" y="-320.7" font-family="Helvetica,sans-Serif" font-size="11.00">ZoneTable</text>
</g>
<!-- ZoneData&#45;&gt;ZoneTable -->
<g id="edge35" class="edge">
<title>ZoneData&#45;&gt;ZoneTable</title>
<path fill="none" stroke="black" d="M192.58,-113.5C201.99,-128.77 220.89,-158.62 239,-182.5 274.06,-228.73 319.72,-279.48 343.85,-305.66"/>
<polygon fill="black" stroke="black" points="341.53,-308.3 350.89,-313.26 346.66,-303.55 341.53,-308.3"/>
<text text-anchor="middle" x="262.5" y="-241.3" font-family="Times,serif" font-size="9.00" fill="grey">composite</text>
</g>
<!-- ZoneTableHeader -->
<g id="node14" class="node">
<title>ZoneTableHeader</title>
<polygon fill="lightgrey" stroke="black" points="502,-289.5 502,-309.5 615,-309.5 615,-289.5 502,-289.5"/>
<text text-anchor="middle" x="558.5" y="-296.7" font-family="Helvetica,sans-Serif" font-size="11.00">ZoneTableHeader</text>
</g>
<!-- ZoneTableHeader&#45;&gt;ZoneTableSegment -->
<g id="edge23" class="edge">
<title>ZoneTableHeader&#45;&gt;ZoneTableSegment</title>
<path fill="none" stroke="black" d="M615.18,-299.5C665.54,-299.5 739.95,-299.5 794.46,-299.5"/>
<polygon fill="black" stroke="black" points="794.74,-303 804.74,-299.5 794.74,-296 794.74,-303"/>
<text text-anchor="middle" x="710" y="-302.3" font-family="Times,serif" font-size="9.00" fill="grey">composite</text>
</g>
<!-- MemorySegment -->
<g id="node15" class="node">
<title>MemorySegment</title>
<polygon fill="lightgrey" stroke="black" points="306.5,-227.5 306.5,-247.5 416.5,-247.5 416.5,-227.5 306.5,-227.5"/>
<text text-anchor="middle" x="361.5" y="-234.7" font-family="Helvetica,sans-Serif" font-size="11.00">MemorySegment</text>
</g>
<!-- MemorySegment&#45;&gt;ZoneTableSegment -->
<g id="edge24" class="edge">
<title>MemorySegment&#45;&gt;ZoneTableSegment</title>
<path fill="none" stroke="black" d="M416.75,-244.19C508.27,-255.49 693.24,-278.31 794.61,-290.82"/>
<polygon fill="black" stroke="black" points="794.4,-294.32 804.76,-292.07 795.26,-287.37 794.4,-294.32"/>
<text text-anchor="middle" x="558.5" y="-271.3" font-family="Times,serif" font-size="9.00" fill="grey">composite</text>
</g>
<!-- MemorySegment&#45;&gt;ZoneDataLoader -->
<g id="edge30" class="edge">
<title>MemorySegment&#45;&gt;ZoneDataLoader</title>
<path fill="none" stroke="black" d="M365.28,-227.43C372.65,-202.6 395.06,-137.99 437,-103.5 453.42,-90 474.62,-81.13 494.66,-75.33"/>
<polygon fill="black" stroke="black" points="495.62,-78.69 504.37,-72.71 493.8,-71.93 495.62,-78.69"/>
</g>
<!-- MemorySegmentMapped -->
<g id="node23" class="node">
<title>MemorySegmentMapped</title>
<polygon fill="lightgrey" stroke="black" points="633,-363.5 633,-383.5 787,-383.5 787,-363.5 633,-363.5"/>
<text text-anchor="middle" x="710" y="-370.7" font-family="Helvetica,sans-Serif" font-size="11.00">MemorySegmentMapped</text>
</g>
<!-- MemorySegment&#45;&gt;MemorySegmentMapped -->
<g id="edge39" class="edge">
<title>MemorySegment&#45;&gt;MemorySegmentMapped</title>
<path fill="none" stroke="black" d="M376.9,-247.61C401.49,-264.47 453.62,-298.45 502,-318.5 548.65,-337.83 604.06,-352.13 645.8,-361.3"/>
<polygon fill="black" stroke="black" points="645.33,-364.77 655.84,-363.46 646.8,-357.93 645.33,-364.77"/>
</g>
<!-- MemorySegmentLocal -->
<g id="node24" class="node">
<title>MemorySegmentLocal</title>
<polygon fill="lightgrey" stroke="black" points="640.5,-204.5 640.5,-224.5 779.5,-224.5 779.5,-204.5 640.5,-204.5"/>
<text text-anchor="middle" x="710" y="-211.7" font-family="Helvetica,sans-Serif" font-size="11.00">MemorySegmentLocal</text>
</g>
<!-- MemorySegment&#45;&gt;MemorySegmentLocal -->
<g id="edge40" class="edge">
<title>MemorySegment&#45;&gt;MemorySegmentLocal</title>
<path fill="none" stroke="black" d="M416.64,-233.91C473.91,-230.1 564.85,-224.07 630.09,-219.74"/>
<polygon fill="black" stroke="black" points="630.59,-223.21 640.34,-219.06 630.13,-216.23 630.59,-223.21"/>
</g>
<!-- LoadAction&#45;&gt;CacheConfig -->
<g id="edge25" class="edge">
<title>LoadAction&#45;&gt;CacheConfig</title>
<path fill="none" stroke="black" d="M904.86,-69.59C930.74,-73.07 965.37,-77.73 993.8,-81.55"/>
<polygon fill="black" stroke="black" points="993.58,-85.05 1003.96,-82.91 994.51,-78.11 993.58,-85.05"/>
</g>
<!-- LoadFromFile -->
<g id="node21" class="node">
<title>LoadFromFile</title>
<polygon fill="lightgrey" stroke="black" points="1002.5,-0.5 1002.5,-20.5 1090.5,-20.5 1090.5,-0.5 1002.5,-0.5"/>
<text text-anchor="middle" x="1046.5" y="-7.7" font-family="Helvetica,sans-Serif" font-size="11.00">LoadFromFile</text>
</g>
<!-- LoadAction&#45;&gt;LoadFromFile -->
<g id="edge37" class="edge">
<title>LoadAction&#45;&gt;LoadFromFile</title>
<path fill="none" stroke="black" d="M892.26,-54.46C911.68,-46.97 939.28,-36.81 964,-29.5 973.1,-26.81 982.86,-24.25 992.35,-21.94"/>
<polygon fill="black" stroke="black" points="993.19,-25.34 1002.11,-19.62 991.57,-18.53 993.19,-25.34"/>
</g>
<!-- IteratorLoader -->
<g id="node22" class="node">
<title>IteratorLoader</title>
<polygon fill="lightgrey" stroke="black" points="999,-39.5 999,-59.5 1094,-59.5 1094,-39.5 999,-39.5"/>
<text text-anchor="middle" x="1046.5" y="-46.7" font-family="Helvetica,sans-Serif" font-size="11.00">IteratorLoader</text>
</g>
<!-- LoadAction&#45;&gt;IteratorLoader -->
<g id="edge38" class="edge">
<title>LoadAction&#45;&gt;IteratorLoader</title>
<path fill="none" stroke="black" d="M904.86,-61.32C929.17,-59.28 961.22,-56.58 988.58,-54.28"/>
<polygon fill="black" stroke="black" points="989.13,-57.75 998.81,-53.42 988.55,-50.77 989.13,-57.75"/>
</g>
<!-- ZoneDataLoader&#45;&gt;LoadAction -->
<g id="edge27" class="edge">
<title>ZoneDataLoader&#45;&gt;LoadAction</title>
<path fill="none" stroke="black" d="M612.71,-64.5C670.37,-64.5 761.54,-64.5 817.05,-64.5"/>
<polygon fill="black" stroke="black" points="817.32,-68 827.32,-64.5 817.32,-61 817.32,-68"/>
<text text-anchor="middle" x="710" y="-67.3" font-family="Times,serif" font-size="9.00" fill="grey">composite</text>
</g>
<!-- ZoneDataUpdater&#45;&gt;ZoneDataLoader -->
<g id="edge29" class="edge">
<title>ZoneDataUpdater&#45;&gt;ZoneDataLoader</title>
<path fill="none" stroke="black" d="M419.09,-35.5C439.65,-35.66 463,-36.89 484,-40.5 497.02,-42.74 510.9,-46.8 523.04,-50.96"/>
<polygon fill="black" stroke="black" points="522.19,-54.37 532.78,-54.43 524.54,-47.78 522.19,-54.37"/>
<text text-anchor="middle" x="460.5" y="-43.3" font-family="Times,serif" font-size="9.00" fill="grey">composite</text>
</g>
<!-- RdataSet -->
<g id="node19" class="node">
<title>RdataSet</title>
<polygon fill="lightgrey" stroke="black" points="0,-25.5 0,-45.5 67,-45.5 67,-25.5 0,-25.5"/>
<text text-anchor="middle" x="33.5" y="-32.7" font-family="Helvetica,sans-Serif" font-size="11.00">RdataSet</text>
</g>
<!-- RdataSet&#45;&gt;ZoneData -->
<g id="edge36" class="edge">
<title>RdataSet&#45;&gt;ZoneData</title>
<path fill="none" stroke="black" d="M56.63,-45.53C82.11,-57.08 124.16,-76.14 153.03,-89.23"/>
<polygon fill="black" stroke="black" points="151.72,-92.48 162.28,-93.43 154.61,-86.11 151.72,-92.48"/>
<text text-anchor="middle" x="108.5" y="-83.3" font-family="Times,serif" font-size="9.00" fill="grey">composite</text>
</g>
<!-- RdataSet&#45;&gt;ZoneDataUpdater -->
<g id="edge32" class="edge">
<title>RdataSet&#45;&gt;ZoneDataUpdater</title>
<path fill="none" stroke="black" d="M62.53,-25.43C85.65,-17.69 119.49,-7.65 150,-3.5 215.29,5.37 291.56,-14.53 331.97,-27.48"/>
<text text-anchor="middle" x="185.5" y="-6.3" font-family="Times,serif" font-size="9.00" fill="grey">create</text>
</g>
<!-- RdataSet&#45;&gt;ZoneDataUpdater -->
<g id="edge33" class="edge">
<title>RdataSet&#45;&gt;ZoneDataUpdater</title>
<path fill="none" stroke="black" d="M67.25,-35.7C122.63,-36.04 235.42,-36.73 303.84,-37.15"/>
<text text-anchor="middle" x="185.5" y="-40.3" font-family="Times,serif" font-size="9.00" fill="grey">add</text>
</g>
<!-- ZoneTable&#45;&gt;ZoneTableHeader -->
<g id="edge34" class="edge">
<title>ZoneTable&#45;&gt;ZoneTableHeader</title>
<path fill="none" stroke="black" d="M398.27,-319.1C424.36,-315.89 460.47,-311.44 491.71,-307.6"/>
<polygon fill="black" stroke="black" points="492.17,-311.07 501.67,-306.37 491.31,-304.12 492.17,-311.07"/>
<text text-anchor="middle" x="460.5" y="-317.3" font-family="Times,serif" font-size="9.00" fill="grey">composite</text>
</g>
<!-- MemorySegmentMapped&#45;&gt;ZoneTableSegmentMapped -->
<g id="edge43" class="edge">
<title>MemorySegmentMapped&#45;&gt;ZoneTableSegmentMapped</title>
<path fill="none" stroke="black" d="M787.32,-383.08C837.41,-389.37 903.13,-397.62 955.72,-404.23"/>
<polygon fill="black" stroke="black" points="955.36,-407.71 965.72,-405.48 956.24,-400.76 955.36,-407.71"/>
<text text-anchor="middle" x="866" y="-403.3" font-family="Times,serif" font-size="9.00" fill="grey">composite</text>
</g>
<!-- MemorySegmentLocal&#45;&gt;ZoneTableSegmentLocal -->
<g id="edge44" class="edge">
<title>MemorySegmentLocal&#45;&gt;ZoneTableSegmentLocal</title>
<path fill="none" stroke="black" d="M779.9,-214.5C832.48,-214.5 905.16,-214.5 961.2,-214.5"/>
<polygon fill="black" stroke="black" points="961.46,-218 971.46,-214.5 961.46,-211 961.46,-218"/>
<text text-anchor="middle" x="866" y="-217.3" font-family="Times,serif" font-size="9.00" fill="grey">composite</text>
</g>
</g>
</svg>
