<?xml version="1.0" encoding="UTF-8" standalone="no"?>
<!DOCTYPE svg PUBLIC "-//W3C//DTD SVG 1.1//EN"
 "http://www.w3.org/Graphics/SVG/1.1/DTD/svg11.dtd">
<!-- Generated by graphviz version 2.43.0 (0)
 -->
<!-- Title: graph Pages: 1 -->
<svg width="1715pt" height="774pt"
 viewBox="0.00 0.00 1715.00 773.50" xmlns="http://www.w3.org/2000/svg" xmlns:xlink="http://www.w3.org/1999/xlink">
<g id="graph0" class="graph" transform="scale(1 1) rotate(0) translate(4 769.5)">
<title>graph</title>
<polygon fill="white" stroke="transparent" points="-4,4 -4,-769.5 1711,-769.5 1711,4 -4,4"/>
<!-- PossessionDeck -->
<g id="node1" class="node">
<title>PossessionDeck</title>
<polygon fill="lightgrey" stroke="black" points="642,-259.5 642,-319.5 825,-319.5 825,-259.5 642,-259.5"/>
<text text-anchor="middle" x="733.5" y="-306.7" font-family="Helvetica,sans-Serif" font-size="11.00">PossessionDeck</text>
<polyline fill="none" stroke="black" points="642,-299.5 825,-299.5 "/>
<text text-anchor="start" x="650" y="-286.7" font-family="Helvetica,sans-Serif" font-size="11.00">N/A availablePossessions : list</text>
<polyline fill="none" stroke="black" points="642,-279.5 825,-279.5 "/>
<text text-anchor="start" x="650" y="-266.7" font-family="Helvetica,sans-Serif" font-size="11.00">updatePossessionDeck()</text>
</g>
<!-- Possession -->
<g id="node2" class="node">
<title>Possession</title>
<polygon fill="lightgrey" stroke="black" points="362,-73.5 362,-205.5 533,-205.5 533,-73.5 362,-73.5"/>
<text text-anchor="middle" x="447.5" y="-192.7" font-family="Helvetica,sans-Serif" font-size="11.00">Possession</text>
<polyline fill="none" stroke="black" points="362,-185.5 533,-185.5 "/>
<text text-anchor="start" x="370" y="-172.7" font-family="Helvetica,sans-Serif" font-size="11.00">N/A name : str</text>
<text text-anchor="start" x="370" y="-160.7" font-family="Helvetica,sans-Serif" font-size="11.00">N/A type : str</text>
<text text-anchor="start" x="370" y="-148.7" font-family="Helvetica,sans-Serif" font-size="11.00">N/A description : str</text>
<text text-anchor="start" x="370" y="-136.7" font-family="Helvetica,sans-Serif" font-size="11.00">N/A attackModifier : int</text>
<text text-anchor="start" x="370" y="-124.7" font-family="Helvetica,sans-Serif" font-size="11.00">N/A damageModifier : int</text>
<text text-anchor="start" x="370" y="-112.7" font-family="Helvetica,sans-Serif" font-size="11.00">N/A bonusDrawModifier : int</text>
<polyline fill="none" stroke="black" points="362,-105.5 533,-105.5 "/>
<text text-anchor="start" x="370" y="-92.7" font-family="Helvetica,sans-Serif" font-size="11.00">removeWounds()</text>
<text text-anchor="start" x="370" y="-80.7" font-family="Helvetica,sans-Serif" font-size="11.00">repairCheck()</text>
</g>
<!-- Possession&#45;&gt;PossessionDeck -->
<g id="edge1" class="edge">
<title>Possession&#45;&gt;PossessionDeck</title>
<path fill="none" stroke="black" d="M533.39,-198.08C561.23,-215.89 592.78,-234.67 623,-249.5 627.1,-251.51 631.32,-253.48 635.62,-255.39"/>
<polygon fill="black" stroke="black" points="634.56,-258.75 645.12,-259.5 637.33,-252.32 634.56,-258.75"/>
<text text-anchor="middle" x="581" y="-242.3" font-family="Times,serif" font-size="9.00" fill="grey">aggregate</text>
</g>
<!-- Character -->
<g id="node5" class="node">
<title>Character</title>
<polygon fill="lightgrey" stroke="black" points="623,-0.5 623,-240.5 844,-240.5 844,-0.5 623,-0.5"/>
<text text-anchor="middle" x="733.5" y="-227.7" font-family="Helvetica,sans-Serif" font-size="11.00">Character</text>
<polyline fill="none" stroke="black" points="623,-220.5 844,-220.5 "/>
<text text-anchor="start" x="631" y="-207.7" font-family="Helvetica,sans-Serif" font-size="11.00">N/A name : string</text>
<text text-anchor="start" x="631" y="-195.7" font-family="Helvetica,sans-Serif" font-size="11.00">N/A title : string</text>
<text text-anchor="start" x="631" y="-183.7" font-family="Helvetica,sans-Serif" font-size="11.00">N/A combat : int</text>
<text text-anchor="start" x="631" y="-171.7" font-family="Helvetica,sans-Serif" font-size="11.00">N/A endurance : int</text>
<text text-anchor="start" x="631" y="-159.7" font-family="Helvetica,sans-Serif" font-size="11.00">N/A intelligence : int</text>
<text text-anchor="start" x="631" y="-147.7" font-family="Helvetica,sans-Serif" font-size="11.00">N/A leadership : int</text>
<text text-anchor="start" x="631" y="-135.7" font-family="Helvetica,sans-Serif" font-size="11.00">N/A diplomacy : int</text>
<text text-anchor="start" x="631" y="-123.7" font-family="Helvetica,sans-Serif" font-size="11.00">N/A navigation : int</text>
<text text-anchor="start" x="631" y="-111.7" font-family="Helvetica,sans-Serif" font-size="11.00">N/A homePlanet : string</text>
<text text-anchor="start" x="631" y="-99.7" font-family="Helvetica,sans-Serif" font-size="11.00">N/A effectiveCombatRating : int</text>
<text text-anchor="start" x="631" y="-87.7" font-family="Helvetica,sans-Serif" font-size="11.00">N/A wounds : int</text>
<text text-anchor="start" x="631" y="-75.7" font-family="Helvetica,sans-Serif" font-size="11.00">N/A leader : boolean</text>
<text text-anchor="start" x="631" y="-63.7" font-family="Helvetica,sans-Serif" font-size="11.00">N/A detected : boolean</text>
<text text-anchor="start" x="631" y="-51.7" font-family="Helvetica,sans-Serif" font-size="11.00">N/A captured : boolean</text>
<text text-anchor="start" x="631" y="-39.7" font-family="Helvetica,sans-Serif" font-size="11.00">N/A active : boolean</text>
<text text-anchor="start" x="631" y="-27.7" font-family="Helvetica,sans-Serif" font-size="11.00">N/A bonusDraws : list</text>
<polyline fill="none" stroke="black" points="623,-20.5 844,-20.5 "/>
<text text-anchor="start" x="631" y="-7.7" font-family="Helvetica,sans-Serif" font-size="11.00">allegiance : string (Rebel or Imperial)</text>
</g>
<!-- Possession&#45;&gt;Character -->
<g id="edge2" class="edge">
<title>Possession&#45;&gt;Character</title>
<path fill="none" stroke="black" d="M533.32,-133.83C561.44,-131.94 593.14,-129.82 622.85,-127.84"/>
<text text-anchor="middle" x="581" y="-135.3" font-family="Times,serif" font-size="9.00" fill="grey">Assigned</text>
</g>
<!-- Ship -->
<g id="node3" class="node">
<title>Ship</title>
<polygon fill="lightgrey" stroke="black" points="60,-157.5 60,-245.5 212,-245.5 212,-157.5 60,-157.5"/>
<text text-anchor="middle" x="136" y="-232.7" font-family="Helvetica,sans-Serif" font-size="11.00">Ship</text>
<polyline fill="none" stroke="black" points="60,-225.5 212,-225.5 "/>
<text text-anchor="start" x="68" y="-212.7" font-family="Helvetica,sans-Serif" font-size="11.00">N/A name : string</text>
<text text-anchor="start" x="68" y="-200.7" font-family="Helvetica,sans-Serif" font-size="11.00">N/A cannons : int</text>
<text text-anchor="start" x="68" y="-188.7" font-family="Helvetica,sans-Serif" font-size="11.00">N/A shields : int</text>
<text text-anchor="start" x="68" y="-176.7" font-family="Helvetica,sans-Serif" font-size="11.00">N/A maneuver : int</text>
<text text-anchor="start" x="68" y="-164.7" font-family="Helvetica,sans-Serif" font-size="11.00">N/A maxPassengers : int</text>
</g>
<!-- Ship&#45;&gt;Possession -->
<g id="edge3" class="edge">
<title>Ship&#45;&gt;Possession</title>
<path fill="none" stroke="black" d="M212.32,-186.41C254.32,-178 307.04,-167.44 351.81,-158.47"/>
<polygon fill="black" stroke="black" points="352.71,-161.86 361.83,-156.46 351.33,-154.99 352.71,-161.86"/>
<text text-anchor="middle" x="314" y="-173.3" font-family="Times,serif" font-size="9.00" fill="grey">aggregate</text>
</g>
<!-- Companion -->
<g id="node4" class="node">
<title>Companion</title>
<polygon fill="lightgrey" stroke="black" points="55,-18.5 55,-138.5 217,-138.5 217,-18.5 55,-18.5"/>
<text text-anchor="middle" x="136" y="-125.7" font-family="Helvetica,sans-Serif" font-size="11.00">Companion</text>
<polyline fill="none" stroke="black" points="55,-118.5 217,-118.5 "/>
<text text-anchor="start" x="63" y="-105.7" font-family="Helvetica,sans-Serif" font-size="11.00">N/A name : string</text>
<text text-anchor="start" x="63" y="-93.7" font-family="Helvetica,sans-Serif" font-size="11.00">N/A combatBonus : int</text>
<text text-anchor="start" x="63" y="-81.7" font-family="Helvetica,sans-Serif" font-size="11.00">N/A intelligenceBonus : int</text>
<text text-anchor="start" x="63" y="-69.7" font-family="Helvetica,sans-Serif" font-size="11.00">N/A diplomacyBonus : int</text>
<text text-anchor="start" x="63" y="-57.7" font-family="Helvetica,sans-Serif" font-size="11.00">N/A navigationBonus : int</text>
<text text-anchor="start" x="63" y="-45.7" font-family="Helvetica,sans-Serif" font-size="11.00">N/A special : list</text>
<polyline fill="none" stroke="black" points="55,-38.5 217,-38.5 "/>
<text text-anchor="start" x="63" y="-25.7" font-family="Helvetica,sans-Serif" font-size="11.00">getSpecial()</text>
</g>
<!-- Companion&#45;&gt;Possession -->
<g id="edge4" class="edge">
<title>Companion&#45;&gt;Possession</title>
<path fill="none" stroke="black" d="M217.11,-94.29C258.32,-102.41 308.81,-112.36 351.92,-120.86"/>
<polygon fill="black" stroke="black" points="351.37,-124.32 361.86,-122.82 352.72,-117.45 351.37,-124.32"/>
<text text-anchor="middle" x="314" y="-121.3" font-family="Times,serif" font-size="9.00" fill="grey">aggregate</text>
</g>
<!-- AttackerStack -->
<g id="node9" class="node">
<title>AttackerStack</title>
<polygon fill="lightgrey" stroke="black" points="1506,-266.5 1506,-410.5 1707,-410.5 1707,-266.5 1506,-266.5"/>
<text text-anchor="middle" x="1606.5" y="-397.7" font-family="Helvetica,sans-Serif" font-size="11.00">AttackerStack</text>
<polyline fill="none" stroke="black" points="1506,-390.5 1707,-390.5 "/>
<text text-anchor="start" x="1514" y="-377.7" font-family="Helvetica,sans-Serif" font-size="11.00">N/A attackerType : list</text>
<text text-anchor="start" x="1514" y="-365.7" font-family="Helvetica,sans-Serif" font-size="11.00">N/A attackDifferential : dictionary</text>
<text text-anchor="start" x="1514" y="-353.7" font-family="Helvetica,sans-Serif" font-size="11.00">N/A attackModifier : list</text>
<text text-anchor="start" x="1514" y="-341.7" font-family="Helvetica,sans-Serif" font-size="11.00">N/A currentRound : int</text>
<polyline fill="none" stroke="black" points="1506,-334.5 1707,-334.5 "/>
<text text-anchor="start" x="1514" y="-321.7" font-family="Helvetica,sans-Serif" font-size="11.00">attack()</text>
<text text-anchor="start" x="1514" y="-309.7" font-family="Helvetica,sans-Serif" font-size="11.00">capture()</text>
<text text-anchor="start" x="1514" y="-297.7" font-family="Helvetica,sans-Serif" font-size="11.00">applyWounds()</text>
<text text-anchor="start" x="1514" y="-285.7" font-family="Helvetica,sans-Serif" font-size="11.00">updateCombatRating()</text>
<text text-anchor="start" x="1514" y="-273.7" font-family="Helvetica,sans-Serif" font-size="11.00">updateModifiers()</text>
</g>
<!-- Character&#45;&gt;AttackerStack -->
<g id="edge7" class="edge">
<title>Character&#45;&gt;AttackerStack</title>
<path fill="none" stroke="black" d="M844.23,-104.79C987.43,-89.3 1242.52,-79.15 1436,-167.5 1479.83,-187.52 1518.56,-224.18 1547.89,-258.44"/>
<polygon fill="black" stroke="black" points="1545.27,-260.76 1554.39,-266.17 1550.63,-256.26 1545.27,-260.76"/>
<text text-anchor="middle" x="1182" y="-108.3" font-family="Times,serif" font-size="9.00" fill="grey">composite</text>
</g>
<!-- DefenderStack -->
<g id="node10" class="node">
<title>DefenderStack</title>
<polygon fill="lightgrey" stroke="black" points="1226,-177.5 1226,-309.5 1436,-309.5 1436,-177.5 1226,-177.5"/>
<text text-anchor="middle" x="1331" y="-296.7" font-family="Helvetica,sans-Serif" font-size="11.00">DefenderStack</text>
<polyline fill="none" stroke="black" points="1226,-289.5 1436,-289.5 "/>
<text text-anchor="start" x="1234" y="-276.7" font-family="Helvetica,sans-Serif" font-size="11.00">N/A defenderType : list</text>
<text text-anchor="start" x="1234" y="-264.7" font-family="Helvetica,sans-Serif" font-size="11.00">N/A defenseDifferential : dictionary</text>
<text text-anchor="start" x="1234" y="-252.7" font-family="Helvetica,sans-Serif" font-size="11.00">N/A defenseModifier : list</text>
<polyline fill="none" stroke="black" points="1226,-245.5 1436,-245.5 "/>
<text text-anchor="start" x="1234" y="-232.7" font-family="Helvetica,sans-Serif" font-size="11.00">retaliate()</text>
<text text-anchor="start" x="1234" y="-220.7" font-family="Helvetica,sans-Serif" font-size="11.00">breakOff()</text>
<text text-anchor="start" x="1234" y="-208.7" font-family="Helvetica,sans-Serif" font-size="11.00">inactive()</text>
<text text-anchor="start" x="1234" y="-196.7" font-family="Helvetica,sans-Serif" font-size="11.00">applyWounds()</text>
<text text-anchor="start" x="1234" y="-184.7" font-family="Helvetica,sans-Serif" font-size="11.00">updateCombatRating()</text>
</g>
<!-- Character&#45;&gt;DefenderStack -->
<g id="edge6" class="edge">
<title>Character&#45;&gt;DefenderStack</title>
<path fill="none" stroke="black" d="M844.02,-144.67C850.1,-145.97 856.12,-147.26 862,-148.5 982.65,-173.99 1121.08,-201.93 1215.91,-220.87"/>
<polygon fill="black" stroke="black" points="1215.32,-224.32 1225.81,-222.84 1216.69,-217.45 1215.32,-224.32"/>
<text text-anchor="middle" x="1042.5" y="-208.3" font-family="Times,serif" font-size="9.00" fill="grey">composite</text>
</g>
<!-- MissionGroupStack -->
<g id="node11" class="node">
<title>MissionGroupStack</title>
<polygon fill="lightgrey" stroke="black" points="947,-367.5 947,-431.5 1138,-431.5 1138,-367.5 947,-367.5"/>
<text text-anchor="middle" x="1042.5" y="-418.7" font-family="Helvetica,sans-Serif" font-size="11.00">MissionGroupStack</text>
<polyline fill="none" stroke="black" points="947,-411.5 1138,-411.5 "/>
<text text-anchor="start" x="955" y="-398.7" font-family="Helvetica,sans-Serif" font-size="11.00">N/A effectiveCombatRating : int</text>
<text text-anchor="start" x="955" y="-386.7" font-family="Helvetica,sans-Serif" font-size="11.00">N/A currentMission : char</text>
<text text-anchor="start" x="955" y="-374.7" font-family="Helvetica,sans-Serif" font-size="11.00">N/A bonusDraws : list</text>
</g>
<!-- Character&#45;&gt;MissionGroupStack -->
<g id="edge5" class="edge">
<title>Character&#45;&gt;MissionGroupStack</title>
<path fill="none" stroke="black" d="M844.03,-220.04C897.47,-268.61 958.67,-324.22 998.59,-360.5"/>
<polygon fill="black" stroke="black" points="996.53,-363.36 1006.28,-367.5 1001.24,-358.18 996.53,-363.36"/>
<text text-anchor="middle" x="895.5" y="-295.3" font-family="Times,serif" font-size="9.00" fill="grey">composite</text>
</g>
<!-- IrateLocals -->
<g id="node6" class="node">
<title>IrateLocals</title>
<polygon fill="lightgrey" stroke="black" points="638,-611.5 638,-755.5 829,-755.5 829,-611.5 638,-611.5"/>
<text text-anchor="middle" x="733.5" y="-742.7" font-family="Helvetica,sans-Serif" font-size="11.00">IrateLocals</text>
<polyline fill="none" stroke="black" points="638,-735.5 829,-735.5 "/>
<text text-anchor="start" x="646" y="-722.7" font-family="Helvetica,sans-Serif" font-size="11.00">N/A type : string</text>
<text text-anchor="start" x="646" y="-710.7" font-family="Helvetica,sans-Serif" font-size="11.00">N/A name : string</text>
<text text-anchor="start" x="646" y="-698.7" font-family="Helvetica,sans-Serif" font-size="11.00">N/A combat : int</text>
<text text-anchor="start" x="646" y="-686.7" font-family="Helvetica,sans-Serif" font-size="11.00">N/A endurance : int</text>
<text text-anchor="start" x="646" y="-674.7" font-family="Helvetica,sans-Serif" font-size="11.00">N/A homePlanet : string</text>
<text text-anchor="start" x="646" y="-662.7" font-family="Helvetica,sans-Serif" font-size="11.00">N/A attackType : string</text>
<text text-anchor="start" x="646" y="-650.7" font-family="Helvetica,sans-Serif" font-size="11.00">N/A effectiveCombatRating : int</text>
<text text-anchor="start" x="646" y="-638.7" font-family="Helvetica,sans-Serif" font-size="11.00">N/A wounds : int</text>
<polyline fill="none" stroke="black" points="638,-631.5 829,-631.5 "/>
<text text-anchor="start" x="646" y="-618.7" font-family="Helvetica,sans-Serif" font-size="11.00">getType()</text>
</g>
<!-- Creatures -->
<g id="node7" class="node">
<title>Creatures</title>
<polygon fill="lightgrey" stroke="black" points="957,-641.5 957,-725.5 1128,-725.5 1128,-641.5 957,-641.5"/>
<text text-anchor="middle" x="1042.5" y="-712.7" font-family="Helvetica,sans-Serif" font-size="11.00">Creatures</text>
<polyline fill="none" stroke="black" points="957,-705.5 1128,-705.5 "/>
<text text-anchor="start" x="965" y="-692.7" font-family="Helvetica,sans-Serif" font-size="11.00">N/A combatShift : int</text>
<text text-anchor="start" x="965" y="-680.7" font-family="Helvetica,sans-Serif" font-size="11.00">N/A breakOffModifier : int</text>
<text text-anchor="start" x="965" y="-668.7" font-family="Helvetica,sans-Serif" font-size="11.00">N/A bonusDrawModifier : int</text>
<polyline fill="none" stroke="black" points="957,-661.5 1128,-661.5 "/>
<text text-anchor="start" x="965" y="-648.7" font-family="Helvetica,sans-Serif" font-size="11.00">getSpecial()</text>
</g>
<!-- IrateLocals&#45;&gt;Creatures -->
<g id="edge8" class="edge">
<title>IrateLocals&#45;&gt;Creatures</title>
<path fill="none" stroke="black" d="M829.12,-683.5C866.4,-683.5 909.14,-683.5 946.46,-683.5"/>
<polygon fill="black" stroke="black" points="946.83,-687 956.83,-683.5 946.83,-680 946.83,-687"/>
<text text-anchor="middle" x="895.5" y="-686.3" font-family="Times,serif" font-size="9.00" fill="grey">generalization</text>
</g>
<!-- IrateLocals&#45;&gt;AttackerStack -->
<g id="edge10" class="edge">
<title>IrateLocals&#45;&gt;AttackerStack</title>
<path fill="none" stroke="black" d="M829.22,-713.42C975.91,-753.39 1259.49,-804.41 1436,-667.5 1515.56,-605.79 1561.24,-496.34 1584.69,-420.73"/>
<polygon fill="black" stroke="black" points="1588.16,-421.34 1587.72,-410.76 1581.47,-419.31 1588.16,-421.34"/>
<text text-anchor="middle" x="1182" y="-758.3" font-family="Times,serif" font-size="9.00" fill="grey">composite</text>
</g>
<!-- Mission -->
<g id="node13" class="node">
<title>Mission</title>
<polygon fill="lightgrey" stroke="black" points="1259.5,-472.5 1259.5,-556.5 1402.5,-556.5 1402.5,-472.5 1259.5,-472.5"/>
<text text-anchor="middle" x="1331" y="-543.7" font-family="Helvetica,sans-Serif" font-size="11.00">Mission</text>
<polyline fill="none" stroke="black" points="1259.5,-536.5 1402.5,-536.5 "/>
<text text-anchor="start" x="1267.5" y="-523.7" font-family="Helvetica,sans-Serif" font-size="11.00">N/A name : string</text>
<text text-anchor="start" x="1267.5" y="-511.7" font-family="Helvetica,sans-Serif" font-size="11.00">N/A type : char</text>
<text text-anchor="start" x="1267.5" y="-499.7" font-family="Helvetica,sans-Serif" font-size="11.00">N/A description : string</text>
<polyline fill="none" stroke="black" points="1259.5,-492.5 1402.5,-492.5 "/>
<text text-anchor="start" x="1267.5" y="-479.7" font-family="Helvetica,sans-Serif" font-size="11.00">actionEventCheck()</text>
</g>
<!-- IrateLocals&#45;&gt;Mission -->
<g id="edge9" class="edge">
<title>IrateLocals&#45;&gt;Mission</title>
<path fill="none" stroke="black" d="M806.38,-611.41C844.69,-577.98 894.65,-541.69 947,-523.5 1002.68,-504.15 1164.86,-507.28 1259.38,-511.04"/>
<text text-anchor="middle" x="1042.5" y="-526.3" font-family="Times,serif" font-size="9.00" fill="grey">Can Create</text>
</g>
<!-- Creatures&#45;&gt;AttackerStack -->
<g id="edge12" class="edge">
<title>Creatures&#45;&gt;AttackerStack</title>
<path fill="none" stroke="black" d="M1128.37,-674C1212.77,-661.13 1342.79,-631.73 1436,-566.5 1489.94,-528.75 1533.72,-468.38 1563.26,-419.24"/>
<polygon fill="black" stroke="black" points="1566.34,-420.9 1568.42,-410.52 1560.32,-417.34 1566.34,-420.9"/>
<text text-anchor="middle" x="1331" y="-656.3" font-family="Times,serif" font-size="9.00" fill="grey">composite</text>
</g>
<!-- Creatures&#45;&gt;Mission -->
<g id="edge11" class="edge">
<title>Creatures&#45;&gt;Mission</title>
<path fill="none" stroke="black" d="M1120.51,-641.5C1126.44,-638.15 1132.33,-634.79 1138,-631.5 1179.71,-607.33 1225.86,-579.25 1262.46,-556.66"/>
<text text-anchor="middle" x="1182" y="-621.3" font-family="Times,serif" font-size="9.00" fill="grey">Can Create</text>
</g>
<!-- MilitaryUnit -->
<g id="node8" class="node">
<title>MilitaryUnit</title>
<polygon fill="lightgrey" stroke="black" points="623,-338.5 623,-470.5 844,-470.5 844,-338.5 623,-338.5"/>
<text text-anchor="middle" x="733.5" y="-457.7" font-family="Helvetica,sans-Serif" font-size="11.00">MilitaryUnit</text>
<polyline fill="none" stroke="black" points="623,-450.5 844,-450.5 "/>
<text text-anchor="start" x="631" y="-437.7" font-family="Helvetica,sans-Serif" font-size="11.00">N/A type : string</text>
<text text-anchor="start" x="631" y="-425.7" font-family="Helvetica,sans-Serif" font-size="11.00">N/A name : string</text>
<text text-anchor="start" x="631" y="-413.7" font-family="Helvetica,sans-Serif" font-size="11.00">N/A combat : int</text>
<text text-anchor="start" x="631" y="-401.7" font-family="Helvetica,sans-Serif" font-size="11.00">N/A endurance : int</text>
<text text-anchor="start" x="631" y="-389.7" font-family="Helvetica,sans-Serif" font-size="11.00">N/A environType : string</text>
<text text-anchor="start" x="631" y="-377.7" font-family="Helvetica,sans-Serif" font-size="11.00">N/A effectiveCombatRating : int</text>
<text text-anchor="start" x="631" y="-365.7" font-family="Helvetica,sans-Serif" font-size="11.00">N/A wounds : int</text>
<polyline fill="none" stroke="black" points="623,-358.5 844,-358.5 "/>
<text text-anchor="start" x="631" y="-345.7" font-family="Helvetica,sans-Serif" font-size="11.00">allegiance : string (Rebel or Imperial)</text>
</g>
<!-- MilitaryUnit&#45;&gt;AttackerStack -->
<g id="edge14" class="edge">
<title>MilitaryUnit&#45;&gt;AttackerStack</title>
<path fill="none" stroke="black" d="M844.29,-356.83C850.22,-355.17 856.15,-353.71 862,-352.5 979.69,-328.27 1319.3,-331.87 1495.9,-335.65"/>
<polygon fill="black" stroke="black" points="1495.92,-339.15 1506,-335.87 1496.07,-332.15 1495.92,-339.15"/>
<text text-anchor="middle" x="1182" y="-335.3" font-family="Times,serif" font-size="9.00" fill="grey">composite</text>
</g>
<!-- MilitaryUnit&#45;&gt;MissionGroupStack -->
<g id="edge13" class="edge">
<title>MilitaryUnit&#45;&gt;MissionGroupStack</title>
<path fill="none" stroke="black" d="M844.03,-402.72C877.61,-402.17 914.26,-401.57 946.76,-401.04"/>
<text text-anchor="middle" x="895.5" y="-404.3" font-family="Times,serif" font-size="9.00" fill="grey">Can Effect</text>
</g>
<!-- DefenderStack&#45;&gt;AttackerStack -->
<g id="edge15" class="edge">
<title>DefenderStack&#45;&gt;AttackerStack</title>
<path fill="none" stroke="black" d="M1436.18,-279.69C1458.97,-287.6 1483.05,-295.97 1505.67,-303.82"/>
<text text-anchor="middle" x="1471" y="-299.3" font-family="Times,serif" font-size="9.00" fill="grey">Attacks</text>
</g>
<!-- MissionGroupStack&#45;&gt;DefenderStack -->
<g id="edge17" class="edge">
<title>MissionGroupStack&#45;&gt;DefenderStack</title>
<path fill="none" stroke="black" d="M1076.19,-367.3C1097.51,-347.67 1126.74,-323.22 1156,-306.5 1174.75,-295.79 1195.64,-286.36 1216.27,-278.28"/>
<polygon fill="black" stroke="black" points="1217.63,-281.5 1225.72,-274.66 1215.13,-274.97 1217.63,-281.5"/>
<text text-anchor="middle" x="1182" y="-309.3" font-family="Times,serif" font-size="9.00" fill="grey">composite</text>
</g>
<!-- MissionGroupStack&#45;&gt;Mission -->
<g id="edge16" class="edge">
<title>MissionGroupStack&#45;&gt;Mission</title>
<path fill="none" stroke="black" d="M1138.4,-421.05C1161.56,-427.51 1185.99,-435.35 1208,-444.5 1226.72,-452.28 1246.12,-462.37 1263.8,-472.46"/>
<text text-anchor="middle" x="1182" y="-447.3" font-family="Times,serif" font-size="9.00" fill="grey">Assigned</text>
</g>
<!-- MissionDeck -->
<g id="node12" class="node">
<title>MissionDeck</title>
<polygon fill="lightgrey" stroke="black" points="651.5,-489.5 651.5,-549.5 815.5,-549.5 815.5,-489.5 651.5,-489.5"/>
<text text-anchor="middle" x="733.5" y="-536.7" font-family="Helvetica,sans-Serif" font-size="11.00">MissionDeck</text>
<polyline fill="none" stroke="black" points="651.5,-529.5 815.5,-529.5 "/>
<text text-anchor="start" x="659.5" y="-516.7" font-family="Helvetica,sans-Serif" font-size="11.00">N/A availableMissions : list</text>
<polyline fill="none" stroke="black" points="651.5,-509.5 815.5,-509.5 "/>
<text text-anchor="start" x="659.5" y="-496.7" font-family="Helvetica,sans-Serif" font-size="11.00">updateMissionDeck()</text>
</g>
<!-- MissionDeck&#45;&gt;MissionGroupStack -->
<g id="edge18" class="edge">
<title>MissionDeck&#45;&gt;MissionGroupStack</title>
<path fill="none" stroke="black" d="M815.64,-498.73C825.9,-493.85 835.69,-487.86 844,-480.5 857.39,-468.64 848.05,-455.7 862,-444.5 875.84,-433.39 911.18,-423.49 946.87,-415.82"/>
<text text-anchor="middle" x="895.5" y="-447.3" font-family="Times,serif" font-size="9.00" fill="grey">Selects</text>
</g>
<!-- MissionDeck&#45;&gt;Mission -->
<g id="edge19" class="edge">
<title>MissionDeck&#45;&gt;Mission</title>
<path fill="none" stroke="black" d="M815.55,-502.01C855.01,-494.36 903.26,-486.28 947,-482.5 1031.57,-475.19 1053.4,-475.5 1138,-482.5 1174.78,-485.54 1215.13,-491.82 1249.3,-498.01"/>
<polygon fill="black" stroke="black" points="1248.76,-501.47 1259.23,-499.83 1250.03,-494.58 1248.76,-501.47"/>
<text text-anchor="middle" x="1042.5" y="-485.3" font-family="Times,serif" font-size="9.00" fill="grey">aggregate</text>
</g>
<!-- 10 -->
<g id="node14" class="node">
<title>10</title>
<polygon fill="#fff68f" stroke="#8b864e" points="533,-348.2 356,-348.2 356,-230.8 539,-230.8 539,-342.2 533,-348.2"/>
<polyline fill="none" stroke="#8b864e" points="533,-348.2 533,-342.2 "/>
<polyline fill="none" stroke="#8b864e" points="539,-342.2 533,-342.2 "/>
<text text-anchor="start" x="364" y="-335.3" font-family="Helvetica,sans-Serif" font-size="11.00" fill="#8b864e">This is an example annotation&#13;</text>
<text text-anchor="start" x="364" y="-323.3" font-family="Helvetica,sans-Serif" font-size="11.00" fill="#8b864e">**&#13;</text>
<text text-anchor="start" x="364" y="-311.3" font-family="Helvetica,sans-Serif" font-size="11.00" fill="#8b864e">Important things:&#13;</text>
<text text-anchor="start" x="364" y="-299.3" font-family="Helvetica,sans-Serif" font-size="11.00" fill="#8b864e">&#45; Thing&#13;</text>
<text text-anchor="start" x="364" y="-287.3" font-family="Helvetica,sans-Serif" font-size="11.00" fill="#8b864e">&#45; Another Thing&#13;</text>
<text text-anchor="start" x="364" y="-274.2" font-family="Helvetica,sans-Serif" font-size="11.00" fill="#8b864e">&#13;</text>
<text text-anchor="start" x="364" y="-262.1" font-family="Helvetica,sans-Serif" font-size="11.00" fill="#8b864e">Aggregates:&#13;</text>
<text text-anchor="start" x="364" y="-250.1" font-family="Helvetica,sans-Serif" font-size="11.00" fill="#8b864e">&#45; Possession&#13;</text>
<text text-anchor="start" x="364" y="-238.1" font-family="Helvetica,sans-Serif" font-size="11.00" fill="#8b864e">**</text>
</g>
<!-- 10&#45;&gt;PossessionDeck -->
<g id="edge20" class="edge">
<title>10&#45;&gt;PossessionDeck</title>
<path fill="none" stroke="grey" stroke-dasharray="1,5" d="M539.14,-289.5C571.93,-289.5 608.95,-289.5 641.75,-289.5"/>
</g>
<!-- 11 -->
<g id="node15" class="node">
<title>11</title>
<polygon fill="#fff68f" stroke="#8b864e" points="1128,-622.5 951,-622.5 951,-542.5 1134,-542.5 1134,-616.5 1128,-622.5"/>
<polyline fill="none" stroke="#8b864e" points="1128,-622.5 1128,-616.5 "/>
<polyline fill="none" stroke="#8b864e" points="1134,-616.5 1128,-616.5 "/>
<text text-anchor="start" x="959" y="-609.7" font-family="Helvetica,sans-Serif" font-size="11.00" fill="#8b864e">This is an example annotation&#13;</text>
<text text-anchor="start" x="959" y="-597.7" font-family="Helvetica,sans-Serif" font-size="11.00" fill="#8b864e">**&#13;</text>
<text text-anchor="start" x="959" y="-585.7" font-family="Helvetica,sans-Serif" font-size="11.00" fill="#8b864e">Can create:&#13;</text>
<text text-anchor="start" x="959" y="-573.7" font-family="Helvetica,sans-Serif" font-size="11.00" fill="#8b864e">&#45; Creatures&#13;</text>
<text text-anchor="start" x="959" y="-561.7" font-family="Helvetica,sans-Serif" font-size="11.00" fill="#8b864e">&#45; IrateLocals&#13;</text>
<text text-anchor="start" x="959" y="-549.7" font-family="Helvetica,sans-Serif" font-size="11.00" fill="#8b864e">**</text>
</g>
<!-- 11&#45;&gt;Mission -->
<g id="edge21" class="edge">
<title>11&#45;&gt;Mission</title>
<path fill="none" stroke="grey" stroke-dasharray="1,5" d="M1134.15,-560.98C1174.64,-551.37 1221.65,-540.22 1259.46,-531.24"/>
</g>
<!-- testnode -->
<g id="node16" class="node">
<title>testnode</title>
<polygon fill="#98f5ff" stroke="#008b8b" points="266,-452.5 0,-452.5 0,-264.5 272,-264.5 272,-446.5 266,-452.5"/>
<polyline fill="none" stroke="#008b8b" points="266,-452.5 266,-446.5 "/>
<polyline fill="none" stroke="#008b8b" points="272,-446.5 266,-446.5 "/>
<text text-anchor="start" x="8" y="-439.7" font-family="Helvetica,sans-Serif" font-size="11.00" fill="#008b8b">This is a test annotation without any relations</text>
<text text-anchor="middle" x="136" y="-271.7" font-family="Helvetica,sans-Serif" font-size="11.00" fill="#008b8b">end of test annotation</text>
</g>
</g>
</svg>
