<?xml version="1.0" encoding="UTF-8" standalone="no"?>
<!DOCTYPE svg PUBLIC "-//W3C//DTD SVG 1.1//EN"
 "http://www.w3.org/Graphics/SVG/1.1/DTD/svg11.dtd">
<!-- Generated by graphviz version 2.43.0 (0)
 -->
<!-- Title: dot Pages: 1 -->
<svg width="1486pt" height="721pt"
 viewBox="0.00 0.00 1486.00 721.00" xmlns="http://www.w3.org/2000/svg" xmlns:xlink="http://www.w3.org/1999/xlink">
<g id="graph0" class="graph" transform="scale(1 1) rotate(0) translate(4 717)">
<title>dot</title>
<polygon fill="white" stroke="transparent" points="-4,4 -4,-717 1482,-717 1482,4 -4,4"/>
<!-- PossessionDeck -->
<g id="node1" class="node">
<title>PossessionDeck</title>
<polygon fill="lightgrey" stroke="black" points="493.5,-259.5 493.5,-319.5 653.5,-319.5 653.5,-259.5 493.5,-259.5"/>
<text text-anchor="middle" x="573.5" y="-306.7" font-family="Helvetica,sans-Serif" font-size="11.00">PossessionDeck</text>
<polyline fill="none" stroke="black" points="493.5,-299.5 653.5,-299.5 "/>
<text text-anchor="start" x="501.5" y="-286.7" font-family="Helvetica,sans-Serif" font-size="11.00">availablePossessions : list</text>
<polyline fill="none" stroke="black" points="493.5,-279.5 653.5,-279.5 "/>
<text text-anchor="start" x="501.5" y="-266.7" font-family="Helvetica,sans-Serif" font-size="11.00">updatePossessionDeck()</text>
</g>
<!-- Possession -->
<g id="node2" class="node">
<title>Possession</title>
<polygon fill="lightgrey" stroke="black" points="227,-180.5 227,-312.5 375,-312.5 375,-180.5 227,-180.5"/>
<text text-anchor="middle" x="301" y="-299.7" font-family="Helvetica,sans-Serif" font-size="11.00">Possession</text>
<polyline fill="none" stroke="black" points="227,-292.5 375,-292.5 "/>
<text text-anchor="start" x="235" y="-279.7" font-family="Helvetica,sans-Serif" font-size="11.00">name : str</text>
<text text-anchor="start" x="235" y="-267.7" font-family="Helvetica,sans-Serif" font-size="11.00">type : str</text>
<text text-anchor="start" x="235" y="-255.7" font-family="Helvetica,sans-Serif" font-size="11.00">description : str</text>
<text text-anchor="start" x="235" y="-243.7" font-family="Helvetica,sans-Serif" font-size="11.00">attackModifier : int</text>
<text text-anchor="start" x="235" y="-231.7" font-family="Helvetica,sans-Serif" font-size="11.00">damageModifier : int</text>
<text text-anchor="start" x="235" y="-219.7" font-family="Helvetica,sans-Serif" font-size="11.00">bonusDrawModifier : int</text>
<polyline fill="none" stroke="black" points="227,-212.5 375,-212.5 "/>
<text text-anchor="start" x="235" y="-199.7" font-family="Helvetica,sans-Serif" font-size="11.00">removeWounds()</text>
<text text-anchor="start" x="235" y="-187.7" font-family="Helvetica,sans-Serif" font-size="11.00">repairCheck()</text>
</g>
<!-- Possession&#45;&gt;PossessionDeck -->
<g id="edge1" class="edge">
<title>Possession&#45;&gt;PossessionDeck</title>
<path fill="none" stroke="black" d="M375.2,-258.14C408.38,-263.41 447.92,-269.7 482.87,-275.25"/>
<polygon fill="black" stroke="black" points="482.64,-278.76 493.07,-276.87 483.74,-271.85 482.64,-278.76"/>
<text text-anchor="middle" x="419" y="-270.3" font-family="Times,serif" font-size="9.00" fill="grey">association</text>
</g>
<!-- Character -->
<g id="node5" class="node">
<title>Character</title>
<polygon fill="lightgrey" stroke="black" points="463,-0.5 463,-240.5 684,-240.5 684,-0.5 463,-0.5"/>
<text text-anchor="middle" x="573.5" y="-227.7" font-family="Helvetica,sans-Serif" font-size="11.00">Character</text>
<polyline fill="none" stroke="black" points="463,-220.5 684,-220.5 "/>
<text text-anchor="start" x="471" y="-207.7" font-family="Helvetica,sans-Serif" font-size="11.00">name : string</text>
<text text-anchor="start" x="471" y="-195.7" font-family="Helvetica,sans-Serif" font-size="11.00">title : string</text>
<text text-anchor="start" x="471" y="-183.7" font-family="Helvetica,sans-Serif" font-size="11.00">combat : int</text>
<text text-anchor="start" x="471" y="-171.7" font-family="Helvetica,sans-Serif" font-size="11.00">endurance : int</text>
<text text-anchor="start" x="471" y="-159.7" font-family="Helvetica,sans-Serif" font-size="11.00">intelligence : int</text>
<text text-anchor="start" x="471" y="-147.7" font-family="Helvetica,sans-Serif" font-size="11.00">leadership : int</text>
<text text-anchor="start" x="471" y="-135.7" font-family="Helvetica,sans-Serif" font-size="11.00">diplomacy : int</text>
<text text-anchor="start" x="471" y="-123.7" font-family="Helvetica,sans-Serif" font-size="11.00">navigation : int</text>
<text text-anchor="start" x="471" y="-111.7" font-family="Helvetica,sans-Serif" font-size="11.00">homePlanet : string</text>
<text text-anchor="start" x="471" y="-99.7" font-family="Helvetica,sans-Serif" font-size="11.00">effectiveCombatRating : int</text>
<text text-anchor="start" x="471" y="-87.7" font-family="Helvetica,sans-Serif" font-size="11.00">wounds : int</text>
<text text-anchor="start" x="471" y="-75.7" font-family="Helvetica,sans-Serif" font-size="11.00">leader : boolean</text>
<text text-anchor="start" x="471" y="-63.7" font-family="Helvetica,sans-Serif" font-size="11.00">detected : boolean</text>
<text text-anchor="start" x="471" y="-51.7" font-family="Helvetica,sans-Serif" font-size="11.00">captured : boolean</text>
<text text-anchor="start" x="471" y="-39.7" font-family="Helvetica,sans-Serif" font-size="11.00">active : boolean</text>
<text text-anchor="start" x="471" y="-27.7" font-family="Helvetica,sans-Serif" font-size="11.00">bonusDraws : list</text>
<polyline fill="none" stroke="black" points="463,-20.5 684,-20.5 "/>
<text text-anchor="start" x="471" y="-7.7" font-family="Helvetica,sans-Serif" font-size="11.00">allegiance : string (Rebel or Imperial)</text>
</g>
<!-- Possession&#45;&gt;Character -->
<g id="edge2" class="edge">
<title>Possession&#45;&gt;Character</title>
<path fill="none" stroke="black" d="M375.2,-212.4C399.34,-201.16 426.86,-188.34 453.51,-175.92"/>
<polygon fill="black" stroke="black" points="455.31,-178.95 462.9,-171.55 452.36,-172.6 455.31,-178.95"/>
<text text-anchor="middle" x="419" y="-205.3" font-family="Times,serif" font-size="9.00" fill="grey">Assigned</text>
</g>
<!-- Ship -->
<g id="node3" class="node">
<title>Ship</title>
<polygon fill="lightgrey" stroke="black" points="5.5,-264.5 5.5,-352.5 133.5,-352.5 133.5,-264.5 5.5,-264.5"/>
<text text-anchor="middle" x="69.5" y="-339.7" font-family="Helvetica,sans-Serif" font-size="11.00">Ship</text>
<polyline fill="none" stroke="black" points="5.5,-332.5 133.5,-332.5 "/>
<text text-anchor="start" x="13.5" y="-319.7" font-family="Helvetica,sans-Serif" font-size="11.00">name : string</text>
<text text-anchor="start" x="13.5" y="-307.7" font-family="Helvetica,sans-Serif" font-size="11.00">cannons : int</text>
<text text-anchor="start" x="13.5" y="-295.7" font-family="Helvetica,sans-Serif" font-size="11.00">shields : int</text>
<text text-anchor="start" x="13.5" y="-283.7" font-family="Helvetica,sans-Serif" font-size="11.00">maneuver : int</text>
<text text-anchor="start" x="13.5" y="-271.7" font-family="Helvetica,sans-Serif" font-size="11.00">maxPassengers : int</text>
</g>
<!-- Ship&#45;&gt;Possession -->
<g id="edge3" class="edge">
<title>Ship&#45;&gt;Possession</title>
<path fill="none" stroke="black" d="M133.52,-291.48C159.28,-284.52 189.44,-276.37 216.97,-268.93"/>
<polygon fill="black" stroke="black" points="218.23,-272.21 226.97,-266.23 216.41,-265.46 218.23,-272.21"/>
<text text-anchor="middle" x="183" y="-287.3" font-family="Times,serif" font-size="9.00" fill="grey">association</text>
</g>
<!-- Companion -->
<g id="node4" class="node">
<title>Companion</title>
<polygon fill="lightgrey" stroke="black" points="0,-125.5 0,-245.5 139,-245.5 139,-125.5 0,-125.5"/>
<text text-anchor="middle" x="69.5" y="-232.7" font-family="Helvetica,sans-Serif" font-size="11.00">Companion</text>
<polyline fill="none" stroke="black" points="0,-225.5 139,-225.5 "/>
<text text-anchor="start" x="8" y="-212.7" font-family="Helvetica,sans-Serif" font-size="11.00">name : string</text>
<text text-anchor="start" x="8" y="-200.7" font-family="Helvetica,sans-Serif" font-size="11.00">combatBonus : int</text>
<text text-anchor="start" x="8" y="-188.7" font-family="Helvetica,sans-Serif" font-size="11.00">intelligenceBonus : int</text>
<text text-anchor="start" x="8" y="-176.7" font-family="Helvetica,sans-Serif" font-size="11.00">diplomacyBonus : int</text>
<text text-anchor="start" x="8" y="-164.7" font-family="Helvetica,sans-Serif" font-size="11.00">navigationBonus : int</text>
<text text-anchor="start" x="8" y="-152.7" font-family="Helvetica,sans-Serif" font-size="11.00">special : list</text>
<polyline fill="none" stroke="black" points="0,-145.5 139,-145.5 "/>
<text text-anchor="start" x="8" y="-132.7" font-family="Helvetica,sans-Serif" font-size="11.00">getSpecial()</text>
</g>
<!-- Companion&#45;&gt;Possession -->
<g id="edge4" class="edge">
<title>Companion&#45;&gt;Possession</title>
<path fill="none" stroke="black" d="M139.05,-203.72C163.52,-210.23 191.37,-217.63 216.94,-224.42"/>
<polygon fill="black" stroke="black" points="216.05,-227.81 226.61,-226.99 217.85,-221.04 216.05,-227.81"/>
<text text-anchor="middle" x="183" y="-223.3" font-family="Times,serif" font-size="9.00" fill="grey">association</text>
</g>
<!-- AttackerStack -->
<g id="node9" class="node">
<title>AttackerStack</title>
<polygon fill="lightgrey" stroke="black" points="1300,-294.5 1300,-438.5 1478,-438.5 1478,-294.5 1300,-294.5"/>
<text text-anchor="middle" x="1389" y="-425.7" font-family="Helvetica,sans-Serif" font-size="11.00">AttackerStack</text>
<polyline fill="none" stroke="black" points="1300,-418.5 1478,-418.5 "/>
<text text-anchor="start" x="1308" y="-405.7" font-family="Helvetica,sans-Serif" font-size="11.00">attackerType : list</text>
<text text-anchor="start" x="1308" y="-393.7" font-family="Helvetica,sans-Serif" font-size="11.00">attackDifferential : dictionary</text>
<text text-anchor="start" x="1308" y="-381.7" font-family="Helvetica,sans-Serif" font-size="11.00">attackModifier : list</text>
<text text-anchor="start" x="1308" y="-369.7" font-family="Helvetica,sans-Serif" font-size="11.00">currentRound : int</text>
<polyline fill="none" stroke="black" points="1300,-362.5 1478,-362.5 "/>
<text text-anchor="start" x="1308" y="-349.7" font-family="Helvetica,sans-Serif" font-size="11.00">attack()</text>
<text text-anchor="start" x="1308" y="-337.7" font-family="Helvetica,sans-Serif" font-size="11.00">capture()</text>
<text text-anchor="start" x="1308" y="-325.7" font-family="Helvetica,sans-Serif" font-size="11.00">applyWounds()</text>
<text text-anchor="start" x="1308" y="-313.7" font-family="Helvetica,sans-Serif" font-size="11.00">updateCombatRating()</text>
<text text-anchor="start" x="1308" y="-301.7" font-family="Helvetica,sans-Serif" font-size="11.00">updateModifiers()</text>
</g>
<!-- Character&#45;&gt;AttackerStack -->
<g id="edge7" class="edge">
<title>Character&#45;&gt;AttackerStack</title>
<path fill="none" stroke="black" d="M684.05,-110.59C819.82,-103.17 1054.68,-106.57 1230,-195.5 1271.05,-216.32 1306.84,-252.45 1333.93,-286.15"/>
<polygon fill="black" stroke="black" points="1331.34,-288.52 1340.28,-294.2 1336.83,-284.18 1331.34,-288.52"/>
<text text-anchor="middle" x="999" y="-131.3" font-family="Times,serif" font-size="9.00" fill="grey">association</text>
</g>
<!-- DefenderStack -->
<g id="node10" class="node">
<title>DefenderStack</title>
<polygon fill="lightgrey" stroke="black" points="1043,-205.5 1043,-337.5 1230,-337.5 1230,-205.5 1043,-205.5"/>
<text text-anchor="middle" x="1136.5" y="-324.7" font-family="Helvetica,sans-Serif" font-size="11.00">DefenderStack</text>
<polyline fill="none" stroke="black" points="1043,-317.5 1230,-317.5 "/>
<text text-anchor="start" x="1051" y="-304.7" font-family="Helvetica,sans-Serif" font-size="11.00">defenderType : list</text>
<text text-anchor="start" x="1051" y="-292.7" font-family="Helvetica,sans-Serif" font-size="11.00">defenseDifferential : dictionary</text>
<text text-anchor="start" x="1051" y="-280.7" font-family="Helvetica,sans-Serif" font-size="11.00">defenseModifier : list</text>
<polyline fill="none" stroke="black" points="1043,-273.5 1230,-273.5 "/>
<text text-anchor="start" x="1051" y="-260.7" font-family="Helvetica,sans-Serif" font-size="11.00">retaliate()</text>
<text text-anchor="start" x="1051" y="-248.7" font-family="Helvetica,sans-Serif" font-size="11.00">breakOff()</text>
<text text-anchor="start" x="1051" y="-236.7" font-family="Helvetica,sans-Serif" font-size="11.00">inactive()</text>
<text text-anchor="start" x="1051" y="-224.7" font-family="Helvetica,sans-Serif" font-size="11.00">applyWounds()</text>
<text text-anchor="start" x="1051" y="-212.7" font-family="Helvetica,sans-Serif" font-size="11.00">updateCombatRating()</text>
</g>
<!-- Character&#45;&gt;DefenderStack -->
<g id="edge6" class="edge">
<title>Character&#45;&gt;DefenderStack</title>
<path fill="none" stroke="black" d="M684.26,-168.45C690.22,-170.59 696.16,-172.63 702,-174.5 813.02,-210.11 944.09,-237.49 1032.81,-253.94"/>
<polygon fill="black" stroke="black" points="1032.41,-257.42 1042.88,-255.79 1033.68,-250.54 1032.41,-257.42"/>
<text text-anchor="middle" x="871" y="-241.3" font-family="Times,serif" font-size="9.00" fill="grey">association</text>
</g>
<!-- MissionGroupStack -->
<g id="node11" class="node">
<title>MissionGroupStack</title>
<polygon fill="lightgrey" stroke="black" points="787,-395.5 787,-459.5 955,-459.5 955,-395.5 787,-395.5"/>
<text text-anchor="middle" x="871" y="-446.7" font-family="Helvetica,sans-Serif" font-size="11.00">MissionGroupStack</text>
<polyline fill="none" stroke="black" points="787,-439.5 955,-439.5 "/>
<text text-anchor="start" x="795" y="-426.7" font-family="Helvetica,sans-Serif" font-size="11.00">effectiveCombatRating : int</text>
<text text-anchor="start" x="795" y="-414.7" font-family="Helvetica,sans-Serif" font-size="11.00">currentMission : char</text>
<text text-anchor="start" x="795" y="-402.7" font-family="Helvetica,sans-Serif" font-size="11.00">bonusDraws : list</text>
</g>
<!-- Character&#45;&gt;MissionGroupStack -->
<g id="edge5" class="edge">
<title>Character&#45;&gt;MissionGroupStack</title>
<path fill="none" stroke="black" d="M684.01,-234.79C690.1,-241.12 696.12,-247.39 702,-253.5 746.57,-299.83 797.92,-352.98 832,-388.22"/>
<polygon fill="black" stroke="black" points="829.53,-390.71 839,-395.46 834.57,-385.84 829.53,-390.71"/>
<text text-anchor="middle" x="735.5" y="-323.3" font-family="Times,serif" font-size="9.00" fill="grey">association</text>
</g>
<!-- IrateLocals -->
<g id="node6" class="node">
<title>IrateLocals</title>
<polygon fill="lightgrey" stroke="black" points="489.5,-568.5 489.5,-712.5 657.5,-712.5 657.5,-568.5 489.5,-568.5"/>
<text text-anchor="middle" x="573.5" y="-699.7" font-family="Helvetica,sans-Serif" font-size="11.00">IrateLocals</text>
<polyline fill="none" stroke="black" points="489.5,-692.5 657.5,-692.5 "/>
<text text-anchor="start" x="497.5" y="-679.7" font-family="Helvetica,sans-Serif" font-size="11.00">type : string</text>
<text text-anchor="start" x="497.5" y="-667.7" font-family="Helvetica,sans-Serif" font-size="11.00">name : string</text>
<text text-anchor="start" x="497.5" y="-655.7" font-family="Helvetica,sans-Serif" font-size="11.00">combat : int</text>
<text text-anchor="start" x="497.5" y="-643.7" font-family="Helvetica,sans-Serif" font-size="11.00">endurance : int</text>
<text text-anchor="start" x="497.5" y="-631.7" font-family="Helvetica,sans-Serif" font-size="11.00">homePlanet : string</text>
<text text-anchor="start" x="497.5" y="-619.7" font-family="Helvetica,sans-Serif" font-size="11.00">attackType : string</text>
<text text-anchor="start" x="497.5" y="-607.7" font-family="Helvetica,sans-Serif" font-size="11.00">effectiveCombatRating : int</text>
<text text-anchor="start" x="497.5" y="-595.7" font-family="Helvetica,sans-Serif" font-size="11.00">wounds : int</text>
<polyline fill="none" stroke="black" points="489.5,-588.5 657.5,-588.5 "/>
<text text-anchor="start" x="497.5" y="-575.7" font-family="Helvetica,sans-Serif" font-size="11.00">getType()</text>
</g>
<!-- Creatures -->
<g id="node7" class="node">
<title>Creatures</title>
<polygon fill="lightgrey" stroke="black" points="797,-571.5 797,-655.5 945,-655.5 945,-571.5 797,-571.5"/>
<text text-anchor="middle" x="871" y="-642.7" font-family="Helvetica,sans-Serif" font-size="11.00">Creatures</text>
<polyline fill="none" stroke="black" points="797,-635.5 945,-635.5 "/>
<text text-anchor="start" x="805" y="-622.7" font-family="Helvetica,sans-Serif" font-size="11.00">combatShift : int</text>
<text text-anchor="start" x="805" y="-610.7" font-family="Helvetica,sans-Serif" font-size="11.00">breakOffModifier : int</text>
<text text-anchor="start" x="805" y="-598.7" font-family="Helvetica,sans-Serif" font-size="11.00">bonusDrawModifier : int</text>
<polyline fill="none" stroke="black" points="797,-591.5 945,-591.5 "/>
<text text-anchor="start" x="805" y="-578.7" font-family="Helvetica,sans-Serif" font-size="11.00">getSpecial()</text>
</g>
<!-- IrateLocals&#45;&gt;Creatures -->
<g id="edge8" class="edge">
<title>IrateLocals&#45;&gt;Creatures</title>
<path fill="none" stroke="black" d="M657.6,-632.91C697.89,-629.23 746.16,-624.82 786.5,-621.13"/>
<polygon fill="black" stroke="black" points="786.94,-624.6 796.58,-620.21 786.3,-617.63 786.94,-624.6"/>
<text text-anchor="middle" x="735.5" y="-631.3" font-family="Times,serif" font-size="9.00" fill="grey">generalization</text>
</g>
<!-- IrateLocals&#45;&gt;AttackerStack -->
<g id="edge10" class="edge">
<title>IrateLocals&#45;&gt;AttackerStack</title>
<path fill="none" stroke="black" d="M657.54,-664.64C789.48,-697.83 1050.38,-741.98 1230,-633.5 1297.87,-592.51 1339.92,-510.39 1363.42,-447.99"/>
<polygon fill="black" stroke="black" points="1366.72,-449.13 1366.89,-438.54 1360.15,-446.72 1366.72,-449.13"/>
<text text-anchor="middle" x="999" y="-703.3" font-family="Times,serif" font-size="9.00" fill="grey">association</text>
</g>
<!-- Mission -->
<g id="node13" class="node">
<title>Mission</title>
<polygon fill="lightgrey" stroke="black" points="1074.5,-476.5 1074.5,-560.5 1198.5,-560.5 1198.5,-476.5 1074.5,-476.5"/>
<text text-anchor="middle" x="1136.5" y="-547.7" font-family="Helvetica,sans-Serif" font-size="11.00">Mission</text>
<polyline fill="none" stroke="black" points="1074.5,-540.5 1198.5,-540.5 "/>
<text text-anchor="start" x="1082.5" y="-527.7" font-family="Helvetica,sans-Serif" font-size="11.00">name : string</text>
<text text-anchor="start" x="1082.5" y="-515.7" font-family="Helvetica,sans-Serif" font-size="11.00">type : char</text>
<text text-anchor="start" x="1082.5" y="-503.7" font-family="Helvetica,sans-Serif" font-size="11.00">description : string</text>
<polyline fill="none" stroke="black" points="1074.5,-496.5 1198.5,-496.5 "/>
<text text-anchor="start" x="1082.5" y="-483.7" font-family="Helvetica,sans-Serif" font-size="11.00">actionEventCheck()</text>
</g>
<!-- IrateLocals&#45;&gt;Mission -->
<g id="edge9" class="edge">
<title>IrateLocals&#45;&gt;Mission</title>
<path fill="none" stroke="black" d="M657.6,-599.39C696.07,-582.11 742.93,-563.51 787,-552.5 837.77,-539.81 977.9,-528.81 1064.22,-522.97"/>
<polygon fill="black" stroke="black" points="1064.46,-526.46 1074.21,-522.3 1063.99,-519.47 1064.46,-526.46"/>
<text text-anchor="middle" x="871" y="-555.3" font-family="Times,serif" font-size="9.00" fill="grey">Can Create</text>
</g>
<!-- Creatures&#45;&gt;AttackerStack -->
<g id="edge12" class="edge">
<title>Creatures&#45;&gt;AttackerStack</title>
<path fill="none" stroke="black" d="M945.32,-620.57C1021.48,-624.46 1141.64,-620.58 1230,-570.5 1279.87,-542.23 1319.36,-491.25 1346.39,-447.33"/>
<polygon fill="black" stroke="black" points="1349.46,-449.01 1351.63,-438.64 1343.47,-445.4 1349.46,-449.01"/>
<text text-anchor="middle" x="1136.5" y="-622.3" font-family="Times,serif" font-size="9.00" fill="grey">association</text>
</g>
<!-- Creatures&#45;&gt;Mission -->
<g id="edge11" class="edge">
<title>Creatures&#45;&gt;Mission</title>
<path fill="none" stroke="black" d="M945.05,-587.16C982.38,-573.7 1027.61,-557.4 1064.63,-544.05"/>
<polygon fill="black" stroke="black" points="1066.12,-547.23 1074.34,-540.55 1063.75,-540.65 1066.12,-547.23"/>
<text text-anchor="middle" x="999" y="-577.3" font-family="Times,serif" font-size="9.00" fill="grey">Can Create</text>
</g>
<!-- MilitaryUnit -->
<g id="node8" class="node">
<title>MilitaryUnit</title>
<polygon fill="lightgrey" stroke="black" points="463,-338.5 463,-470.5 684,-470.5 684,-338.5 463,-338.5"/>
<text text-anchor="middle" x="573.5" y="-457.7" font-family="Helvetica,sans-Serif" font-size="11.00">MilitaryUnit</text>
<polyline fill="none" stroke="black" points="463,-450.5 684,-450.5 "/>
<text text-anchor="start" x="471" y="-437.7" font-family="Helvetica,sans-Serif" font-size="11.00">type : string</text>
<text text-anchor="start" x="471" y="-425.7" font-family="Helvetica,sans-Serif" font-size="11.00">name : string</text>
<text text-anchor="start" x="471" y="-413.7" font-family="Helvetica,sans-Serif" font-size="11.00">combat : int</text>
<text text-anchor="start" x="471" y="-401.7" font-family="Helvetica,sans-Serif" font-size="11.00">endurance : int</text>
<text text-anchor="start" x="471" y="-389.7" font-family="Helvetica,sans-Serif" font-size="11.00">environType : string</text>
<text text-anchor="start" x="471" y="-377.7" font-family="Helvetica,sans-Serif" font-size="11.00">effectiveCombatRating : int</text>
<text text-anchor="start" x="471" y="-365.7" font-family="Helvetica,sans-Serif" font-size="11.00">wounds : int</text>
<polyline fill="none" stroke="black" points="463,-358.5 684,-358.5 "/>
<text text-anchor="start" x="471" y="-345.7" font-family="Helvetica,sans-Serif" font-size="11.00">allegiance : string (Rebel or Imperial)</text>
</g>
<!-- MilitaryUnit&#45;&gt;AttackerStack -->
<g id="edge14" class="edge">
<title>MilitaryUnit&#45;&gt;AttackerStack</title>
<path fill="none" stroke="black" d="M684.24,-391.2C764.17,-382.21 875.12,-371.16 973,-366.5 1081.23,-361.35 1205.51,-362.25 1289.64,-363.87"/>
<polygon fill="black" stroke="black" points="1289.63,-367.37 1299.7,-364.07 1289.77,-360.37 1289.63,-367.37"/>
<text text-anchor="middle" x="999" y="-369.3" font-family="Times,serif" font-size="9.00" fill="grey">association</text>
</g>
<!-- MilitaryUnit&#45;&gt;MissionGroupStack -->
<g id="edge13" class="edge">
<title>MilitaryUnit&#45;&gt;MissionGroupStack</title>
<path fill="none" stroke="black" d="M684.11,-413.03C714.53,-415.4 747.26,-417.95 776.65,-420.23"/>
<polygon fill="black" stroke="black" points="776.65,-423.74 786.89,-421.03 777.2,-416.77 776.65,-423.74"/>
<text text-anchor="middle" x="735.5" y="-421.3" font-family="Times,serif" font-size="9.00" fill="grey">Can Effect</text>
</g>
<!-- DefenderStack&#45;&gt;AttackerStack -->
<g id="edge15" class="edge">
<title>DefenderStack&#45;&gt;AttackerStack</title>
<path fill="none" stroke="black" d="M1230.07,-306.6C1249.8,-314.09 1270.69,-322.01 1290.6,-329.56"/>
<polygon fill="black" stroke="black" points="1289.38,-332.84 1299.97,-333.12 1291.87,-326.3 1289.38,-332.84"/>
<text text-anchor="middle" x="1265" y="-327.3" font-family="Times,serif" font-size="9.00" fill="grey">Attacks</text>
</g>
<!-- MissionGroupStack&#45;&gt;DefenderStack -->
<g id="edge17" class="edge">
<title>MissionGroupStack&#45;&gt;DefenderStack</title>
<path fill="none" stroke="black" d="M955.27,-409.78C978.8,-402.72 1003.77,-393.18 1025,-380.5 1041.45,-370.68 1057.29,-357.9 1071.58,-344.57"/>
<polygon fill="black" stroke="black" points="1074.1,-347 1078.91,-337.56 1069.27,-341.94 1074.1,-347"/>
<text text-anchor="middle" x="999" y="-406.3" font-family="Times,serif" font-size="9.00" fill="grey">association</text>
</g>
<!-- MissionGroupStack&#45;&gt;Mission -->
<g id="edge16" class="edge">
<title>MissionGroupStack&#45;&gt;Mission</title>
<path fill="none" stroke="black" d="M955.11,-450.16C977.92,-456.87 1002.55,-464.55 1025,-472.5 1038,-477.1 1051.69,-482.41 1064.84,-487.75"/>
<polygon fill="black" stroke="black" points="1063.72,-491.08 1074.3,-491.64 1066.38,-484.6 1063.72,-491.08"/>
<text text-anchor="middle" x="999" y="-475.3" font-family="Times,serif" font-size="9.00" fill="grey">Assigned</text>
</g>
<!-- MissionDeck -->
<g id="node12" class="node">
<title>MissionDeck</title>
<polygon fill="lightgrey" stroke="black" points="503,-489.5 503,-549.5 644,-549.5 644,-489.5 503,-489.5"/>
<text text-anchor="middle" x="573.5" y="-536.7" font-family="Helvetica,sans-Serif" font-size="11.00">MissionDeck</text>
<polyline fill="none" stroke="black" points="503,-529.5 644,-529.5 "/>
<text text-anchor="start" x="511" y="-516.7" font-family="Helvetica,sans-Serif" font-size="11.00">availableMissions : list</text>
<polyline fill="none" stroke="black" points="503,-509.5 644,-509.5 "/>
<text text-anchor="start" x="511" y="-496.7" font-family="Helvetica,sans-Serif" font-size="11.00">updateMissionDeck()</text>
</g>
<!-- MissionDeck&#45;&gt;MissionGroupStack -->
<g id="edge18" class="edge">
<title>MissionDeck&#45;&gt;MissionGroupStack</title>
<path fill="none" stroke="black" d="M644.02,-495.64C657.36,-490.81 671.16,-485.63 684,-480.5 692.13,-477.25 693.75,-475.42 702,-472.5 726,-464.01 752.41,-456.23 777.05,-449.62"/>
<polygon fill="black" stroke="black" points="777.98,-452.99 786.75,-447.05 776.19,-446.22 777.98,-452.99"/>
<text text-anchor="middle" x="735.5" y="-475.3" font-family="Times,serif" font-size="9.00" fill="grey">Selects</text>
</g>
<!-- MissionDeck&#45;&gt;Mission -->
<g id="edge19" class="edge">
<title>MissionDeck&#45;&gt;Mission</title>
<path fill="none" stroke="black" d="M644.34,-515.8C685.79,-513.79 739.38,-511.51 787,-510.5 861.65,-508.92 880.35,-508.85 955,-510.5 990.95,-511.3 1030.9,-512.98 1064.06,-514.6"/>
<polygon fill="black" stroke="black" points="1063.96,-518.1 1074.12,-515.1 1064.3,-511.11 1063.96,-518.1"/>
<text text-anchor="middle" x="871" y="-513.3" font-family="Times,serif" font-size="9.00" fill="grey">association</text>
</g>
</g>
</svg>
